<svg width="130" height="130" viewBox="0 0 130 130" fill="none" xmlns="http://www.w3.org/2000/svg">
<mask id="mask0_501_347" style="mask-type:alpha" maskUnits="userSpaceOnUse" x="0" y="0" width="130" height="130">
<circle cx="65" cy="65" r="65" fill="#D9D9D9"/>
</mask>
<g mask="url(#mask0_501_347)">
<circle cx="65" cy="65" r="65" fill="#F59E0B"/>
<path d="M89.5236 55.2568L93.7018 52.8438C94.2524 52.52 94.7058 51.6617 94.7058 50.9329V48.8762C94.7058 48.1475 94.2524 47.8074 93.7018 48.1151L89.5236 50.528C88.973 50.8519 88.5195 51.7102 88.5195 52.439V54.4957C88.5195 55.2244 88.973 55.5645 89.5236 55.2568Z" fill="#DBDBDB"/>
<path d="M95.0458 48.4382C95.0458 48.4382 94.479 47.9686 94.2037 48.001C93.9284 48.0334 94.5438 48.8917 94.5438 48.8917L95.0458 48.4544V48.4382Z" fill="#DBDBDB"/>
<path d="M89.7026 55.6932C89.7026 55.6932 88.9577 55.5799 88.7633 55.2236C88.569 54.8673 88.6985 54.4786 88.6985 54.4786C88.6985 54.4786 89.7188 54.9483 89.6864 55.677L89.7026 55.6932Z" fill="#DBDBDB"/>
<path d="M90.1545 55.5797L94.3326 53.1667C94.8832 52.8428 95.3367 51.9845 95.3367 51.2558V49.1991C95.3367 48.4703 94.8832 48.1303 94.3326 48.4379L90.1545 50.8509C89.6039 51.1748 89.1504 52.0331 89.1504 52.7619V54.8186C89.1504 55.5473 89.6039 55.8874 90.1545 55.5797Z" fill="#DEEFFF"/>
<path d="M54.4954 89.3285L66.787 82.122C66.787 82.122 64.6331 77.9277 59.3699 79.3852C54.1067 80.8427 51.127 82.6726 51.127 82.6726L54.4954 89.3123V89.3285Z" fill="#7C6B7C"/>
<path d="M59.42 87.4342C59.42 92.3411 62.416 98.0415 66.0921 100.163C69.7682 102.284 72.7642 100.033 72.748 95.1103C72.748 90.2034 69.752 84.503 66.0759 82.3815C62.3998 80.2601 59.4038 82.5111 59.42 87.4342Z" fill="#282027"/>
<path d="M70.2688 100.617L65.9449 103.11L57.8477 84.325L62.3335 81.7662L70.2688 100.617Z" fill="#282027"/>
<path d="M55.0958 89.9443C55.0958 94.8512 58.0918 100.552 61.7679 102.673C65.444 104.795 68.44 102.544 68.4238 97.6205C68.4238 92.7136 65.4278 87.0131 61.7517 84.8917C58.0755 82.7702 55.0796 85.0212 55.0958 89.9443Z" fill="#3D333B"/>
<path d="M56.9746 91.0131C56.9746 94.5435 59.1285 98.6407 61.7682 100.163C64.4241 101.685 66.5617 100.066 66.5617 96.5354C66.5617 93.005 64.4079 88.9078 61.7682 87.3856C59.1123 85.8633 56.9746 87.4827 56.9746 91.0131Z" fill="white"/>
<path d="M59.0801 92.3735C59.0801 94.1711 60.1813 96.2764 61.5254 97.0537C62.8858 97.8311 63.9708 97.0051 63.9708 95.2075C63.9708 93.41 62.8696 91.3047 61.5254 90.5274C60.1651 89.75 59.0801 90.5759 59.0801 92.3735Z" fill="#3D333B"/>
<path d="M59.4844 92.5999C59.4844 94.106 60.4074 95.8388 61.5249 96.4866C62.6585 97.1343 63.5654 96.438 63.5654 94.9481C63.5654 93.442 62.6423 91.7092 61.5249 91.0614C60.3913 90.4137 59.4844 91.11 59.4844 92.5999Z" fill="#7C6B7C"/>
<path d="M3.40163 59.8553L15.6932 52.6488C15.6932 52.6488 13.5393 48.4544 8.27616 49.9119C3.01297 51.3694 0.0332031 53.1994 0.0332031 53.1994L3.40163 59.8391V59.8553Z" fill="#7C6B7C"/>
<path d="M-6.7996 34.0901C-6.7996 34.0901 7.95351 22.171 19.6459 19.5475C24.5042 18.4463 29.7512 20.8592 33.7998 21.2155L38.1561 25.4585L6.75513 44.7622L-6.10323 37.912C-7.30162 37.2156 -8.01418 34.8026 -6.81579 34.0901H-6.7996Z" fill="#DBDBDB"/>
<path d="M91.8227 57.0373C90.4461 58.7215 87.6445 61.2964 82.1384 65.1669C68.8266 74.511 59.369 73.8147 59.369 73.8147L51.9844 60.8268C59.6929 57.264 71.3043 52.1304 76.2598 51.1911C81.1991 50.2518 87.7417 54.1223 91.8227 57.0373V57.0373Z" fill="#9FBEEC"/>
<path d="M80.5522 39.4176L92.9085 54.0412C92.9085 54.0412 93.783 54.6566 91.8235 57.0371C87.7587 54.1383 81.2162 50.2517 76.2607 51.1909C71.3214 52.1302 59.71 57.2639 51.9852 60.8266L49.9609 57.28L80.536 39.4176H80.5522Z" fill="#4D74B9"/>
<path d="M80.5532 39.4179C80.5532 39.4179 79.209 41.3937 71.1442 46.9969C63.63 52.2277 49.9943 57.2804 49.9943 57.2804C49.9943 57.2804 40.2453 49.8957 32.5043 45.6042C24.7796 41.3127 11.2734 35.677 11.2734 35.677L33.7999 21.2316C33.7999 21.2316 39.7432 15.3854 49.9457 20.6972C53.7838 22.6891 60.6988 26.9482 70.4155 32.8592C74.043 35.0616 77.6706 37.4584 80.5532 39.4341V39.4179Z" fill="#EFEFEF"/>
<path d="M79.5971 41.0697C79.5971 41.0697 72.8279 36.9401 63.1922 31.4664C53.5565 25.9765 41.0058 18.7375 41.0058 18.7375L39.8398 19.11C39.8398 19.11 45.0545 22.2355 49.9452 24.94C53.9128 27.1263 79.1437 41.8956 79.1437 41.8956L79.5971 41.0858V41.0697Z" fill="#CECECE"/>
<path d="M55.6772 55.0131C55.6772 55.0131 48.908 50.8836 39.2723 45.4098C29.6366 39.9199 17.0859 32.681 17.0859 32.681L15.9199 33.0535C15.9199 33.0535 21.1345 36.179 26.0252 38.8835C29.9929 41.0697 55.2238 55.839 55.2238 55.839L55.6772 55.0293V55.0131Z" fill="#CECECE"/>
<path d="M14.3976 34.0732L7.88744 35.2069L1.3125 38.8182C1.3125 38.8182 14.1385 37.1502 15.434 36.5996C16.7296 36.049 14.3976 34.0732 14.3976 34.0732V34.0732Z" fill="#EFEFEF"/>
<path d="M8.32624 57.9601C8.32624 62.867 11.3222 68.5674 14.9983 70.6889C18.6745 72.8103 21.6704 70.5593 21.6542 65.6362C21.6542 60.7293 18.6583 55.0289 14.9822 52.9074C11.306 50.7859 8.31004 53.037 8.32624 57.9601V57.9601Z" fill="#282027"/>
<path d="M19.1608 71.1422L14.8531 73.6361L6.75586 54.8506L11.2417 52.2919L19.1608 71.1422Z" fill="#282027"/>
<path d="M4.00202 60.4543C4.00202 65.3612 6.99799 71.0617 10.6741 73.1831C14.3503 75.3046 17.3462 73.0536 17.33 68.1305C17.33 63.2236 14.3341 57.5231 10.6579 55.4017C6.98179 53.2802 3.98582 55.5312 4.00202 60.4543V60.4543Z" fill="#3D333B"/>
<path d="M5.88086 61.539C5.88086 65.0694 8.03473 69.1665 10.6744 70.6888C13.3303 72.2111 15.468 70.5917 15.468 67.0613C15.468 63.5309 13.3141 59.4337 10.6744 57.9114C8.01853 56.3892 5.88086 58.0086 5.88086 61.539Z" fill="white"/>
<path d="M7.98633 62.8829C7.98633 64.6805 9.08755 66.7858 10.4317 67.5631C11.792 68.3404 12.877 67.5145 12.877 65.717C12.877 63.9194 11.7758 61.8141 10.4317 61.0368C9.07136 60.2594 7.98633 61.0854 7.98633 62.8829V62.8829Z" fill="#3D333B"/>
<path d="M8.39062 63.1263C8.39062 64.6324 9.31371 66.3652 10.4311 67.0129C11.5647 67.6607 12.4716 66.9644 12.4716 65.4745C12.4716 63.9684 11.5485 62.2356 10.4311 61.5878C9.29752 60.94 8.39062 61.6364 8.39062 63.1263V63.1263Z" fill="#7C6B7C"/>
<path d="M-6.80003 34.0894C-3.88503 34.6238 -1.26154 38.8668 3.98545 37.8951C5.44295 37.6198 9.92879 35.9194 13.6211 36.1785C17.5402 36.4538 19.7102 37.9113 23.2406 40.0004C26.0422 41.6522 36.0018 47.2879 43.6132 52.1786C47.8723 54.9155 50.8359 56.5511 51.9371 58.3973C52.7145 59.6766 55.4189 66.0086 58.0748 70.9641C58.6092 71.9682 59.2732 72.8751 60.0343 73.6848L108.358 64.7455C108.358 64.7455 111.079 67.5633 112.828 72.6645C113.492 74.5917 115.516 79.4338 114.561 83.8225C113.703 87.8063 110.885 91.9683 105.767 94.9319C88.1155 105.167 78.1397 102.819 70.7874 98.7214C70.755 92.2112 66.8036 84.6808 61.9129 81.863C57.0384 79.0613 53.0869 82.0249 53.0707 88.4865C42.6901 82.4946 29.4431 74.8508 18.7871 68.6969C18.5766 66.9803 17.6535 61.4418 16.6981 59.8224C14.8033 56.5673 9.99358 52.0652 7.87211 52.2758C1.07046 52.9559 3.88828 60.0977 2.70609 59.4175C1.03806 58.462 0.0987864 57.9114 0.0987864 57.9114C-5.24537 54.8345 -7.96603 48.7292 -8.84053 44.8749C-9.32636 42.7373 -9.16441 35.6441 -6.81622 34.0732L-6.80003 34.0894Z" fill="#DBDBDB"/>
<path d="M1.91211 57.8465C1.9445 50.64 6.33319 47.3202 11.7745 50.4619C14.1551 51.8384 16.3413 54.219 18.0579 57.0854C18.9648 57.6522 19.9203 58.2514 20.9082 58.883C26.058 62.1866 48.2443 74.8507 56.4225 79.5147C58.1391 78.5592 60.3578 78.6726 62.7869 80.0653C68.2282 83.207 72.6493 91.6119 72.6817 98.867C72.4226 98.7213 72.1797 98.5755 71.9206 98.4298C71.791 98.3488 71.4024 98.1221 70.8355 97.7982C70.8355 97.7334 69.7343 97.3123 69.7343 97.2476C69.7343 91.2394 66.4145 84.6645 61.9124 82.0572C60.9408 81.5066 60.0501 81.1989 59.2565 81.1179C59.3861 81.1989 59.4833 81.2475 59.4833 81.2475L56.6168 81.8467C55.2889 82.9317 54.544 85.1341 54.544 88.1949C54.544 88.2597 54.544 88.3244 54.544 88.3892C54.0257 88.0815 53.4751 87.7738 52.9407 87.4661C52.9407 84.875 53.5399 82.7859 54.5278 81.3284C54.5278 81.3284 38.0257 72.1138 32.5358 69.0369C29.5236 67.3527 20.7786 63.3365 20.7786 63.3365C21.2644 64.4539 21.5398 66.4296 21.6855 69.2798C21.4264 69.1341 21.1835 68.9883 20.9244 68.8426C20.7948 68.7616 20.4061 68.5511 19.8393 68.211C19.8393 68.1462 18.7381 67.7251 18.7381 67.6604C18.7381 65.2798 18.2037 62.802 17.2968 60.5186L16.9405 60.3243L14.1713 56.2919L10.4304 52.7453C9.83118 52.3566 10.981 52.9396 13.1186 54.1704C12.4223 53.5064 11.6935 52.9396 10.9162 52.4862C6.41415 49.8951 3.06191 52.5348 3.07811 58.5429C3.07811 58.6077 3.54775 58.7534 3.54775 58.8182C3.02953 58.5105 2.47892 58.2028 1.94451 57.8951L1.91211 57.8465Z" fill="#EFEFEF"/>
<path d="M61.913 81.8786C66.7876 84.6965 70.7552 92.2269 70.7876 98.737C70.5609 98.6075 70.3341 98.4779 70.1074 98.3484C69.9779 98.2836 69.6378 98.0731 69.1357 97.7816C69.1357 97.7168 69.1357 97.652 69.1357 97.6034C69.1357 92.2107 65.8483 85.9596 61.7997 83.6276C57.7511 81.2956 54.4798 83.7734 54.496 89.1661C54.496 89.2147 54.496 89.2795 54.496 89.3281C54.0264 89.0528 53.5405 88.7775 53.0547 88.5022C53.0871 82.0406 57.0223 79.0608 61.8968 81.8786H61.913Z" fill="#878787"/>
<path d="M30.8681 23.0453C30.8681 23.0453 26.2851 19.9522 20.9733 21.1668C15.6615 22.3814 9.73438 26.6081 9.73438 26.6081L18.9814 30.3328L30.8519 23.0453H30.8681Z" fill="#EFEFEF"/>
<path d="M10.8193 52.3891C15.6938 55.207 19.6614 62.7374 19.6938 69.2475C19.4671 69.118 19.2404 68.9884 19.0137 68.8589C18.8841 68.7941 18.544 68.5836 18.042 68.2921C18.042 68.2273 18.042 68.1787 18.042 68.1139C18.042 62.7212 14.7545 56.4701 10.7059 54.1381C6.65732 51.8061 3.38605 54.2839 3.40224 59.6766C3.40224 59.7252 3.40224 59.79 3.40224 59.8386C2.9326 59.5633 2.44677 59.288 1.96094 59.0127C1.99333 52.5511 5.92857 49.5713 10.8031 52.3891H10.8193Z" fill="#878787"/>
<path d="M92.9078 54.0415C92.9078 54.0415 98.9645 58.3168 107.369 63.9524C111.515 66.7217 112.973 74.5598 103.224 80.9242C91.839 88.3736 83.1911 87.5639 75.9684 83.3534C68.1951 78.8189 59.3691 73.7987 59.3691 73.7987C59.3691 73.7987 65.3449 73.7663 77.2802 66.6893C87.0292 60.9079 92.8916 54.0253 92.8916 54.0253L92.9078 54.0415Z" fill="#DBDBDB"/>
<path d="M87.8572 84.3576L66.6426 72.2927L63.9219 73.3939C63.9219 73.3939 81.7681 84.6653 87.8734 84.3576H87.8572Z" fill="#EFEFEF"/>
<path d="M91.9366 55.7905C91.9366 55.7905 102.01 62.2359 105.896 65.4586C109.783 68.6813 107.84 73.3453 107.84 73.3453L85.6855 60.2764L91.9366 55.7905V55.7905Z" fill="#EFEFEF"/>
<path d="M54.0592 72.9238C54.9984 73.4582 56.0835 72.5027 55.6624 71.4986C53.6543 66.7861 49.8486 58.2516 48.2292 57.199C46.1077 55.8224 38.7231 51.4176 29.719 46.0734C23.0631 42.122 17.1521 38.6887 14.3667 39.4661C13.2816 39.7738 10.3342 41.7819 8.16419 43.3203C6.99819 44.1463 7.09536 45.9115 8.32613 46.624L54.0592 72.9076V72.9238Z" fill="#3D333B"/>
<path d="M41.4431 18.446C41.4431 18.446 32.4066 23.3853 28.3418 26.0736C22.2851 30.0574 14.1717 34.4947 14.1717 34.4947L4.95703 36.8753C7.46717 35.353 4.95704 36.8753 9.79917 34.1546C16.7142 30.268 24.2608 25.4744 25.4754 24.7133C27.1596 23.6768 30.4309 21.9602 32.1799 21.0695C35.7426 19.2396 40.3419 18.3165 41.4431 18.4622V18.446Z" fill="#779CC9"/>
<path d="M91.7097 92.1789C90.738 90.3327 89.0376 88.9562 86.9647 89.1829C85.3938 89.361 85.1833 89.1181 82.6408 88.859C79.823 88.5837 77.2157 87.3691 75.8229 86.5432C74.0254 85.4744 73.8634 87.3043 74.0578 88.0007C74.7865 90.5756 76.8432 92.519 79.4667 93.3773C85.7015 95.4016 91.6935 92.1789 91.6935 92.1789H91.7097Z" fill="white"/>
<path d="M94.497 85.8958C92.8128 86.2521 91.08 86.6569 89.9302 86.916L89.6387 86.576C89.6387 86.576 97.6711 84.7784 103.242 80.9241C106.886 78.414 108.586 75.58 108.586 75.58L108.78 76.2925C108.392 76.9889 107.76 77.9929 106.74 79.2885C104.489 82.1225 97.2824 85.2966 94.497 85.8796V85.8958Z" fill="#3D333B"/>
<path d="M95.0147 87.3855C93.6705 87.677 92.2292 88.0009 91.1118 88.26L90.4316 87.4826C91.6786 87.2235 93.3628 86.851 94.9661 86.43C98.043 85.6203 102.48 83.2721 105.379 81.3126C107.258 80.0332 108.407 78.187 108.974 77.0372L109.282 78.1546C108.845 78.8348 108.213 79.7255 107.258 80.7943C104.828 83.4826 97.8001 86.8025 95.0147 87.4017V87.3855Z" fill="#3D333B"/>
<path d="M106.514 84.5192C108.149 83.4179 109.218 81.8795 109.85 80.7458C109.85 81.8471 109.413 82.9159 108.571 83.6609C107.421 84.6811 105.785 85.9767 103.874 87.0131C100.182 88.9888 97.6717 90.09 96.0847 90.6892C95.0806 91.0779 93.9956 90.9321 93.1211 90.3653C94.0604 90.1548 95.0806 89.9119 96.0847 89.6528C99.1616 88.8431 103.599 86.4949 106.498 84.5354L106.514 84.5192Z" fill="#3D333B"/>
<path d="M105.897 82.7863C107.533 81.6851 108.748 80.098 109.492 78.932L109.719 79.7417C109.719 79.7417 109.719 79.8227 109.735 79.8551C109.314 80.5514 108.715 81.4421 107.873 82.511C105.622 85.345 98.4155 88.5191 95.6301 89.1183C94.5774 89.345 93.46 89.5879 92.4721 89.8147C92.4721 89.8147 92.4398 89.7823 92.4236 89.7661L91.5977 88.8268C92.7475 88.5839 94.124 88.26 95.4681 87.9199C98.5451 87.1102 102.982 84.762 105.881 82.8025L105.897 82.7863Z" fill="#3D333B"/>
<path d="M107.873 82.5112C108.715 81.4424 109.314 80.5517 109.735 79.8553C109.8 80.1468 109.849 80.4545 109.849 80.746C109.217 81.8796 108.132 83.4181 106.513 84.5193C103.614 86.4789 99.1766 88.8271 96.0996 89.6368C95.0956 89.8959 94.0753 90.1388 93.136 90.3493C92.8931 90.2036 92.6826 90.0092 92.4883 89.7987C93.4761 89.572 94.5936 89.3291 95.6462 89.1024C98.4154 88.5194 105.638 85.3453 107.889 82.495L107.873 82.5112Z" fill="#7C6B7C"/>
<path d="M95.0142 87.3857C97.7834 86.8027 104.828 83.4828 107.257 80.7784C108.213 79.7095 108.86 78.835 109.281 78.1387L109.492 78.916C108.747 80.082 107.532 81.669 105.897 82.7703C102.998 84.7298 98.5608 87.078 95.4838 87.8877C94.1559 88.244 92.7632 88.5517 91.6134 88.7946L91.1113 88.2278C92.2287 87.9687 93.6701 87.6448 95.0142 87.3533V87.3857Z" fill="#7C6B7C"/>
<path d="M105.381 81.2967C102.482 83.2562 98.0445 85.6044 94.9675 86.4141C93.3643 86.8352 91.6801 87.2076 90.4331 87.4668L89.9473 86.9C91.0971 86.6408 92.8137 86.236 94.5141 85.8797C97.2833 85.2967 104.506 82.1226 106.757 79.2886C107.777 77.993 108.425 76.989 108.798 76.2926L108.992 77.0214C108.425 78.1712 107.275 80.0173 105.397 81.2967H105.381Z" fill="#7C6B7C"/>
<path d="M111.062 68.5029C111.062 68.5029 111.257 71.0293 111.273 73.7661C111.273 75.8066 112.148 78.5921 112.148 78.5921C112.148 78.5921 113.168 74.7216 113.022 73.3289C112.747 70.5272 111.062 68.5029 111.062 68.5029V68.5029Z" fill="white"/>
<path d="M111.079 88.6325C111.079 88.6325 111.079 83.596 107.921 85.7822C104.99 87.8227 102.545 89.3126 100.537 90.2519C98.2047 91.3531 96.5205 92.1467 95.8565 93.3774C95.1925 94.6082 95.1602 97.8633 95.1602 97.8633C95.1602 97.8633 97.3788 97.7499 104.909 93.4908C110.561 90.3005 111.079 88.6487 111.079 88.6487V88.6325Z" fill="#3D333B"/>
<path d="M108.731 86.5438V89.556C108.731 89.556 106.416 91.1916 104.553 92.4062C103.339 93.1997 98.707 95.3212 98.707 95.3212V92.4224C98.707 92.4224 101.994 90.9325 104.553 89.4588C106.982 88.0661 108.731 86.5438 108.731 86.5438Z" fill="white"/>
<path d="M114.787 81.9282C114.787 81.9282 115.225 86.2845 113.055 89.4424C110.885 92.6003 105.395 98.236 95.6456 101.038C84.7306 104.163 77.767 103.175 73.7346 101.362C69.7021 99.5478 69.2325 99.6773 69.1191 97.7826C69.022 95.8878 70.771 97.1834 70.771 97.1834C70.771 97.1834 72.5524 100.179 81.022 100.681C85.5079 100.957 91.2893 100.131 96.099 98.7056C100.374 97.4263 104.585 94.819 108.714 91.8068C114.544 87.5639 114.771 81.9282 114.771 81.9282H114.787Z" fill="#878787"/>
<path d="M89.0375 96.3088C89.5072 96.3088 89.7825 96.8108 89.5557 97.2319C89.2966 97.7177 88.9242 98.2845 88.4707 98.7056C87.078 100.001 80.6974 100.082 79.9849 99.4182C79.2723 98.7542 79.7419 96.6813 81.4423 96.7299C83.7905 96.8109 87.0132 96.2602 89.0375 96.2926V96.3088Z" fill="#3D333B"/>
<path d="M114.383 77.7339C114.383 77.7339 113.914 79.9201 113.59 80.7622C113.266 81.6043 114.804 81.9282 114.804 81.9282C114.804 81.9282 114.804 79.3533 114.399 77.7339H114.383Z" fill="#3D333B"/>
<path d="M100.763 85.3129C100.958 85.9121 102.059 85.9445 103.225 85.4101C104.391 84.8757 105.2 83.9526 105.006 83.3696C104.812 82.7704 103.711 82.738 102.545 83.2724C101.379 83.8069 100.569 84.7299 100.763 85.3129Z" fill="white"/>
<path d="M94.1555 54.9158C94.1555 54.9158 93.3943 56.6648 89.1676 59.9846C85.0866 63.1749 76.212 69.4422 70.3982 71.7903C64.5844 74.1223 60.8435 75.5798 59.3698 73.8308C57.8961 72.0656 50.4629 57.0048 50.4629 57.0048L51.305 56.6486C51.305 56.6486 59.2241 72.0657 60.1958 72.9078C61.1674 73.7499 68.5359 70.9644 81.6371 62.43C86.6088 59.1911 92.8923 54.0413 92.8923 54.0413L94.1392 54.9158H94.1555Z" fill="#3D333B"/>
<path d="M80.5515 39.4176L81.1345 40.114C81.1345 40.114 76.5191 44.4865 70.7215 47.9683C64.9077 51.4501 51.0291 57.7659 51.0291 57.7659L50.4785 56.9885C50.4785 56.9885 63.3855 51.531 70.3329 46.9156C77.2803 42.3002 80.5515 39.4176 80.5515 39.4176Z" fill="#3D333B"/>
<path d="M18.5935 66.6404L53.7192 86.8834V88.8591L53.201 88.5514L18.1562 68.357L18.5935 66.6404Z" fill="#878787"/>
<path d="M34.998 50.3815V60.5678L49.9941 69.2318C49.9941 69.2318 50.0265 65.3613 49.9941 63.7904C49.9779 62.8674 49.6864 61.5718 49.0548 60.2763C48.569 59.256 47.3868 57.8633 45.9293 56.9726C41.9131 54.511 34.998 50.4139 34.998 50.4139V50.3815Z" fill="#45649B"/>
<path d="M33.039 49.4746V59.6932L17.2171 50.3976C17.2171 50.3976 17.2009 46.511 17.4114 45.345C17.5896 44.3247 18.1402 41.2478 18.1402 41.2478L33.039 49.4746V49.4746Z" fill="#45649B"/>
<path d="M16.6826 40.827C16.6826 40.827 16.0996 43.7096 15.9377 44.7461C15.7757 45.7663 15.6947 49.6044 15.6947 49.6044C15.6947 49.6044 12.0996 47.4343 11.2736 47.0133C10.4477 46.5922 9.78376 45.3777 11.9538 43.742C13.5733 42.5274 16.6826 40.827 16.6826 40.827V40.827Z" fill="#45649B"/>
<path d="M3.98566 51.6607C3.98566 51.6607 -2.68643 48.6486 -7.36662 45.2315C-8.12776 44.6809 -9.30996 43.3368 -9.30996 43.3368C-9.30996 43.3368 -9.89296 44.2113 -7.80388 47.0777C-7.09132 48.0494 0.260948 53.3611 2.51197 54.1223C3.54842 51.6769 3.98566 51.6607 3.98566 51.6607Z" fill="#EFEFEF"/>
<path d="M50.3009 77.4745L54.4791 75.0615C55.0297 74.7376 55.4832 73.8793 55.4832 73.1505V71.0939C55.4832 70.3651 55.0297 70.025 54.4791 70.3327L50.3009 72.7457C49.7503 73.0696 49.2969 73.9279 49.2969 74.6566V76.7133C49.2969 77.4421 49.7503 77.7821 50.3009 77.4745Z" fill="#DBDBDB"/>
<path d="M55.8231 70.6723C55.8231 70.6723 55.2563 70.2026 54.981 70.235C54.7057 70.2674 55.3211 71.1257 55.3211 71.1257L55.8231 70.6884V70.6723Z" fill="#DBDBDB"/>
<path d="M50.4956 77.9114C50.4956 77.9114 49.7506 77.798 49.5563 77.4417C49.362 77.0855 49.4915 76.6968 49.4915 76.6968C49.4915 76.6968 50.5118 77.1664 50.4794 77.8952L50.4956 77.9114Z" fill="#DBDBDB"/>
<path d="M50.9318 77.7978L55.11 75.3849C55.6606 75.061 56.114 74.2027 56.114 73.4739V71.4172C56.114 70.6885 55.6606 70.3484 55.11 70.6561L50.9318 73.069C50.3812 73.3929 49.9277 74.2512 49.9277 74.98V77.0367C49.9277 77.7654 50.3812 78.1055 50.9318 77.7978Z" fill="#DEEFFF"/>
</g>
</svg>
