<svg width="100" height="100" viewBox="0 0 100 100" fill="none" xmlns="http://www.w3.org/2000/svg">
<g style="mix-blend-mode:luminosity" opacity="0.4">
<mask id="mask0_501_273" style="mask-type:alpha" maskUnits="userSpaceOnUse" x="0" y="0" width="100" height="100">
<circle cx="50" cy="50" r="50" fill="#D9D9D9"/>
</mask>
<g mask="url(#mask0_501_273)">
<circle cx="50" cy="50" r="50" fill="#F59E0B"/>
<path d="M68.8651 42.5052L72.0791 40.649C72.5027 40.3999 72.8514 39.7397 72.8514 39.1791V37.597C72.8514 37.0364 72.5027 36.7748 72.0791 37.0115L68.8651 38.8676C68.4416 39.1168 68.0928 39.777 68.0928 40.3376V41.9197C68.0928 42.4803 68.4416 42.7418 68.8651 42.5052Z" fill="#DBDBDB"/>
<path d="M73.1124 37.2602C73.1124 37.2602 72.6765 36.8989 72.4647 36.9238C72.2529 36.9488 72.7263 37.609 72.7263 37.609L73.1124 37.2726V37.2602Z" fill="#DBDBDB"/>
<path d="M69.0022 42.8408C69.0022 42.8408 68.4291 42.7536 68.2796 42.4795C68.1302 42.2055 68.2298 41.9065 68.2298 41.9065C68.2298 41.9065 69.0146 42.2678 68.9897 42.8283L69.0022 42.8408Z" fill="#DBDBDB"/>
<path d="M69.3505 42.7535L72.5645 40.8973C72.988 40.6482 73.3368 39.9879 73.3368 39.4274V37.8453C73.3368 37.2847 72.988 37.0231 72.5645 37.2598L69.3505 39.1159C68.9269 39.3651 68.5781 40.0253 68.5781 40.5859V42.168C68.5781 42.7285 68.9269 42.9901 69.3505 42.7535Z" fill="#DEEFFF"/>
<path d="M41.9192 68.7143L51.3743 63.1708C51.3743 63.1708 49.7175 59.9444 45.6689 61.0655C41.6203 62.1867 39.3281 63.5943 39.3281 63.5943L41.9192 68.7018V68.7143Z" fill="#7C6B7C"/>
<path d="M45.7071 67.257C45.7071 71.0315 48.0117 75.4165 50.8395 77.0484C53.6673 78.6803 55.9719 76.9487 55.9594 73.1617C55.9594 69.3872 53.6548 65.0022 50.827 63.3703C47.9992 61.7384 45.6946 63.47 45.7071 67.257Z" fill="#282027"/>
<path d="M54.0528 77.3972L50.7267 79.3156L44.498 64.8652L47.9487 62.897L54.0528 77.3972Z" fill="#282027"/>
<path d="M42.3809 69.1876C42.3809 72.9622 44.6855 77.3471 47.5133 78.979C50.3411 80.6109 52.6457 78.8794 52.6332 75.0924C52.6332 71.3178 50.3286 66.9329 47.5008 65.301C44.673 63.6691 42.3685 65.4006 42.3809 69.1876Z" fill="#3D333B"/>
<path d="M43.8262 70.0098C43.8262 72.7255 45.483 75.8771 47.5135 77.0481C49.5565 78.2191 51.2009 76.9734 51.2009 74.2577C51.2009 71.542 49.5441 68.3903 47.5135 67.2194C45.4705 66.0484 43.8262 67.2941 43.8262 70.0098Z" fill="white"/>
<path d="M45.4453 71.0564C45.4453 72.4392 46.2924 74.0586 47.3263 74.6566C48.3728 75.2545 49.2074 74.6192 49.2074 73.2364C49.2074 71.8537 48.3603 70.2342 47.3263 69.6363C46.2799 69.0383 45.4453 69.6737 45.4453 71.0564Z" fill="#3D333B"/>
<path d="M45.7559 71.2306C45.7559 72.3891 46.4659 73.722 47.3255 74.2203C48.1975 74.7186 48.8951 74.1829 48.8951 73.0369C48.8951 71.8783 48.185 70.5454 47.3255 70.0471C46.4535 69.5488 45.7559 70.0845 45.7559 71.2306Z" fill="#7C6B7C"/>
<path d="M2.61747 46.0426L12.0725 40.4992C12.0725 40.4992 10.4157 37.2727 6.3671 38.3939C2.3185 39.515 0.0263672 40.9227 0.0263672 40.9227L2.61747 46.0302V46.0426Z" fill="#7C6B7C"/>
<path d="M-5.23106 26.223C-5.23106 26.223 6.11749 17.0545 15.1116 15.0364C18.8488 14.1893 22.8849 16.0454 25.9993 16.3195L29.3503 19.5833L5.19565 34.4323L-4.6954 29.1629C-5.61723 28.6272 -6.16536 26.7711 -5.24352 26.223H-5.23106Z" fill="#DBDBDB"/>
<path d="M70.6331 43.8745C69.5742 45.1701 67.4191 47.1508 63.1837 50.1281C52.9438 57.3159 45.6688 56.7802 45.6688 56.7802L39.9883 46.7895C45.9179 44.0489 54.8498 40.1 58.6617 39.3775C62.4612 38.6549 67.4939 41.6322 70.6331 43.8745Z" fill="#9FBEEC"/>
<path d="M61.9634 30.321L71.4683 41.5699C71.4683 41.5699 72.141 42.0433 70.6336 43.8745C67.5069 41.6447 62.4741 38.6549 58.6622 39.3775C54.8628 40.1 45.9309 44.0489 39.9888 46.7895L38.4316 44.0614L61.9509 30.321H61.9634Z" fill="#4D74B9"/>
<path d="M61.963 30.3214C61.963 30.3214 60.9291 31.8411 54.7253 36.1514C48.9452 40.175 38.4562 44.0617 38.4562 44.0617C38.4562 44.0617 30.9569 38.3812 25.0024 35.08C19.0602 31.7789 8.6709 27.4437 8.6709 27.4437L25.9989 16.3319C25.9989 16.3319 30.5707 11.8348 38.4188 15.9208C41.3712 17.453 46.6904 20.7293 54.1648 25.2762C56.9552 26.9704 59.7456 28.814 61.963 30.3338V30.3214Z" fill="#EFEFEF"/>
<path d="M61.229 31.5921C61.229 31.5921 56.0219 28.4155 48.6098 24.205C41.1978 19.982 31.5434 14.4136 31.5434 14.4136L30.6465 14.7001C30.6465 14.7001 34.6577 17.1043 38.4198 19.1847C41.4718 20.8664 60.8802 32.2274 60.8802 32.2274L61.229 31.6046V31.5921Z" fill="#CECECE"/>
<path d="M42.8286 42.3177C42.8286 42.3177 37.6215 39.1411 30.2095 34.9306C22.7974 30.7075 13.143 25.1392 13.143 25.1392L12.2461 25.4257C12.2461 25.4257 16.2573 27.8299 20.0194 29.9103C23.0714 31.592 42.4798 42.953 42.4798 42.953L42.8286 42.3302V42.3177Z" fill="#CECECE"/>
<path d="M11.0752 26.2102L6.06741 27.0822L1.00977 29.8602C1.00977 29.8602 10.8759 28.5771 11.8725 28.1535C12.8691 27.73 11.0752 26.2102 11.0752 26.2102Z" fill="#EFEFEF"/>
<path d="M6.40435 44.5846C6.40435 48.3592 8.70894 52.7441 11.5367 54.376C14.3645 56.0079 16.6691 54.2763 16.6567 50.4893C16.6567 46.7148 14.3521 42.3298 11.5243 40.698C8.69649 39.0661 6.39189 40.7976 6.40435 44.5846Z" fill="#282027"/>
<path d="M14.7385 54.7246L11.4249 56.643L5.19629 42.1926L8.64695 40.2244L14.7385 54.7246Z" fill="#282027"/>
<path d="M3.07818 46.5031C3.07818 50.2776 5.38277 54.6626 8.21056 56.2945C11.0384 57.9264 13.3429 56.1948 13.3305 52.4078C13.3305 48.6333 11.0259 44.2483 8.1981 42.6164C5.37031 40.9845 3.06572 42.7161 3.07818 46.5031Z" fill="#3D333B"/>
<path d="M4.52344 47.3374C4.52344 50.0531 6.18026 53.2048 8.21079 54.3758C10.2538 55.5467 11.8981 54.301 11.8981 51.5853C11.8981 48.8697 10.2413 45.718 8.21079 44.547C6.1678 43.376 4.52344 44.6217 4.52344 47.3374Z" fill="white"/>
<path d="M6.14258 48.3716C6.14258 49.7544 6.98967 51.3738 8.02363 51.9717C9.07003 52.5697 9.90467 51.9344 9.90467 50.5516C9.90467 49.1689 9.05758 47.5494 8.02363 46.9515C6.97722 46.3535 6.14258 46.9888 6.14258 48.3716Z" fill="#3D333B"/>
<path d="M6.4541 48.5587C6.4541 49.7172 7.16417 51.0501 8.02372 51.5484C8.89572 52.0467 9.59333 51.511 9.59333 50.365C9.59333 49.2065 8.88327 47.8735 8.02372 47.3752C7.15171 46.8769 6.4541 47.4126 6.4541 48.5587Z" fill="#7C6B7C"/>
<path d="M-5.23132 26.2227C-2.98901 26.6337 -0.970943 29.8976 3.0652 29.1501C4.18636 28.9383 7.63701 27.6303 10.4773 27.8296C13.4919 28.0414 15.1612 29.1626 17.8769 30.7696C20.032 32.0402 27.6932 36.3753 33.5481 40.1374C36.8243 42.2427 39.104 43.5009 39.9511 44.921C40.549 45.9051 42.6294 50.7759 44.6724 54.5878C45.0835 55.3602 45.5942 56.0578 46.1797 56.6806L83.3521 49.8042C83.3521 49.8042 85.445 51.9718 86.7903 55.8958C87.3011 57.3782 88.8582 61.1029 88.1233 64.4789C87.463 67.5433 85.2955 70.7449 81.359 73.0245C67.7806 80.8975 60.1069 79.0912 54.4513 75.9395C54.4264 70.9317 51.3869 65.1391 47.6248 62.9715C43.8751 60.8164 40.8356 63.0961 40.8231 68.0666C32.838 63.4574 22.648 57.5776 14.4511 52.8438C14.2892 51.5233 13.5791 47.2629 12.8441 46.0172C11.3867 43.5133 7.68684 40.0502 6.05494 40.2121C0.822902 40.7354 2.99046 46.229 2.08108 45.7058C0.797985 44.9708 0.0754638 44.5473 0.0754638 44.5473C-4.03543 42.1804 -6.12824 37.484 -6.80093 34.5192C-7.17465 32.8748 -7.05008 27.4186 -5.24378 26.2102L-5.23132 26.2227Z" fill="#DBDBDB"/>
<path d="M1.4707 44.4973C1.49562 38.9538 4.87154 36.4001 9.05717 38.8168C10.8884 39.8757 12.5701 41.7069 13.8906 43.9118C14.5882 44.3478 15.3232 44.8088 16.083 45.2946C20.0444 47.8359 37.1109 57.5774 43.4018 61.1651C44.7223 60.4301 46.4289 60.5173 48.2975 61.5887C52.4831 64.0054 55.8839 70.4707 55.9089 76.0515C55.7095 75.9394 55.5227 75.8273 55.3234 75.7152C55.2237 75.6529 54.9247 75.4785 54.4887 75.2294C54.4887 75.1795 53.6416 74.8556 53.6416 74.8058C53.6416 70.1842 51.0879 65.1265 47.6248 63.1209C46.8774 62.6974 46.1922 62.4607 45.5818 62.3984C45.6815 62.4607 45.7562 62.498 45.7562 62.498L43.5513 62.959C42.5298 63.7936 41.9567 65.4878 41.9567 67.8422C41.9567 67.892 41.9567 67.9419 41.9567 67.9917C41.5581 67.755 41.1346 67.5183 40.7235 67.2816C40.7235 65.2885 41.1844 63.6815 41.9443 62.5603C41.9443 62.5603 29.2504 55.4722 25.0274 53.1053C22.7103 51.8097 15.9834 48.7203 15.9834 48.7203C16.3571 49.5799 16.5689 51.0997 16.681 53.2921C16.4817 53.18 16.2948 53.0679 16.0955 52.9558C15.9959 52.8935 15.6969 52.7316 15.2609 52.47C15.2609 52.4201 14.4138 52.0962 14.4138 52.0464C14.4138 50.2152 14.0027 48.3092 13.3051 46.5528L13.031 46.4033L10.9008 43.3014L8.02322 40.5733C7.5623 40.2743 8.44676 40.7228 10.0911 41.6695C9.55545 41.1588 8.99488 40.7228 8.39693 40.374C4.93381 38.3808 2.35517 40.4113 2.36763 45.033C2.36763 45.0828 2.72889 45.1949 2.72889 45.2448C2.33026 45.0081 1.90671 44.7714 1.49562 44.5347L1.4707 44.4973Z" fill="#EFEFEF"/>
<path d="M47.6247 62.9838C51.3743 65.1513 54.4263 70.944 54.4512 75.9518C54.2768 75.8521 54.1024 75.7525 53.928 75.6528C53.8284 75.603 53.5668 75.441 53.1806 75.2168C53.1806 75.167 53.1806 75.1171 53.1806 75.0798C53.1806 70.9315 50.6518 66.123 47.5375 64.3292C44.4231 62.5353 41.9068 64.4413 41.9192 68.5895C41.9192 68.6269 41.9192 68.6767 41.9192 68.7141C41.558 68.5023 41.1843 68.2906 40.8105 68.0788C40.8355 63.1083 43.8626 60.8162 47.6122 62.9838H47.6247Z" fill="#878787"/>
<path d="M23.744 17.7272C23.744 17.7272 20.2186 15.3478 16.1326 16.2821C12.0467 17.2164 7.4873 20.4677 7.4873 20.4677L14.6004 23.3329L23.7315 17.7272H23.744Z" fill="#EFEFEF"/>
<path d="M8.32193 40.2992C12.0716 42.4668 15.1236 48.2594 15.1485 53.2672C14.9741 53.1675 14.7997 53.0679 14.6253 52.9682C14.5256 52.9184 14.264 52.7565 13.8779 52.5322C13.8779 52.4824 13.8779 52.445 13.8779 52.3952C13.8779 48.2469 11.349 43.4384 8.23473 41.6446C5.12042 39.8507 2.60405 41.7567 2.61651 45.905C2.61651 45.9423 2.61651 45.9922 2.61651 46.0295C2.25525 45.8178 1.88153 45.606 1.50781 45.3942C1.53273 40.4238 4.55984 38.1316 8.30947 40.2992H8.32193Z" fill="#878787"/>
<path d="M71.4679 41.5703C71.4679 41.5703 76.1269 44.859 82.5922 49.1942C85.7813 51.3243 86.9024 57.3536 79.4032 62.2493C70.6457 67.9797 63.9936 67.3568 58.4376 64.1179C52.4581 60.6299 45.6689 56.7682 45.6689 56.7682C45.6689 56.7682 50.2657 56.7432 59.4467 51.2994C66.9459 46.8522 71.4555 41.5579 71.4555 41.5579L71.4679 41.5703Z" fill="#DBDBDB"/>
<path d="M67.5817 64.8905L51.2627 55.6099L49.1699 56.457C49.1699 56.457 62.8978 65.1272 67.5942 64.8905H67.5817Z" fill="#EFEFEF"/>
<path d="M70.7206 42.9155C70.7206 42.9155 78.469 47.8735 81.4588 50.3525C84.4485 52.8315 82.9536 56.4192 82.9536 56.4192L65.9121 46.3662L70.7206 42.9155Z" fill="#EFEFEF"/>
<path d="M41.5834 56.095C42.3059 56.5061 43.1405 55.7711 42.8166 54.9988C41.2719 51.3737 38.3445 44.8088 37.0988 43.9991C35.4669 42.9402 29.7864 39.5518 22.8601 35.4409C17.7402 32.4014 13.1933 29.7604 11.0507 30.3584C10.216 30.5951 7.94882 32.1398 6.27955 33.3232C5.38263 33.9585 5.45737 35.3164 6.40412 35.8645L41.5834 56.0826V56.095Z" fill="#3D333B"/>
<path d="M31.8787 14.189C31.8787 14.189 24.9275 17.9884 21.8008 20.0563C17.1418 23.1208 10.9007 26.5341 10.9007 26.5341L3.8125 28.3653C5.74337 27.1943 3.81251 28.3653 7.53722 26.2725C12.8565 23.2828 18.6615 19.5954 19.5958 19.0099C20.8914 18.2127 23.4078 16.8922 24.7531 16.207C27.4937 14.7994 31.0316 14.0893 31.8787 14.2014V14.189Z" fill="#779CC9"/>
<path d="M70.5463 70.9066C69.7988 69.4865 68.4908 68.4276 66.8963 68.602C65.688 68.7391 65.526 68.5522 63.5702 68.3529C61.4027 68.1411 59.397 67.2068 58.3257 66.5715C56.943 65.7493 56.8184 67.157 56.9679 67.6927C57.5285 69.6734 59.1105 71.1682 61.1286 71.8285C65.9246 73.3856 70.5338 70.9066 70.5338 70.9066H70.5463Z" fill="white"/>
<path d="M72.6893 66.0737C71.3938 66.3477 70.0609 66.6592 69.1764 66.8585L68.9521 66.5969C68.9521 66.5969 75.131 65.2141 79.4162 62.2493C82.2191 60.3184 83.5271 58.1384 83.5271 58.1384L83.6766 58.6865C83.3776 59.2222 82.8918 59.9946 82.107 60.9911C80.3754 63.1712 74.832 65.6128 72.6893 66.0612V66.0737Z" fill="#3D333B"/>
<path d="M73.0879 67.2195C72.054 67.4437 70.9453 67.6928 70.0857 67.8921L69.5625 67.2942C70.5217 67.0949 71.8173 66.8084 73.0505 66.4845C75.4174 65.8616 78.8307 64.0553 81.0605 62.548C82.5056 61.5639 83.39 60.1437 83.826 59.2593L84.0627 60.1188C83.7264 60.642 83.2406 61.3272 82.5056 62.1494C80.637 64.2173 75.2305 66.771 73.0879 67.2319V67.2195Z" fill="#3D333B"/>
<path d="M81.932 65.0148C83.1902 64.1678 84.0124 62.9843 84.4982 62.1123C84.4982 62.9594 84.1619 63.7816 83.5141 64.3546C82.6296 65.1394 81.3714 66.136 79.9015 66.9333C77.0612 68.453 75.1304 69.3001 73.9095 69.7611C73.1372 70.06 72.3026 69.9479 71.6299 69.5119C72.3524 69.35 73.1372 69.1631 73.9095 68.9638C76.2764 68.3409 79.6897 66.5346 81.9196 65.0273L81.932 65.0148Z" fill="#3D333B"/>
<path d="M81.4587 63.6816C82.7169 62.8345 83.6512 61.6137 84.2242 60.7168L84.3986 61.3397C84.3986 61.3397 84.3986 61.4019 84.4111 61.4269C84.0872 61.9625 83.6263 62.6477 82.9785 63.4698C81.247 65.6499 75.7035 68.0915 73.5608 68.5524C72.7511 68.7268 71.8916 68.9137 71.1317 69.0881C71.1317 69.0881 71.1068 69.0632 71.0943 69.0507L70.459 68.3282C71.3434 68.1413 72.4023 67.8922 73.4363 67.6306C75.8031 67.0077 79.2164 65.2014 81.4463 63.6941L81.4587 63.6816Z" fill="#3D333B"/>
<path d="M82.9789 63.47C83.6267 62.6478 84.0876 61.9627 84.4115 61.427C84.4613 61.6512 84.4987 61.8879 84.4987 62.1121C84.0128 62.9842 83.1782 64.1676 81.9325 65.0147C79.7026 66.522 76.2894 68.3283 73.9225 68.9512C73.1501 69.1505 72.3653 69.3373 71.6428 69.4993C71.456 69.3872 71.294 69.2377 71.1445 69.0757C71.9044 68.9013 72.764 68.7145 73.5737 68.5401C75.7039 68.0916 81.2598 65.65 82.9914 63.4575L82.9789 63.47Z" fill="#7C6B7C"/>
<path d="M73.0881 67.2198C75.2183 66.7713 80.6372 64.2176 82.5058 62.1372C83.2408 61.315 83.7391 60.6424 84.063 60.1067L84.2249 60.7046C83.6519 61.6016 82.7176 62.8224 81.4594 63.6695C79.2296 65.1768 75.8163 66.9831 73.4494 67.6059C72.4279 67.88 71.3566 68.1167 70.4721 68.3036L70.0859 67.8675C70.9455 67.6682 72.0542 67.4191 73.0881 67.1949V67.2198Z" fill="#7C6B7C"/>
<path d="M81.0602 62.5358C78.8304 64.0431 75.4171 65.8494 73.0502 66.4723C71.817 66.7962 70.5214 67.0827 69.5622 67.282L69.1885 66.846C70.0729 66.6467 71.3934 66.3353 72.7014 66.0612C74.8316 65.6128 80.3875 63.1711 82.1191 60.9911C82.9039 59.9945 83.4022 59.2222 83.6887 58.6865L83.8382 59.2471C83.4022 60.1316 82.5177 61.5517 81.0727 62.5358H81.0602Z" fill="#7C6B7C"/>
<path d="M85.4326 52.6946C85.4326 52.6946 85.5821 54.6379 85.5946 56.7432C85.5946 58.3128 86.2673 60.4554 86.2673 60.4554C86.2673 60.4554 87.0521 57.4782 86.94 56.4068C86.7282 54.2517 85.4326 52.6946 85.4326 52.6946Z" fill="white"/>
<path d="M85.4457 68.1788C85.4457 68.1788 85.4457 64.3046 83.0165 65.9864C80.7617 67.556 78.8807 68.702 77.336 69.4246C75.5421 70.2717 74.2466 70.8821 73.7358 71.8288C73.2251 72.7756 73.2002 75.2795 73.2002 75.2795C73.2002 75.2795 74.9068 75.1923 80.6995 71.916C85.047 69.4619 85.4457 68.1913 85.4457 68.1913V68.1788Z" fill="#3D333B"/>
<path d="M83.6388 66.572V68.8891C83.6388 68.8891 81.8574 70.1473 80.4248 71.0815C79.4905 71.692 75.9277 73.3238 75.9277 73.3238V71.094C75.9277 71.094 78.4566 69.9479 80.4248 68.8143C82.2934 67.743 83.6388 66.572 83.6388 66.572Z" fill="white"/>
<path d="M88.2975 63.0217C88.2975 63.0217 88.6338 66.3727 86.9646 68.8019C85.2953 71.2311 81.0723 75.5662 73.573 77.7213C65.1768 80.1255 59.8202 79.3656 56.7184 77.9704C53.6165 76.5752 53.2552 76.6749 53.168 75.2174C53.0933 73.7599 54.4387 74.7565 54.4387 74.7565C54.4387 74.7565 55.809 77.061 62.3241 77.4472C65.7748 77.659 70.222 77.0237 73.9218 75.9274C77.2105 74.9433 80.4494 72.9377 83.626 70.6206C88.1106 67.3568 88.285 63.0217 88.285 63.0217H88.2975Z" fill="#878787"/>
<path d="M68.4906 74.0838C68.8519 74.0838 69.0637 74.47 68.8893 74.7939C68.6899 75.1676 68.4034 75.6036 68.0546 75.9275C66.9833 76.9241 62.0752 76.9864 61.527 76.4756C60.9789 75.9649 61.3402 74.3703 62.6482 74.4077C64.4545 74.47 66.9335 74.0465 68.4906 74.0714V74.0838Z" fill="#3D333B"/>
<path d="M87.9867 59.7954C87.9867 59.7954 87.6254 61.4771 87.3763 62.1249C87.1271 62.7727 88.3106 63.0218 88.3106 63.0218C88.3106 63.0218 88.3106 61.0411 87.9991 59.7954H87.9867Z" fill="#3D333B"/>
<path d="M77.5095 65.6255C77.659 66.0864 78.5061 66.1113 79.403 65.7002C80.2999 65.2891 80.9228 64.579 80.7733 64.1306C80.6238 63.6697 79.7767 63.6447 78.8798 64.0558C77.9829 64.4669 77.36 65.177 77.5095 65.6255Z" fill="white"/>
<path d="M72.427 42.243C72.427 42.243 71.8416 43.5884 68.5902 46.1421C65.451 48.5962 58.6244 53.4172 54.1523 55.2235C49.6801 57.0173 46.8025 58.1385 45.6689 56.7931C44.5353 55.4352 38.8174 43.85 38.8174 43.85L39.4652 43.5759C39.4652 43.5759 45.5568 55.4352 46.3042 56.083C47.0516 56.7308 52.7197 54.5881 62.7976 48.0232C66.622 45.5317 71.4554 41.5703 71.4554 41.5703L72.4146 42.243H72.427Z" fill="#3D333B"/>
<path d="M61.9632 30.321L62.4116 30.8567C62.4116 30.8567 58.8613 34.2202 54.4016 36.8985C49.9295 39.5768 39.2536 44.4351 39.2536 44.4351L38.8301 43.8372C38.8301 43.8372 48.7585 39.6391 54.1027 36.0888C59.4468 32.5384 61.9632 30.321 61.9632 30.321Z" fill="#3D333B"/>
<path d="M14.3022 51.2617L41.3219 66.8333V68.3531L40.9233 68.1164L13.9658 52.5822L14.3022 51.2617Z" fill="#878787"/>
<path d="M26.9209 38.7549V46.5905L38.4563 53.2551C38.4563 53.2551 38.4812 50.2778 38.4563 49.0695C38.4438 48.3594 38.2196 47.3628 37.7338 46.3663C37.3601 45.5815 36.4507 44.5101 35.3295 43.825C32.2401 41.9315 26.9209 38.7798 26.9209 38.7798V38.7549Z" fill="#45649B"/>
<path d="M25.4141 38.0573V45.9178L13.2434 38.7673C13.2434 38.7673 13.2309 35.7776 13.3929 34.8807C13.5299 34.0959 13.9535 31.729 13.9535 31.729L25.4141 38.0573Z" fill="#45649B"/>
<path d="M12.8317 31.4053C12.8317 31.4053 12.3833 33.6227 12.2587 34.4199C12.1341 35.2047 12.0718 38.1571 12.0718 38.1571C12.0718 38.1571 9.30631 36.4878 8.67099 36.1639C8.03567 35.8401 7.52492 34.9058 9.19419 33.6476C10.4399 32.7133 12.8317 31.4053 12.8317 31.4053Z" fill="#45649B"/>
<path d="M3.06522 39.739C3.06522 39.739 -2.06716 37.4219 -5.66731 34.7934C-6.2528 34.3699 -7.16218 33.3359 -7.16218 33.3359C-7.16218 33.3359 -7.61064 34.0086 -6.00366 36.2136C-5.45554 36.961 0.200053 41.047 1.93161 41.6325C2.72887 39.7514 3.06522 39.739 3.06522 39.739Z" fill="#EFEFEF"/>
<path d="M38.6933 59.5957L41.9072 57.7396C42.3308 57.4905 42.6796 56.8302 42.6796 56.2697V54.6876C42.6796 54.127 42.3308 53.8654 41.9072 54.1021L38.6933 55.9582C38.2697 56.2074 37.9209 56.8676 37.9209 57.4282V59.0102C37.9209 59.5708 38.2697 59.8324 38.6933 59.5957Z" fill="#DBDBDB"/>
<path d="M42.9416 54.363C42.9416 54.363 42.5056 54.0017 42.2938 54.0266C42.082 54.0515 42.5554 54.7118 42.5554 54.7118L42.9416 54.3754V54.363Z" fill="#DBDBDB"/>
<path d="M38.843 59.9316C38.843 59.9316 38.2699 59.8444 38.1205 59.5704C37.971 59.2963 38.0706 58.9973 38.0706 58.9973C38.0706 58.9973 38.8554 59.3586 38.8305 59.9192L38.843 59.9316Z" fill="#DBDBDB"/>
<path d="M39.1786 59.8443L42.3926 57.9881C42.8161 57.739 43.1649 57.0788 43.1649 56.5182V54.9361C43.1649 54.3755 42.8161 54.1139 42.3926 54.3506L39.1786 56.2068C38.7551 56.4559 38.4062 57.1161 38.4062 57.6767V59.2588C38.4062 59.8194 38.7551 60.081 39.1786 59.8443Z" fill="#DEEFFF"/>
</g>
</g>
</svg>
