<svg width="130" height="130" viewBox="0 0 130 130" fill="none" xmlns="http://www.w3.org/2000/svg">
<mask id="mask0_501_1217" style="mask-type:alpha" maskUnits="userSpaceOnUse" x="0" y="0" width="130" height="130">
<circle cx="65" cy="65" r="65" fill="#D9D9D9"/>
</mask>
<g mask="url(#mask0_501_1217)">
<circle cx="65" cy="65" r="65" fill="#F59E0B"/>
<path d="M-9.13803 41.7952L1.33997 35.6592C1.33997 35.6592 -0.493015 32.0972 -4.97802 33.3322C-9.46302 34.5802 -11.998 36.1402 -11.998 36.1402L-9.13803 41.7952Z" fill="#9E973E"/>
<path d="M-5.38086 40.3519C-5.38086 44.0179 -3.14486 48.2819 -0.388864 49.8679C2.36714 51.4539 4.59012 49.7639 4.59012 46.0979C4.59012 42.4319 2.35412 38.1679 -0.401877 36.5819C-3.15788 34.9959 -5.38086 36.6859 -5.38086 40.3519Z" fill="#282027"/>
<path d="M2.71823 50.193L-0.505749 52.065L-6.55078 38.025L-3.19676 36.114L2.71823 50.193Z" fill="#282027"/>
<path d="M-8.60547 42.2108C-8.60547 45.8768 -6.36947 50.1408 -3.61347 51.7268C-0.857474 53.3128 1.36551 51.6228 1.36551 47.9568C1.36551 44.2908 -0.870487 40.0268 -3.62649 38.4408C-6.38249 36.8548 -8.60547 38.5448 -8.60547 42.2108Z" fill="#3D333B"/>
<path d="M12.8184 0V14.599L25.2333 21.71L26.5203 16.055L34.5283 19.045L38.0384 29.172L52.2863 37.427V22.828L12.8184 0Z" fill="#B5B055"/>
<path d="M12.8184 0L-22.0996 19.682L17.3684 42.51L47.4894 20.059L12.8184 0Z" fill="#E2DD71"/>
<path d="M43.9544 33.072L56.1354 26.234L13.0535 1.36499L-19.3945 19.643L-7.23956 26.663L13.0535 15.223L43.9544 33.072Z" fill="#9E973E"/>
<path d="M37.1418 29.0939L13.0528 15.2229L-7.24023 26.6629L16.7968 40.5079L37.1418 29.0939Z" fill="#CECB5F"/>
<path d="M13.0527 15.223V1.36499L49.5047 22.412L40.5347 31.096L13.0527 15.223Z" fill="#B5B055"/>
<path d="M75.0884 46.8651C75.0884 46.8651 75.1924 46.8651 75.2314 46.8261C75.4264 46.7221 80.1324 44.3561 82.1084 42.9001C83.6424 41.7561 83.6034 39.8841 83.5514 37.8951C83.5514 37.5181 83.5384 37.1281 83.5384 36.7381C83.5384 36.5561 83.3954 36.4131 83.2134 36.4131C83.0314 36.4131 82.8884 36.5561 82.8884 36.7381C82.8884 37.1411 82.8884 37.5311 82.9014 37.9081C82.9534 39.8841 82.9924 41.4441 81.7314 42.3801C79.7944 43.8101 74.9974 46.2281 74.9454 46.2541C74.7894 46.3321 74.7114 46.5271 74.8024 46.6961C74.8544 46.8131 74.9714 46.8781 75.1014 46.8781L75.0884 46.8651Z" fill="#DEEFFF"/>
<path d="M45.6424 73.4631L56.0294 67.3531C56.0294 67.3531 54.1964 63.7911 49.7114 65.0261C45.2264 66.2741 42.6914 67.8341 42.6914 67.8341L45.6424 73.4631V73.4631Z" fill="#9E973E"/>
<path d="M49.3223 72.046C49.3223 75.712 51.5583 79.976 54.3143 81.562C57.0703 83.148 59.2933 81.458 59.2933 77.792C59.2933 74.126 57.0572 69.862 54.3012 68.276C51.5452 66.69 49.3223 68.38 49.3223 72.046V72.046Z" fill="#282027"/>
<path d="M57.4214 81.8871L54.1973 83.7591L48.1523 69.7191L51.5063 67.8081L57.4214 81.8871Z" fill="#282027"/>
<path d="M46.0859 73.918C46.0859 77.584 48.3219 81.848 51.0779 83.434C53.8339 85.02 56.0569 83.33 56.0569 79.664C56.0569 75.998 53.8209 71.734 51.0649 70.148C48.3089 68.562 46.0859 70.252 46.0859 73.918V73.918Z" fill="#3D333B"/>
<path d="M47.4902 74.7239C47.4902 77.3629 49.1022 80.4179 51.0782 81.5619C53.0542 82.7059 54.6532 81.4839 54.6532 78.8579C54.6532 76.2189 53.0412 73.1639 51.0652 72.0199C49.0892 70.8759 47.4902 72.0979 47.4902 74.7239V74.7239Z" fill="white"/>
<path d="M49.0625 75.7382C49.0625 77.0902 49.8815 78.6503 50.8955 79.2353C51.9095 79.8203 52.7285 79.1963 52.7285 77.8573C52.7285 76.5183 51.9095 74.9453 50.8955 74.3603C49.8815 73.7753 49.0625 74.3992 49.0625 75.7382Z" fill="#3D333B"/>
<path d="M49.3613 75.9071C49.3613 77.0251 50.0503 78.3251 50.8823 78.8191C51.7273 79.3001 52.4033 78.7931 52.4033 77.6621C52.4033 76.5441 51.7143 75.2441 50.8823 74.7501C50.0373 74.2691 49.3613 74.7761 49.3613 75.9071Z" fill="#7C6B7C"/>
<path d="M81.0028 44.434C80.3788 42.237 79.4558 39.065 78.2988 35.308C77.2198 31.811 76.2578 29.744 75.1788 28.314L63.7128 34.944L51.4408 42.029L41.7168 47.645L48.7758 63.154L68.3538 51.805L81.0288 44.447C81.0288 44.447 81.0028 44.434 80.9898 44.421L81.0028 44.434Z" fill="#CECB5F"/>
<path d="M71.1234 25.0769C67.8734 23.2049 53.8595 15.0279 50.2715 13.0389C49.0885 12.3759 48.1655 11.9469 47.4245 11.7129C29.1465 22.0609 17.3555 29.1459 17.3555 29.1459L40.1965 48.5289L51.4415 42.0289L75.1795 28.3139C74.0485 26.8059 72.7875 26.0259 71.1105 25.0639L71.1234 25.0769Z" fill="#E2DD71"/>
<path d="M81.03 44.46L51 61.88L74.14 76.492L104.105 58.994L81.03 44.46Z" fill="#E2DD71"/>
<path d="M74.1401 76.4919C69.0311 73.3719 55.8231 64.8569 51.0001 61.8799C50.3761 59.6829 49.4531 56.5109 48.2961 52.7539C46.0731 45.5649 44.3701 44.3949 41.1201 42.5229C37.8701 40.6509 23.8561 32.4739 20.2681 30.4849C19.0461 29.8089 18.1101 29.3799 17.3691 29.1589V57.1219L45.3061 73.2809L46.2421 67.6909L50.8961 68.1719L56.8631 72.6699L58.4491 80.8989L74.1011 89.9729C74.1011 89.9729 74.2181 81.6009 74.1401 76.5049V76.4919Z" fill="#B5B055"/>
<path d="M74.0996 89.9601L74.1386 76.4921L104.143 58.9941V72.4231L74.0996 89.9601Z" fill="#CECB5F"/>
<path d="M82.0042 73.0859L74.8802 77.2459L74.8672 83.2909L82.0042 79.1309V73.0859Z" fill="#3D333B"/>
<path d="M77.7157 76.2192L75.4147 77.5712L75.3887 82.4592L77.7157 81.1072V76.2192Z" fill="#FAC155"/>
<path d="M95.4848 65.2468L82.7838 72.6568L82.7578 79.6898L95.4848 72.2538V65.2468Z" fill="#3D333B"/>
<path d="M95.0047 66.2219L83.3307 73.0339L83.3047 78.8059L95.0047 71.9679V66.2219Z" fill="#7C6B7C"/>
<path d="M95.0047 66.5859L83.3307 73.3979L83.3047 74.1129L95.0047 67.2749V66.5859Z" fill="#3D333B"/>
<path d="M95.0047 68.0811L83.3307 74.8931L83.3047 75.595L95.0047 68.7571V68.0811Z" fill="#3D333B"/>
<path d="M95.0047 69.4329L83.3307 76.2449L83.3047 76.9469L95.0047 70.1089V69.4329Z" fill="#3D333B"/>
<path d="M95.0047 70.915L83.3307 77.727L83.3047 78.442L95.0047 71.604V70.915Z" fill="#3D333B"/>
<path d="M103.416 60.5933L96.2923 64.7533L96.2793 70.7983L103.416 66.6383V60.5933Z" fill="#3D333B"/>
<path d="M56.7711 71.2139C55.6011 69.0169 53.6901 67.4569 51.9091 66.4299C47.8531 64.0899 43.9661 67.0799 43.9531 72.4749C44.2391 72.6439 45.0191 73.0989 45.0191 73.0989C45.0191 68.6139 47.8791 65.9879 51.2461 67.9249C51.8311 68.2629 53.6771 70.7719 53.6771 70.7719L55.7441 73.7879L56.0041 73.9309C56.6801 75.6339 56.9661 78.2079 56.9531 79.9889C57.5901 80.4699 59.0981 81.2369 59.2801 81.3409C59.4361 78.9879 58.8641 75.1399 56.7581 71.2139H56.7711Z" fill="#E2DD71"/>
<path d="M51.1814 67.886C56.0174 70.694 57.7985 75.686 57.8245 80.548C57.6555 80.457 56.9534 79.989 56.5764 79.768C56.5764 79.716 56.5764 79.677 56.5764 79.625C56.5764 75.595 54.1195 70.928 51.1035 69.186C48.0875 67.444 45.6435 69.303 45.6435 73.32C45.6435 73.359 45.6435 73.411 45.6435 73.45C45.2925 73.242 44.9285 73.034 44.5645 72.826C44.5775 67.99 47.5415 65.767 51.1685 67.873L51.1814 67.886Z" fill="#CECB5F"/>
<path d="M81.3154 76.4921C81.3154 77.6101 80.6265 78.9101 79.7945 79.4041C78.9495 79.8851 78.2734 79.3781 78.2734 78.2471C78.2734 77.1291 78.9625 75.8291 79.7945 75.3351C80.6395 74.8541 81.3154 75.3611 81.3154 76.4921Z" fill="white"/>
<path d="M102.856 61.5681L100.542 62.9201L100.529 67.8081L102.856 66.4431V61.5681Z" fill="#FAC155"/>
<path d="M99.9307 65.663C99.9307 66.781 99.2417 68.081 98.4097 68.575C97.5647 69.056 96.8887 68.549 96.8887 67.418C96.8887 66.287 97.5777 65 98.4097 64.506C99.2547 64.025 99.9307 64.532 99.9307 65.663Z" fill="white"/>
<path d="M74.1777 90.9609L74.1387 86.5279L105.573 68.2109V72.6049L74.1777 90.9609Z" fill="#493E47"/>
<path d="M95.005 75.166L84.709 81.159L84.748 84.006L95.005 78.013V75.166Z" fill="white"/>
<path d="M65.5605 85.9299L74.1796 90.9609L74.1406 86.5279L65.5605 81.5229V85.9299Z" fill="#3D333B"/>
<path d="M65.5605 81.5232L66.4446 81.1462L74.1016 85.3712L104.145 68.0162V67.3662L105.575 68.2112L74.1406 86.5282L65.5605 81.5232Z" fill="#7C6B7C"/>
<path d="M99.8017 60.2679L77.0517 73.4889C77.0517 73.4889 72.6577 69.9009 70.7207 68.4319C68.7707 66.9499 55.3027 58.6689 55.3027 58.6689L78.0527 45.4089C78.0527 45.4089 90.0127 52.5589 92.2877 54.1969C96.2917 57.0829 99.8017 60.2549 99.8017 60.2549V60.2679Z" fill="#CECB5F"/>
<path d="M55.3027 59.3452L77.0517 73.4893C77.0517 73.4893 75.2187 71.3182 69.5377 67.3922C63.5837 63.2842 55.3027 58.6562 55.3027 58.6562V59.3322V59.3452Z" fill="#B7B146"/>
<path d="M49.062 44.9018C47.489 45.9808 48.009 47.0468 48.867 49.0878C49.738 51.1288 50.7 54.4178 51.194 56.3678C51.688 58.3178 52.052 59.7738 54.808 58.3698C57.343 57.0698 77.077 45.4088 78.468 44.3948C79.846 43.3938 79.248 42.6138 78.845 40.8588C78.273 38.3758 76.076 32.6428 75.387 31.6678C74.698 30.6928 73.515 30.9138 72.319 31.6678C71.136 32.4218 50.388 43.9918 49.049 44.9148L49.062 44.9018Z" fill="#3D333B"/>
<path d="M77.4027 43.1211C77.4027 43.1211 77.5197 43.0301 77.5587 42.9911C78.6117 42.0161 78.2477 41.4051 77.4027 38.6101C76.4797 35.5681 74.9587 31.4341 73.5677 32.0321C72.8657 32.3311 72.0597 32.8251 70.3827 33.7481C68.4327 34.8141 65.5467 36.3091 64.3767 36.9981C62.5957 38.0511 52.2217 43.8621 50.9997 44.6681C49.6087 45.5911 48.5427 46.2021 49.3617 48.1521C49.4657 48.3991 49.5957 48.7111 49.7257 49.0491C53.6387 47.0081 60.8797 43.2381 65.0787 41.1841C70.4867 38.5321 73.9317 37.5181 77.4027 43.1341V43.1211Z" fill="#5D80B3"/>
<path d="M54.6126 56.4982C57.6026 54.9252 63.9466 51.3242 66.6896 49.5692C70.3166 47.2422 76.1406 44.0962 77.4016 43.1212C73.9306 37.5052 70.4986 38.5192 65.0776 41.1712C60.8786 43.2252 53.6506 46.9952 49.7246 49.0362C50.6346 51.2852 52.0906 55.0942 52.4026 56.0822C52.5066 56.3942 52.8966 57.3822 54.5996 56.4982H54.6126Z" fill="#779CC9"/>
<path d="M46.5395 52.3249C45.3695 47.4629 43.9395 45.7469 40.0005 43.3549C36.4255 41.1839 24.7645 34.9179 21.5665 32.9549C20.9945 32.6039 20.5005 32.3179 20.0195 32.0579V32.8249C20.5525 33.0979 21.1115 33.4359 21.7615 33.8259C24.8425 35.7109 36.0485 41.7299 39.4805 43.8229C43.2765 46.1239 44.6415 47.7749 45.7725 52.4549C46.7085 56.3289 47.2546 59.0979 47.4236 59.9689L48.3206 60.4889C48.3206 60.4889 47.7225 57.2389 46.5395 52.3249V52.3249Z" fill="#3D333B"/>
<path d="M45.7725 52.442C44.6415 47.762 43.2765 46.111 39.4805 43.81C36.0485 41.717 24.8295 35.698 21.7615 33.813C21.1115 33.423 20.5395 33.085 20.0195 32.812V36.374C26.6105 39.923 35.7625 44.98 37.9465 46.462C41.7295 49.023 42.7045 52.312 43.6145 56.875C43.6795 57.213 43.7315 57.525 43.7835 57.837L47.4365 59.956C47.2675 59.072 46.7215 56.316 45.7855 52.442H45.7725Z" fill="#5D80B3"/>
<path d="M20.0078 44.057L43.7718 57.837C43.7198 57.525 43.6678 57.226 43.6028 56.875C42.6928 52.312 41.7178 49.023 37.9348 46.462C35.7378 44.98 26.5988 39.923 20.0078 36.374V44.057V44.057Z" fill="#779CC9"/>
<path d="M29.1462 49.3609L28.5352 48.9969V37.2449L29.1462 37.7129V49.3609Z" fill="#3D333B"/>
<path d="M33.6708 53.6899L31.0448 52.1689C30.7718 52.0129 30.5508 52.1689 30.5508 52.5459C30.5508 52.9099 30.7718 53.3389 31.0448 53.4949L33.6708 55.0159C33.9438 55.1719 34.1648 55.0159 34.1648 54.6389C34.1648 54.2749 33.9438 53.8459 33.6708 53.6899Z" fill="#7C6B7C"/>
<path d="M19.9414 27.625C19.9414 27.625 27.1564 31.824 31.9404 34.424C36.7244 37.024 44.9274 42.64 44.9274 42.64C44.9274 42.64 39.1684 37.596 32.4344 33.878C25.7004 30.16 19.9414 27.638 19.9414 27.638V27.625Z" fill="#B7B146"/>
<path d="M45.4492 12.8699C45.4492 12.8699 52.6642 17.0689 57.4482 19.6689C62.2322 22.2689 70.4352 27.8849 70.4352 27.8849C70.4352 27.8849 64.6762 22.8409 57.9422 19.1229C51.2082 15.4049 45.4492 12.8829 45.4492 12.8829V12.8699Z" fill="#B7B146"/>
<path d="M20.0079 44.057L19.2539 43.602V31.655L20.0079 32.058V44.057Z" fill="#3D333B"/>
<path d="M-22.0996 19.6819V34.2809L-9.68462 41.3919L-8.3976 35.7369L-0.389592 38.7269L3.12038 48.8539L17.3684 57.1089V42.5099L-22.0996 19.6819Z" fill="#B5B055"/>
<path d="M2.06798 39.52C0.897982 37.323 -1.01301 35.763 -2.79401 34.736C-6.85001 32.396 -10.737 35.386 -10.75 40.781C-10.464 40.95 -9.68403 41.405 -9.68403 41.405C-9.68403 36.92 -6.82402 34.294 -3.45702 36.231C-2.87202 36.569 -1.02602 39.078 -1.02602 39.078L1.04097 42.094L1.30099 42.237C1.97699 43.94 2.263 46.514 2.25 48.295C2.887 48.776 4.39497 49.543 4.57697 49.647C4.73297 47.294 4.16101 43.446 2.05501 39.52H2.06798Z" fill="#E2DD71"/>
<path d="M-3.52168 36.1921C1.31432 39.0001 3.09531 43.9921 3.12131 48.8541C2.95231 48.7631 2.25032 48.2951 1.87332 48.0741C1.87332 48.0221 1.87332 47.9831 1.87332 47.9311C1.87332 43.9011 -0.583673 39.2341 -3.59967 37.4921C-6.61567 35.7501 -9.05969 37.6091 -9.05969 41.6261C-9.05969 41.6651 -9.05969 41.7171 -9.05969 41.7561C-9.41069 41.5481 -9.77467 41.3401 -10.1387 41.1321C-10.1257 36.2961 -7.16169 34.0731 -3.53469 36.1791L-3.52168 36.1921Z" fill="#CECB5F"/>
<path d="M2.19727 41.3792C2.61327 42.3672 2.89928 43.4072 3.14628 44.4732L45.0973 68.7961C45.5133 68.1721 46.0463 67.6261 46.6833 67.1711L2.19727 41.3792Z" fill="#E2DD71"/>
<path d="M29.1462 63.9208L28.5352 63.5698V48.9968L29.1462 49.3608V63.9208Z" fill="#9E973E"/>
<path d="M44.7732 63.557C45.2282 63.557 45.7352 63.31 46.2162 63.037L49.5312 61.126C49.6872 61.035 49.7392 60.84 49.6482 60.684C49.5572 60.528 49.3622 60.476 49.2062 60.567L45.9042 62.478C45.2152 62.868 44.7992 62.998 44.5782 62.855C43.9412 62.478 44.0192 59.891 44.0452 59.046C44.0452 58.864 43.9022 58.708 43.7332 58.708C43.5512 58.708 43.3952 58.851 43.3952 59.02C43.3172 61.763 43.5512 62.998 44.2532 63.414C44.4222 63.518 44.6172 63.557 44.8122 63.557H44.7732Z" fill="#DEEFFF"/>
<path d="M45.5905 57.6031C45.5905 59.0981 44.6805 60.8401 43.5495 61.4901C42.4315 62.1401 41.5215 61.4511 41.5215 59.9561C41.5215 58.4611 42.4315 56.7191 43.5625 56.0691C44.6805 55.4191 45.5905 56.1081 45.5905 57.6031Z" fill="#9E973E"/>
<path d="M43.0559 62.0621L42.1719 61.5551L44.8889 55.9651L45.6429 56.4071L43.0559 62.0621Z" fill="#9E973E"/>
<path d="M46.3581 58.0452C46.3581 59.5402 45.4481 61.2822 44.3171 61.9322C43.1991 62.5822 42.2891 61.8932 42.2891 60.3982C42.2891 58.9032 43.1991 57.1612 44.3301 56.5112C45.4481 55.8612 46.3581 56.5502 46.3581 58.0452Z" fill="#CECB5F"/>
<path d="M85.0339 35.919C85.0339 37.414 84.1238 39.156 82.9928 39.806C81.8748 40.456 80.9648 39.767 80.9648 38.272C80.9648 36.777 81.8749 35.035 83.0059 34.385C84.1239 33.735 85.0339 34.424 85.0339 35.919Z" fill="#9E973E"/>
<path d="M82.4856 40.3912L81.6016 39.8712L84.3316 34.2812L85.0726 34.7233L82.4856 40.3912Z" fill="#9E973E"/>
<path d="M85.8014 36.3743C85.8014 37.8693 84.8914 39.6113 83.7604 40.2613C82.6424 40.9113 81.7324 40.2223 81.7324 38.7273C81.7324 37.2323 82.6424 35.4903 83.7734 34.8403C84.8914 34.1903 85.8014 34.8793 85.8014 36.3743Z" fill="#CECB5F"/>
</g>
</svg>
