<svg width="56" height="65" viewBox="0 0 56 65" fill="none" xmlns="http://www.w3.org/2000/svg">
<path d="M5.28215 48.5378C5.6035 48.5378 5.96166 48.5576 6.35666 48.5973C6.75165 48.637 7.14998 48.7097 7.55167 48.8156C7.95335 48.9214 8.34332 49.0669 8.72157 49.2521C9.09983 49.4374 9.43623 49.6804 9.7308 49.9814C10.0254 50.2824 10.2614 50.6462 10.4388 51.0729C10.6162 51.4995 10.7049 52.0039 10.7049 52.586V52.6257C10.7049 53.0093 10.6564 53.3483 10.5593 53.6427C10.4622 53.9371 10.3283 54.1934 10.1576 54.4117C9.98688 54.63 9.78269 54.8152 9.54502 54.9673C9.30736 55.1194 9.05129 55.2451 8.7768 55.3443C9.14502 55.4303 9.49481 55.5494 9.8262 55.7015C10.1576 55.8537 10.4488 56.0538 10.6999 56.3018C10.9509 56.5499 11.1484 56.8525 11.2924 57.2097C11.4363 57.5669 11.5083 57.9902 11.5083 58.4797V58.5194C11.5083 59.1015 11.4313 59.6026 11.2773 60.0226C11.1233 60.4427 10.9174 60.7999 10.6597 61.0942C10.4019 61.3886 10.1007 61.6251 9.75591 61.8037C9.41113 61.9823 9.04962 62.1228 8.67136 62.2254C8.29311 62.3279 7.90649 62.3973 7.5115 62.4337C7.11651 62.4701 6.73993 62.4883 6.38176 62.4883C6.04917 62.4883 5.73824 62.4826 5.44895 62.4712L5.21242 62.4616C4.97964 62.4529 4.78196 62.4486 4.61937 62.4486H1.34564C1.0109 62.4486 0.753159 62.4255 0.5724 62.3791C0.391641 62.3328 0.259422 62.2452 0.175737 62.1162C0.0920523 61.9872 0.0418422 61.8136 0.0251053 61.5953L0.0210954 61.5393C0.00703173 61.3291 0 61.0634 0 60.742V49.6689C0 49.5763 0.0217577 49.4655 0.0652737 49.3365C0.10879 49.2075 0.185778 49.0851 0.296242 48.9694C0.406706 48.8536 0.553989 48.756 0.738095 48.6767C0.922201 48.5973 1.15149 48.5576 1.42598 48.5576H4.75996L4.80464 48.552C4.88352 48.5425 4.94561 48.5378 4.99093 48.5378H5.28215ZM4.57389 51.0205H2.75719V60.0056H5.09871L5.22095 60.0042C5.86614 59.9962 6.40405 59.9737 6.83468 59.9366C7.29222 59.8972 7.65387 59.8249 7.91965 59.7199C8.18543 59.6148 8.37046 59.4653 8.47475 59.2716C8.57905 59.0778 8.63119 58.8168 8.63119 58.4883C8.63119 58.1665 8.57736 57.8956 8.46971 57.6756C8.36205 57.4555 8.17365 57.2765 7.90451 57.1386C7.63537 57.0007 7.27203 56.9022 6.81449 56.8431C6.35695 56.7839 5.7783 56.7544 5.07853 56.7544H4.14999C3.98178 56.7544 3.84216 56.715 3.73114 56.6362C3.62012 56.5573 3.53097 56.4588 3.46368 56.3406C3.3964 56.2224 3.3493 56.0927 3.32238 55.9514C3.29547 55.8102 3.28201 55.6772 3.28201 55.5524C3.28201 55.4276 3.2921 55.2946 3.31229 55.1534C3.33248 55.0122 3.37116 54.8825 3.42836 54.7643C3.48555 54.646 3.56629 54.5475 3.67058 54.4687C3.77488 54.3899 3.91449 54.3505 4.08944 54.3505H4.87667C5.7783 54.3505 6.48647 54.2224 7.00121 53.9662C7.51594 53.7101 7.79013 53.2996 7.82377 52.7347V52.6362C7.82377 52.3144 7.7548 52.05 7.61687 51.8431C7.47893 51.6362 7.27371 51.472 7.00121 51.3505C6.7287 51.229 6.38891 51.1436 5.98183 51.0944C5.57476 51.0451 5.10545 51.0205 4.57389 51.0205Z" fill="white"/>
<path d="M21.027 48.3326C21.22 48.3353 21.413 48.3432 21.6061 48.3562C21.8505 48.3726 22.0865 48.4351 22.3144 48.5437C22.5422 48.6522 22.7585 48.8282 22.9632 49.0717C23.1679 49.3151 23.3495 49.6672 23.508 50.1277L27.1534 60.4908C27.2789 60.8461 27.3383 61.1455 27.3317 61.3889C27.3251 61.6324 27.2772 61.8281 27.1881 61.9761C27.0989 62.1242 26.9751 62.2295 26.8166 62.292C26.6581 62.3545 26.4864 62.3857 26.3015 62.3857C26.0571 62.3857 25.8392 62.3759 25.6477 62.3561C25.4562 62.3364 25.2828 62.2805 25.1276 62.1883C24.9724 62.0962 24.8321 61.9564 24.7066 61.7689C24.5812 61.5814 24.4656 61.3198 24.3599 60.9843L23.8646 59.5433H17.5348L17.0494 60.9843C16.9371 61.3198 16.8183 61.5814 16.6928 61.7689C16.5673 61.9564 16.427 62.0962 16.2718 62.1883C16.1166 62.2805 15.9449 62.3364 15.7567 62.3561C15.5685 62.3759 15.3522 62.3857 15.1079 62.3857C14.9229 62.3857 14.7512 62.3545 14.5927 62.292C14.4343 62.2295 14.3104 62.1242 14.2213 61.9761C14.1321 61.8281 14.0842 61.6324 14.0776 61.3889C14.0712 61.1509 14.1279 60.8594 14.2477 60.5144L17.3944 51.5689L17.4026 51.5484C17.4827 51.3521 17.5393 51.3132 17.711 51.3132H20.0895C20.0935 51.3132 20.0974 51.3145 20.1012 51.317C20.2683 51.3379 20.3174 51.4551 20.2483 51.6685L20.2509 51.672L18.3377 57.3073H23.19L21.0522 51.0104C21.0283 50.9391 21.0053 50.8789 20.9832 50.8299L20.9852 50.8273C20.2614 49.1885 20.2389 48.3582 20.9178 48.3364L21.0102 48.3332C21.0159 48.333 21.0215 48.3328 21.027 48.3326Z" fill="white"/>
<path d="M34.9474 50.9581H32.6806V61.7781C32.6806 61.9359 32.6395 62.0625 32.5574 62.1579C32.4753 62.2532 32.3702 62.3255 32.242 62.3749C32.1139 62.4242 31.9661 62.4554 31.7985 62.4686C31.631 62.4817 31.4651 62.4883 31.3008 62.4883C31.1103 62.4883 30.9313 62.4801 30.7637 62.4636C30.5962 62.4472 30.4483 62.4143 30.3202 62.365C30.1921 62.3157 30.0903 62.2434 30.0147 62.148C29.9391 62.0527 29.9014 61.9294 29.9014 61.7781V49.6758C29.9014 49.6232 29.9047 49.5871 29.9112 49.5673C29.9309 49.4687 29.9654 49.3602 30.0147 49.2418C30.064 49.1235 30.1428 49.0133 30.2512 48.9114C30.3596 48.8095 30.4976 48.724 30.6652 48.655C30.8327 48.5859 31.0446 48.5514 31.3008 48.5514H34.9671C35.3087 48.5317 35.6947 48.5333 36.1251 48.5563C36.5554 48.5794 36.994 48.6402 37.4408 48.7388C37.8876 48.8374 38.3245 48.9854 38.7516 49.1827C39.1786 49.3799 39.5581 49.6446 39.8899 49.9767C40.2217 50.3087 40.4894 50.718 40.6931 51.2046C40.8968 51.6912 40.9986 52.2732 40.9986 52.9505V52.9899C40.9986 53.5686 40.9231 54.0732 40.7719 54.5039C40.6208 54.9346 40.4188 55.3078 40.1658 55.6234C39.9129 55.939 39.6189 56.2021 39.2838 56.4125C38.9487 56.6229 38.5972 56.7939 38.2292 56.9254L40.8508 61.3935C40.9296 61.5381 40.9592 61.6647 40.9395 61.7732C40.9198 61.8817 40.8639 61.977 40.7719 62.0592C40.68 62.1414 40.565 62.2088 40.427 62.2614C40.289 62.314 40.1445 62.3568 39.9934 62.3897C39.8422 62.4225 39.6944 62.4456 39.5499 62.4587C39.4053 62.4719 39.2838 62.4784 39.1852 62.4784C38.9487 62.4784 38.7121 62.4357 38.4756 62.3502C38.2391 62.2647 38.0617 62.1168 37.9434 61.9064L35.3711 57.389H33.9618C33.6924 57.389 33.497 57.2722 33.3754 57.0388C33.2539 56.8054 33.1931 56.521 33.1931 56.1856C33.1931 56.0212 33.2029 55.8651 33.2227 55.7171C33.2424 55.5692 33.2818 55.4409 33.3409 55.3324C33.4001 55.2239 33.4805 55.1385 33.5824 55.076C33.6842 55.0135 33.8173 54.9823 33.9815 54.9823H35.1445C35.7752 54.9757 36.2893 54.9297 36.6869 54.8442C37.0844 54.7587 37.3948 54.6338 37.6182 54.4694C37.8416 54.305 37.996 54.1061 38.0814 53.8727C38.1668 53.6392 38.2128 53.3713 38.2194 53.0688V52.9702C38.2194 52.648 38.18 52.3619 38.1011 52.1121C38.0223 51.8622 37.8679 51.6518 37.6379 51.4808C37.4079 51.3099 37.086 51.18 36.6721 51.0912C36.2693 51.0048 35.7453 50.9605 35.1 50.9582L34.9474 50.9581Z" fill="white"/>
<path d="M49.7247 50.7772C48.9945 50.7772 48.4074 50.8583 47.9633 51.0206C47.5193 51.1829 47.1789 51.438 46.9421 51.7858C46.7052 52.1336 46.5474 52.5824 46.4684 53.1323C46.3895 53.6821 46.35 54.3413 46.35 55.1098V55.7259C46.35 56.4149 46.378 56.9829 46.4339 57.4301L46.4461 57.5246C46.5002 57.9287 46.5685 58.2599 46.651 58.5182C46.7398 58.7965 46.8401 59.0101 46.9519 59.1592C47.0638 59.3082 47.1772 59.4308 47.2924 59.5269L47.3679 59.5897C47.4546 59.6615 47.5363 59.7284 47.6131 59.7902C47.7117 59.8697 47.7972 59.979 47.8696 60.1181C47.9222 60.2175 47.9683 60.3384 48.0078 60.4808C48.0472 60.6233 48.067 60.8005 48.067 61.0125C48.067 61.3636 48.0061 61.6203 47.8844 61.7826C47.768 61.9379 47.6411 62.0401 47.5036 62.0893L47.4848 62.0956C47.3137 62.1553 47.1197 62.1652 46.9026 62.1254C46.2184 61.9267 45.6609 61.6352 45.2301 61.251C44.7992 60.8667 44.4604 60.3931 44.2137 59.8299C43.967 59.2668 43.7976 58.6193 43.7055 57.8872C43.6165 57.1796 43.5705 56.3961 43.5675 55.5368L43.5674 55.388C43.5674 54.752 43.5904 54.1343 43.6365 53.5347C43.6825 52.9352 43.7779 52.3737 43.9226 51.8504C44.0673 51.327 44.2778 50.85 44.5541 50.4194C44.8304 49.9888 45.2004 49.6195 45.6642 49.3114C46.128 49.0034 46.6987 48.7632 47.3762 48.591C48.0538 48.4187 48.8695 48.3326 49.8234 48.3326C50.7641 48.3326 51.5699 48.4187 52.2409 48.591C52.9119 48.7632 53.476 49.0034 53.9332 49.3114C54.3904 49.6195 54.7555 49.9888 55.0285 50.4194C55.3015 50.85 55.5103 51.327 55.6551 51.8504C55.7998 52.3737 55.8935 52.9352 55.9363 53.5347C55.979 54.1343 56.0004 54.752 56.0004 55.388V55.4476C56.0004 56.0306 55.9823 56.5987 55.9461 57.1519C55.91 57.705 55.8343 58.2267 55.7192 58.717C55.6041 59.2072 55.438 59.661 55.2209 60.0784C55.0038 60.4957 54.7143 60.8651 54.3525 61.1864C53.9907 61.5077 53.5467 61.7743 53.0204 61.9863C52.4942 62.1983 51.8626 62.3441 51.1259 62.4236V63.457C51.1259 63.616 51.088 63.7452 51.0124 63.8446C50.9367 63.944 50.8364 64.0234 50.7114 64.0831C50.5865 64.1427 50.445 64.1824 50.2871 64.2023C50.1293 64.2222 49.9681 64.2321 49.8036 64.2321C49.626 64.2321 49.4566 64.2205 49.2955 64.1973C49.1343 64.1742 48.9912 64.1328 48.8662 64.0731C48.7412 64.0135 48.6426 63.934 48.5702 63.8346C48.4978 63.7353 48.4617 63.6094 48.4617 63.457V60.9727C48.4617 60.8137 48.4995 60.6763 48.5751 60.5603C48.6508 60.4444 48.7511 60.35 48.8761 60.2771C49.0011 60.2043 49.1425 60.1496 49.3004 60.1132C49.4583 60.0767 49.6194 60.0585 49.7839 60.0585H49.8431C50.5733 60.0585 51.1604 59.9774 51.6044 59.815C52.0485 59.6527 52.3889 59.3977 52.6257 59.0499C52.8626 58.7021 53.0204 58.2533 53.0994 57.7034C53.1783 57.1535 53.2178 56.4944 53.2178 55.7259V55.1098C53.2178 54.3413 53.1783 53.6821 53.0994 53.1323C53.0204 52.5824 52.8626 52.1336 52.6257 51.7858C52.3889 51.438 52.0485 51.1829 51.6044 51.0206C51.1604 50.8583 50.5733 50.7772 49.8431 50.7772H49.7247Z" fill="white"/>
<path fill-rule="evenodd" clip-rule="evenodd" d="M33.4223 42.5184L34.0875 42.3733C35.6666 42.0281 37.0449 41.4482 38.3054 40.6059C40.8934 38.8656 42.7504 36.0932 43.4551 32.9155L43.498 32.7163C43.6193 32.139 43.6588 31.7626 43.6847 30.804L43.6939 30.4157C43.7354 28.7587 43.6731 27.9165 43.4307 26.729C42.6216 22.7237 39.9797 19.9906 36.1299 19.1727L36.0129 19.1485L35.5489 19.0587L35.9021 18.4719C37.1349 16.4421 37.6821 14.1362 37.4882 11.8165C37.3012 9.60723 36.6293 7.65342 35.445 5.87221L35.3655 5.75569C34.8298 4.98399 33.8594 3.83555 33.7342 3.83555L33.7062 3.83542C33.6546 3.83768 33.671 3.87486 33.907 4.30507L34.0321 4.53284C34.9394 6.16908 35.3549 7.77769 35.3549 9.66937C35.3481 12.3433 34.4399 14.9435 32.5243 17.7606L32.4391 17.8851C32.163 18.2878 30.99 19.9043 29.8113 21.5228L28.8562 22.8328C27.4137 24.8212 27.3641 24.9795 27.6301 25.1749L27.6693 25.2027C27.8032 25.2886 28.2081 25.3051 30.3211 25.3067L31.7513 25.3081C33.2868 25.313 33.6012 25.3342 33.6902 25.4083L33.6996 25.4172C33.762 25.4725 33.8104 25.5829 33.8104 25.652C33.8104 25.8108 21.7245 42.4562 21.586 42.4838C21.5306 42.4976 21.4821 42.4769 21.4821 42.4492L21.4851 42.4392C21.5462 42.2636 22.5433 39.8902 23.78 36.9739L24.567 35.1133C25.6177 32.6167 26.3996 30.7029 26.3996 30.6159L26.3993 30.5498C26.3928 30.2245 26.2457 30.2092 23.1628 30.2086L21.1848 30.2073C19.1395 30.2022 18.8667 30.1788 18.7671 30.0912C18.6979 30.0291 18.6424 29.9255 18.6424 29.8565C18.6424 29.7874 20.2147 26.6323 22.1332 22.8421L25.1349 16.9075C27.568 12.0875 27.8782 11.4285 28.0203 11.0087C28.8098 8.64068 28.5397 5.90673 27.3208 3.87697C26.1675 1.95189 24.3216 0.589807 22.2669 0.120914L22.1002 0.0840477C21.586 -0.0731132 15.9759 0.0275647 15.7851 0.0859117L15.7335 0.100517C14.1245 0.535465 12.9786 1.64609 12.4873 3.24142L12.4644 3.31775L12.3051 3.87007L12.3047 30.5867C12.3105 39.9235 12.3686 39.2392 12.7978 40.0694L12.8315 40.1364C13.3254 41.1277 14.1562 41.8885 15.2272 42.3222L15.3041 42.3526L15.733 42.5184H33.4223Z" fill="#F7C537"/>
</svg>
