<svg width="567" height="212" viewBox="0 0 567 212" fill="none" xmlns="http://www.w3.org/2000/svg">
<g clip-path="url(#clip0_620_332)">
<rect width="567" height="212" rx="30" fill="#F7C537"/>
<path fill-rule="evenodd" clip-rule="evenodd" d="M504.914 182.575L589 62.955L577.746 55L500.337 165.122L473.496 62.7783L460.18 66.2901L478.802 137.295L399.148 156.896L406.193 76.9286L392.477 75.7135L389.026 114.894L268.276 128.782L286.513 171.203L240.199 174.745L246.683 76.7782L232.944 75.8638L226.329 175.806L172.467 179.925L140.107 130.778L128.616 138.386L141.995 158.705L52 214.241L59.2164 226L149.586 170.234L165.438 194.31L292.277 184.609L308.719 222.853L321.363 217.387L288.257 140.382L387.789 128.934L383.738 174.905L482.304 150.65L500.984 221.876L514.3 218.365L504.914 182.575Z" fill="white" fill-opacity="0.4"/>
<path fill-rule="evenodd" clip-rule="evenodd" d="M17.4803 108.849L-84.3516 16.6284L-75.6955 7.00279L18.0503 91.9005L21.3928 -7.48091L34.3171 -7.02261L31.9981 61.9276L109.015 63.3811L85.9672 -8.46348L98.2763 -12.421L109.569 22.7794L223.036 10.4753L215.137 53.1431L258.288 46.7876L232.019 -41.6724L244.412 -45.3591L271.211 44.8844L321.394 37.4932L340.831 -14.2682L352.933 -9.67663L344.897 11.7241L445.499 63.3807L441.331 75.6564L340.338 23.8657L330.816 49.2226L212.641 66.6279L205.52 105.094L192.805 102.705L207.144 25.2514L113.615 35.3934L126.864 76.6949L31.5619 74.8963L29.2357 144.061L16.3114 143.602L17.4803 108.849Z" fill="white" fill-opacity="0.4"/>
<path fill-rule="evenodd" clip-rule="evenodd" d="M541.69 23.9402C526.735 27.0681 508.288 33.0935 490.064 49.6244C466.81 70.718 444.781 78.7382 422.252 80.5262C404.703 81.9189 386.773 79.4817 368.383 76.982C363.738 76.3506 359.064 75.7153 354.359 75.1366C330.715 72.2288 305.24 70.5323 275.699 76.6542C246.17 82.7738 212.202 96.7902 171.863 125.831C122.797 161.155 76.6456 164.401 38.8386 155.295C1.31902 146.257 -27.6165 125.161 -43 112.333L-35.105 102.865C-20.3209 115.193 6.88677 134.918 41.7254 143.31C76.2767 151.632 118.699 148.915 164.66 115.826C206.18 85.9353 241.723 71.1058 273.198 64.5831C304.661 58.0626 331.681 59.9271 355.864 62.9012C360.976 63.53 365.917 64.199 370.721 64.8495C388.936 67.3157 405.179 69.5148 421.277 68.2372C441.072 66.6661 460.536 59.7655 481.781 40.4937C502.166 22.0027 522.907 15.2745 539.166 11.8737C543.202 11.0296 546.962 10.3906 550.312 9.83588C550.736 9.76577 551.151 9.69728 551.558 9.63011C554.426 9.15711 556.897 8.74947 559.08 8.30312C561.594 7.78908 563.357 7.29302 564.576 6.76839C565.634 6.31283 565.892 5.9999 565.893 6C565.893 6.00001 565.887 6.00714 565.877 6.02197L576.15 12.8366C574.396 15.4804 571.842 17.0621 569.449 18.0918C567.057 19.1212 564.311 19.8162 561.549 20.3808C559.117 20.8782 556.386 21.3283 553.555 21.7951C553.147 21.8623 552.737 21.9298 552.326 21.9979C549.004 22.548 545.458 23.1521 541.69 23.9402Z" fill="#4DC78C"/>
<g clip-path="url(#clip1_620_332)">
<g filter="url(#filter0_d_620_332)">
<path d="M267.699 94.1338C267.426 94.0271 267.172 93.8816 266.951 93.706C266.73 93.5304 266.547 93.3282 266.412 93.1114C266.278 92.8945 266.195 92.6674 266.168 92.4434C266.141 92.2194 266.171 92.0031 266.256 91.8073L272.94 74.7475C273.017 74.5502 272.984 74.3188 272.847 74.1043C272.711 73.8898 272.482 73.7098 272.211 73.6038L248.795 64.4293C248.364 64.2648 247.98 64.007 247.696 63.6911C247.412 63.3752 247.241 63.0167 247.207 62.6648C247.174 62.2483 247.341 61.871 247.673 61.6068C248.005 61.3427 248.48 61.2109 249.003 61.2373L304.4 64.0458C304.828 64.0677 305.266 64.1941 305.654 64.4082C306.043 64.6223 306.364 64.9139 306.575 65.2437C306.785 65.5735 306.875 65.9259 306.832 66.2535C306.789 66.5812 306.615 66.8685 306.334 67.0768L269.895 93.9914C269.631 94.1871 269.284 94.3045 268.894 94.3298C268.505 94.355 268.09 94.287 267.699 94.1338Z" fill="white"/>
</g>
</g>
</g>
<defs>
<filter id="filter0_d_620_332" x="235.203" y="59.234" width="83.6387" height="57.1009" filterUnits="userSpaceOnUse" color-interpolation-filters="sRGB">
<feFlood flood-opacity="0" result="BackgroundImageFix"/>
<feColorMatrix in="SourceAlpha" type="matrix" values="0 0 0 0 0 0 0 0 0 0 0 0 0 0 0 0 0 0 127 0" result="hardAlpha"/>
<feOffset dy="10"/>
<feGaussianBlur stdDeviation="6"/>
<feComposite in2="hardAlpha" operator="out"/>
<feColorMatrix type="matrix" values="0 0 0 0 0.216667 0 0 0 0 0.216667 0 0 0 0 0.216667 0 0 0 0.25 0"/>
<feBlend mode="normal" in2="BackgroundImageFix" result="effect1_dropShadow_620_332"/>
<feBlend mode="normal" in="SourceGraphic" in2="effect1_dropShadow_620_332" result="shape"/>
</filter>
<clipPath id="clip0_620_332">
<rect width="567" height="212" rx="30" fill="white"/>
</clipPath>
<clipPath id="clip1_620_332">
<rect width="70.1381" height="51.137" fill="white" transform="translate(249.91 37.3919) rotate(21.3949)"/>
</clipPath>
</defs>
</svg>
