<svg width="100" height="100" viewBox="0 0 100 100" fill="none" xmlns="http://www.w3.org/2000/svg">
<g style="mix-blend-mode:luminosity" opacity="0.4">
<mask id="mask0_501_559" style="mask-type:alpha" maskUnits="userSpaceOnUse" x="0" y="0" width="100" height="100">
<circle cx="50" cy="50" r="50" fill="#D9D9D9"/>
</mask>
<g mask="url(#mask0_501_559)">
<circle cx="50" cy="50" r="50" fill="#F59E0B"/>
<path d="M6.24219 52.0208C6.24219 52.0208 5.96219 53.2008 5.28219 53.3608C4.60219 53.5208 3.74219 52.9008 3.74219 52.9008C3.74219 52.9008 4.46219 50.0308 4.59219 50.0308C4.72219 50.0308 7.01219 50.0108 6.24219 52.0208Z" fill="#282027"/>
<path d="M41.9824 72.5509C41.9824 72.5509 41.7024 73.7309 41.0224 73.8909C40.3424 74.0509 39.4824 73.5609 39.4824 73.5609C39.4824 73.5609 40.2024 70.5609 40.3324 70.5609C40.4624 70.5609 42.7524 70.5409 41.9824 72.5509Z" fill="#282027"/>
<path d="M73.1421 43.4411L77.2521 41.0711C77.7921 40.7611 78.2321 39.9111 78.2321 39.1911V37.1611C78.2321 36.4411 77.7921 36.1011 77.2521 36.4211L73.1421 38.7911C72.6021 39.1011 72.1621 39.9511 72.1621 40.6711V42.7011C72.1621 43.4211 72.6021 43.7611 73.1421 43.4411Z" fill="#DEEFFF"/>
<path d="M78.5826 36.731C78.5826 36.731 78.0226 36.271 77.7526 36.291C77.4826 36.311 78.0925 37.171 78.0925 37.171L78.5826 36.731Z" fill="#DEEFFF"/>
<path d="M73.3222 43.8709C73.3222 43.8709 72.5922 43.7609 72.4022 43.4109C72.2122 43.0609 72.3422 42.6809 72.3422 42.6809C72.3422 42.6809 73.3422 43.1409 73.3222 43.8709Z" fill="#DEEFFF"/>
<path d="M73.7632 43.7607L77.8732 41.3907C78.4132 41.0807 78.8532 40.2307 78.8532 39.5107V37.4807C78.8532 36.7607 78.4132 36.4207 77.8732 36.7407L73.7632 39.1107C73.2232 39.4207 72.7832 40.2707 72.7832 40.9907V43.0207C72.7832 43.7407 73.2232 44.0807 73.7632 43.7607Z" fill="white"/>
<path d="M68.3222 50.9911C68.3222 50.9911 68.4022 50.9911 68.4422 50.9611C68.6122 50.8811 72.6122 48.8611 74.3022 47.6111C75.6122 46.6411 75.5722 45.0411 75.5322 43.3511C75.5322 43.0311 75.5122 42.7011 75.5122 42.3711C75.5122 42.2211 75.3922 42.0911 75.2322 42.0911C75.0722 42.0911 74.9522 42.2111 74.9522 42.3711C74.9522 42.7111 74.9522 43.0411 74.9722 43.3711C75.0122 45.0511 75.0422 46.3711 73.9722 47.1711C72.3322 48.3911 68.2422 50.4411 68.2022 50.4611C68.0622 50.5311 68.0122 50.7011 68.0822 50.8311C68.1322 50.9311 68.2322 50.9811 68.3322 50.9811L68.3222 50.9911Z" fill="white"/>
<path d="M22.6919 4.09102L64.5019 28.081C66.2019 29.051 67.4619 30.641 68.0419 32.511L72.6519 46.961L79.9119 56.671C80.5619 57.671 80.9119 58.841 80.9119 60.031V65.501C80.9119 66.151 80.7319 66.801 80.6019 66.971L21.6719 33.061V4.68102C21.6719 4.16102 22.2419 3.83102 22.6919 4.09102V4.09102Z" fill="#4F464D"/>
<path d="M22.0909 4.05078L-1.61914 17.6708C-1.61914 17.6708 -0.879141 18.0608 -0.799141 18.0608C-0.719141 18.0608 22.6109 4.29078 22.6109 4.29078L22.0909 4.05078V4.05078Z" fill="#60585E"/>
<path d="M56.7005 79.9111L30.4805 39.3511L79.7505 57.5111L80.6005 66.9611C80.4205 67.2511 80.1205 67.5011 79.6205 67.8811C79.6205 67.8811 64.4005 76.8911 59.1805 79.6311C57.9505 80.2711 57.1205 80.0211 56.7105 79.9011L56.7005 79.9111Z" fill="#4F464D"/>
<path d="M66.5323 29.761C66.5323 29.761 65.9623 28.961 64.4923 28.071C62.0223 29.491 40.8223 41.671 40.8223 41.671L42.8623 43.401L66.5323 29.751V29.761Z" fill="#60585E"/>
<path d="M22.6915 4.09082L-0.978516 17.6908L40.8315 41.6808L64.5015 28.0708L22.6915 4.09082Z" fill="#4F464D"/>
<path d="M79.9109 56.6609C79.9109 56.6609 80.3609 57.4609 80.4909 57.7909C80.7109 58.3809 80.8609 59.2009 80.8609 59.2009L57.0209 72.9309L55.7109 69.5909L79.9209 56.6509L79.9109 56.6609Z" fill="#756F74"/>
<path d="M-0.978047 17.691L40.832 41.681C42.532 42.651 43.792 44.241 44.372 46.111L48.982 60.561L56.242 70.271C56.892 71.271 57.242 72.441 57.242 73.631V80.041C55.692 79.691 54.262 79.021 53.352 78.511C41.252 71.741 9.45195 53.311 0.421953 48.071C-1.07805 47.201 -1.99805 47.461 -1.99805 45.721V18.281C-1.99805 17.761 -1.42805 17.431 -0.978047 17.691Z" fill="#3D343B"/>
<path d="M68.0018 40.2808C68.4818 41.7908 71.2118 49.2408 71.2118 49.2408C71.2118 49.2408 71.6118 49.0708 72.2018 48.8108C72.0818 49.4908 71.6718 50.1108 71.0418 50.4808L53.0718 61.0008C51.7318 61.7808 50.0118 61.1308 49.5418 59.6508L45.8418 48.1908C51.6018 44.9308 60.5518 39.8608 62.7118 38.6208C65.9718 36.7608 67.5218 38.7608 68.0018 40.2708V40.2808Z" fill="#779CC9"/>
<path d="M46.7008 44.621L64.7508 34.271C66.0908 33.501 67.8008 34.161 68.2708 35.631L72.1308 47.651C72.2508 48.041 72.2708 48.431 72.2008 48.811C71.6108 49.071 71.2108 49.241 71.2108 49.241C71.2108 49.241 68.4808 41.791 68.0008 40.281C67.5208 38.771 65.9708 36.771 62.7108 38.631C60.5508 39.871 51.6008 44.931 45.8408 48.201L45.6008 47.471C45.2508 46.381 45.7108 45.191 46.7008 44.621V44.621Z" fill="#5D80B3"/>
<path d="M72.6522 46.9508L79.9122 56.6608L56.3122 70.3608L48.9922 60.5508L72.6522 46.9508Z" fill="#60585E"/>
<path d="M43.2715 47.5408L47.3415 60.5208L3.63149 35.2008C2.77148 34.7008 2.04148 34.0108 1.49148 33.1708L-0.368516 30.3208C-0.768516 29.7108 -0.978516 29.0008 -0.978516 28.2708V20.0308L40.2015 43.7208C41.6615 44.5608 42.7515 45.9208 43.2615 47.5308L43.2715 47.5408Z" fill="#5D80B3"/>
<path d="M76.0209 63.7107C76.0209 63.7107 76.5709 67.4607 73.8309 69.0107C70.6109 70.8307 67.5709 72.8207 65.6509 73.6607C62.7909 74.9007 61.3809 72.1107 61.3809 72.1107L76.0309 63.7107H76.0209Z" fill="#282027"/>
<path d="M72.171 48.6807L73.451 50.3107L67.281 53.9107L66.041 52.2907L72.171 48.6807Z" fill="#4F464D"/>
<path d="M57.8019 56.9508L59.0719 58.5908L52.9119 62.1808L51.6719 60.5608L57.8019 56.9508Z" fill="#4F464D"/>
<path d="M62.7122 75.3711C62.7122 75.3711 60.8222 72.9911 60.1022 73.0611C59.3822 73.1311 57.2422 74.4411 57.2422 74.4411V78.6111L62.7122 75.3811V75.3711Z" fill="white"/>
<path d="M80.9105 64.9111L76.7305 67.3211C76.7305 67.3211 76.8905 64.9811 76.9905 64.1211C77.0905 63.2611 77.4705 62.8511 78.4005 62.3311C79.1105 61.9311 80.9005 60.8411 80.9005 60.8411V64.9111H80.9105Z" fill="white"/>
<path d="M68.5703 70.071C68.5703 70.861 69.0503 71.231 69.6503 70.881C70.2403 70.541 70.7303 69.621 70.7303 68.821C70.7303 68.021 70.2503 67.661 69.6503 68.011C69.0603 68.351 68.5703 69.271 68.5703 70.071Z" fill="white"/>
<path d="M50.4405 76.9309C50.2105 73.5209 48.0405 70.0209 45.4705 68.9909C43.3505 68.1409 41.6305 69.3409 41.0605 71.6009C42.2405 72.2709 49.8605 76.4409 50.4405 76.9309V76.9309Z" fill="#282027"/>
<path d="M42.5817 76.931C42.1517 75.941 41.8817 74.861 41.8517 73.791C41.7817 70.921 43.4717 69.291 45.6417 70.171C47.8017 71.041 49.6217 74.061 49.7017 76.931H42.5817V76.931Z" fill="#282027"/>
<path d="M44.011 72.701C43.961 70.731 45.391 74.111 48.211 75.591C49.431 76.231 50.661 77.061 51.651 77.621C51.381 78.621 50.841 79.221 50.101 79.531C49.991 79.581 47.621 80.621 47.621 80.621L46.281 79.721L47.751 79.341C45.721 78.311 44.081 75.441 44.011 72.711V72.701Z" fill="#282027"/>
<path d="M41.491 73.7911C41.561 76.6611 43.381 79.7011 45.551 80.5711C47.721 81.4411 49.421 79.8211 49.341 76.9511C49.271 74.0811 47.451 71.0411 45.281 70.1711C43.111 69.3011 41.411 70.9211 41.491 73.7911Z" fill="#3D333B"/>
<path d="M42.9118 74.3611C42.9618 76.2011 44.1218 78.1411 45.5118 78.7011C46.9018 79.2611 47.9918 78.2211 47.9418 76.3811C47.8918 74.5411 46.7318 72.6011 45.3418 72.0411C43.9518 71.4811 42.8618 72.5211 42.9118 74.3611Z" fill="#A8CFF4"/>
<path d="M43.5516 74.6211C43.5916 75.9911 44.4516 77.4311 45.4816 77.8511C46.5116 78.2711 47.3216 77.4911 47.2916 76.1311C47.2516 74.7611 46.3916 73.3211 45.3616 72.9011C44.3316 72.4811 43.5216 73.2611 43.5516 74.6211Z" fill="white"/>
<path d="M14.8416 56.3908C14.6116 52.9808 12.4416 49.4808 9.87156 48.4508C7.75156 47.6008 5.93156 48.7608 5.35156 51.0208C6.53156 51.6908 14.2616 55.9008 14.8416 56.3908V56.3908Z" fill="#282027"/>
<path d="M6.97233 56.391C6.54233 55.401 6.27233 54.3209 6.24233 53.2509C6.17233 50.3809 7.86233 48.7509 10.0323 49.6309C12.1923 50.5009 14.0123 53.521 14.0923 56.391H6.97233V56.391Z" fill="#282027"/>
<path d="M8.40166 52.161C8.35166 50.191 9.78166 53.571 12.6017 55.051C13.8217 55.691 15.0517 56.521 16.0417 57.081C15.7717 58.081 15.2317 58.681 14.4917 58.991C14.3817 59.041 12.0117 60.081 12.0117 60.081L10.6717 59.181L12.1417 58.801C10.1117 57.771 8.47166 54.901 8.40166 52.171V52.161Z" fill="#282027"/>
<path d="M5.89138 53.2608C5.96138 56.1308 7.78138 59.1708 9.95138 60.0408C12.1214 60.9108 13.8214 59.2908 13.7414 56.4208C13.6714 53.5508 11.8514 50.5108 9.68138 49.6408C7.51138 48.7708 5.81138 50.3908 5.89138 53.2608Z" fill="#3D333B"/>
<path d="M7.30243 53.8207C7.35243 55.6607 8.51243 57.6007 9.90243 58.1607C11.2924 58.7207 12.3824 57.6807 12.3324 55.8407C12.2824 54.0007 11.1224 52.0607 9.73243 51.5007C8.34243 50.9407 7.25243 51.9807 7.30243 53.8207Z" fill="#A8CFF4"/>
<path d="M7.94221 54.0811C7.98221 55.4511 8.84221 56.8911 9.87221 57.3111C10.9022 57.7311 11.7122 56.9511 11.6822 55.5911C11.6422 54.2211 10.7822 52.7811 9.75221 52.3611C8.72221 51.9411 7.91221 52.7211 7.94221 54.0811Z" fill="white"/>
<path d="M57.2414 79.6307L80.9114 65.9007C80.9114 65.9007 81.9114 65.6607 81.9214 67.9007C81.9214 70.0707 81.2414 70.2007 80.6014 70.5607C76.3414 73.0307 59.1814 83.0007 58.2214 83.4707C57.8514 83.6507 57.4114 83.6907 56.6914 83.4007V80.8107C56.6914 80.0007 57.2514 79.6207 57.2514 79.6207L57.2414 79.6307Z" fill="#8FBEE5"/>
<path d="M51.0216 80.1907C50.1116 79.5307 50.3116 75.8207 50.3116 75.8207L57.2516 79.6207C57.2516 79.6207 56.6916 80.0007 56.6916 80.8107V83.4007C56.4816 83.3207 56.2616 83.2207 56.0016 83.0807C54.9016 82.5107 51.3616 80.4407 51.0216 80.1907V80.1907Z" fill="#3D333B"/>
<path d="M75.8611 69.9307V72.4407L63.6211 79.5807V76.9807L75.8611 69.9307Z" fill="#DEEFFF"/>
<path d="M40.8823 62.571L44.9923 60.201C45.5323 59.891 45.9723 59.041 45.9723 58.321V56.291C45.9723 55.571 45.5323 55.231 44.9923 55.551L40.8823 57.921C40.3423 58.231 39.9023 59.081 39.9023 59.801V61.831C39.9023 62.551 40.3423 62.891 40.8823 62.571Z" fill="#DEEFFF"/>
<path d="M46.3228 55.8612C46.3228 55.8612 45.7628 55.4012 45.4928 55.4212C45.2228 55.4412 45.8328 56.3012 45.8328 56.3012L46.3228 55.8612V55.8612Z" fill="#DEEFFF"/>
<path d="M41.0625 63.001C41.0625 63.001 40.3325 62.891 40.1425 62.541C39.9525 62.191 40.0825 61.811 40.0825 61.811C40.0825 61.811 41.0825 62.271 41.0625 63.001V63.001Z" fill="#DEEFFF"/>
<path d="M41.5034 62.8908L45.6134 60.5208C46.1534 60.2108 46.5934 59.3608 46.5934 58.6408V56.6108C46.5934 55.8908 46.1534 55.5508 45.6134 55.8708L41.5034 58.2408C40.9634 58.5508 40.5234 59.4008 40.5234 60.1208V62.1508C40.5234 62.8708 40.9634 63.2108 41.5034 62.8908Z" fill="white"/>
<path d="M44.8305 64.3507C45.2605 64.3507 45.7205 64.1307 46.1305 63.8907L48.9505 62.2607C49.1505 62.1507 49.2205 61.8907 49.1005 61.7007C48.9905 61.5007 48.7305 61.4407 48.5405 61.5507L45.7205 63.1807C45.0705 63.5507 44.8205 63.5607 44.7205 63.5107C44.5405 63.4007 44.2505 62.8607 44.3305 60.3907C44.3305 60.1607 44.1605 59.9707 43.9305 59.9607H43.9205C43.7005 59.9607 43.5105 60.1407 43.5105 60.3607C43.4405 62.7507 43.6605 63.8307 44.3005 64.2107C44.4705 64.3107 44.6505 64.3507 44.8305 64.3507V64.3507Z" fill="white"/>
<path d="M41.3012 70.6808C41.3012 70.6808 40.8812 72.2108 40.8312 72.7808C40.7912 73.2908 40.3112 73.8508 39.4812 73.5508C39.3912 73.5208 39.3012 73.4808 39.2012 73.4208C37.3812 72.4308 17.7312 60.9608 16.2912 60.1508C14.7012 59.2508 14.9312 56.5208 14.7012 55.3008C21.6012 59.2808 41.3012 70.6708 41.3012 70.6708V70.6808Z" fill="#332A31"/>
<path d="M5.66162 50.1607C5.66162 50.1607 5.24162 51.6907 5.19162 52.2607C5.15162 52.7707 4.67162 53.3307 3.84162 53.0307C3.75162 53.0007 3.66162 52.9607 3.56162 52.9007C1.74162 51.9107 0.921625 51.2807 -0.518375 50.4707C-2.10837 49.5807 -1.99837 46.8907 -1.99837 45.7207C4.90162 49.7007 5.66162 50.1607 5.66162 50.1607Z" fill="#332A31"/>
<path d="M33.6913 38.3208H32.8613V56.6408H33.6913V38.3208Z" fill="#3D343B"/>
<path d="M20.1913 30.1909H19.3613V48.5109H20.1913V30.1909Z" fill="#3D343B"/>
<path d="M18.5312 58.911H19.3613V44.281L18.5312 43.801V58.911Z" fill="#332A31"/>
<path d="M33.6914 67.8611H34.5214V53.0911L33.6914 52.6111V67.8611Z" fill="#332A31"/>
<path d="M8.36125 23.6807H7.53125V40.0007H8.36125V23.6807Z" fill="#3D343B"/>
<path d="M52.5005 72.4511C52.5005 72.4511 51.1205 70.6811 50.5205 70.3311C40.3305 64.3611 13.3605 48.5711 4.13055 43.1611C2.14055 42.0011 0.560547 42.0311 0.560547 42.0311L52.5105 72.4511H52.5005Z" fill="#332A31"/>
<path d="M37.412 32.751L28.582 27.681L37.262 22.881L37.412 32.751Z" fill="#3D333B"/>
<path d="M50.8122 24.9511L37.4122 32.7511L30.4922 22.6511L43.8922 14.8711L50.8122 24.9511Z" fill="#60585E"/>
<path d="M42.0616 20.671C44.0816 20.561 46.5116 23.251 48.0316 25.251C47.9616 25.311 47.8916 25.371 47.8116 25.411L38.9916 30.541C38.4316 30.871 37.7116 30.701 37.3516 30.171L33.1016 23.981C36.2816 22.481 40.2716 20.761 42.0616 20.661V20.671Z" fill="#779CC9"/>
<path d="M42.0607 20.671C40.2707 20.771 36.2807 22.491 33.1007 23.991L33.0807 23.961C32.6707 23.371 32.8607 22.551 33.4807 22.191L42.3007 17.061C42.8607 16.731 43.5807 16.901 43.9407 17.431L48.2007 23.641C48.5507 24.161 48.4607 24.841 48.0207 25.251C46.5007 23.251 44.0707 20.551 42.0507 20.671H42.0607Z" fill="#5D80B3"/>
<path d="M32.5022 53.4508L30.6022 52.3508C30.4022 52.2408 30.2422 52.3508 30.2422 52.6208C30.2422 52.8808 30.4022 53.2008 30.6022 53.3108L32.5022 54.4108C32.7022 54.5208 32.8622 54.4108 32.8622 54.1408C32.8622 53.8808 32.7022 53.5608 32.5022 53.4508Z" fill="#282027"/>
</g>
</g>
</svg>
