<svg width="130" height="130" viewBox="0 0 130 130" fill="none" xmlns="http://www.w3.org/2000/svg">
<mask id="mask0_501_1304" style="mask-type:alpha" maskUnits="userSpaceOnUse" x="0" y="0" width="130" height="130">
<circle cx="65" cy="65" r="65" fill="#D9D9D9"/>
</mask>
<g mask="url(#mask0_501_1304)">
<circle cx="65" cy="65" r="65" fill="#F59E0B"/>
<path d="M8.11328 67.627C8.11328 67.627 7.74928 69.161 6.86528 69.369C5.98128 69.577 4.86328 68.771 4.86328 68.771C4.86328 68.771 5.79928 65.04 5.96828 65.04C6.13728 65.04 9.11428 65.014 8.11328 67.627Z" fill="#282027"/>
<path d="M54.5762 94.316C54.5762 94.316 54.2122 95.85 53.3282 96.058C52.4442 96.266 51.3262 95.629 51.3262 95.629C51.3262 95.629 52.2622 91.729 52.4312 91.729C52.6002 91.729 55.5772 91.703 54.5762 94.316Z" fill="#282027"/>
<path d="M95.0845 56.4733L100.428 53.3923C101.13 52.9893 101.702 51.8843 101.702 50.9483V48.3093C101.702 47.3733 101.13 46.9313 100.428 47.3473L95.0845 50.4283C94.3825 50.8313 93.8105 51.9363 93.8105 52.8723V55.5113C93.8105 56.4473 94.3825 56.8893 95.0845 56.4733Z" fill="#DEEFFF"/>
<path d="M102.157 47.7498C102.157 47.7498 101.429 47.1518 101.078 47.1778C100.727 47.2038 101.52 48.3218 101.52 48.3218L102.157 47.7498Z" fill="#DEEFFF"/>
<path d="M95.3187 57.0319C95.3187 57.0319 94.3697 56.8889 94.1227 56.4339C93.8757 55.9789 94.0447 55.4849 94.0447 55.4849C94.0447 55.4849 95.3447 56.0829 95.3187 57.0319Z" fill="#DEEFFF"/>
<path d="M95.8912 56.8884L101.234 53.8074C101.936 53.4044 102.508 52.2994 102.508 51.3634V48.7244C102.508 47.7884 101.936 47.3464 101.234 47.7624L95.8912 50.8434C95.1892 51.2464 94.6172 52.3514 94.6172 53.2874V55.9264C94.6172 56.8624 95.1892 57.3044 95.8912 56.8884Z" fill="white"/>
<path d="M88.8177 66.288C88.8177 66.288 88.9217 66.288 88.9737 66.249C89.1947 66.145 94.3947 63.519 96.5917 61.894C98.2947 60.633 98.2427 58.553 98.1907 56.356C98.1907 55.94 98.1647 55.511 98.1647 55.082C98.1647 54.887 98.0087 54.718 97.8007 54.718C97.5927 54.718 97.4367 54.874 97.4367 55.082C97.4367 55.524 97.4367 55.953 97.4627 56.382C97.5147 58.566 97.5537 60.282 96.1627 61.322C94.0307 62.908 88.7137 65.573 88.6617 65.599C88.4797 65.69 88.4147 65.911 88.5057 66.08C88.5707 66.21 88.7007 66.275 88.8307 66.275L88.8177 66.288Z" fill="white"/>
<path d="M29.4998 5.31796L83.8528 36.505C86.0628 37.766 87.7008 39.833 88.4548 42.264L94.4478 61.049L103.886 73.672C104.731 74.972 105.186 76.493 105.186 78.04V85.151C105.186 85.996 104.952 86.841 104.783 87.062L28.1738 42.979V6.08496C28.1738 5.40896 28.9148 4.97996 29.4998 5.31796V5.31796Z" fill="#4F464D"/>
<path d="M28.7195 5.26562L-2.10352 22.9716C-2.10352 22.9716 -1.14152 23.4786 -1.03752 23.4786C-0.933515 23.4786 29.3955 5.57763 29.3955 5.57763L28.7195 5.26562V5.26562Z" fill="#60585E"/>
<path d="M73.713 103.884L39.627 51.156L103.678 74.764L104.783 87.049C104.549 87.426 104.159 87.751 103.509 88.245C103.509 88.245 83.723 99.958 76.937 103.52C75.338 104.352 74.259 104.027 73.726 103.871L73.713 103.884Z" fill="#4F464D"/>
<path d="M86.4914 38.6894C86.4914 38.6894 85.7504 37.6494 83.8394 36.4924C80.6284 38.3384 53.0684 54.1724 53.0684 54.1724L55.7204 56.4214L86.4914 38.6764V38.6894Z" fill="#60585E"/>
<path d="M29.4995 5.31812L-1.27148 22.9981L53.0815 54.1851L83.8525 36.4921L29.4995 5.31812Z" fill="#4F464D"/>
<path d="M103.886 73.6588C103.886 73.6588 104.471 74.6988 104.64 75.1278C104.926 75.8948 105.121 76.9608 105.121 76.9608L74.1288 94.8097L72.4258 90.4678L103.899 73.6458L103.886 73.6588Z" fill="#756F74"/>
<path d="M-1.27166 22.9981L53.0813 54.1851C55.2913 55.4461 56.9293 57.5131 57.6833 59.9441L63.6763 78.7291L73.1143 91.3521C73.9593 92.6521 74.4143 94.1731 74.4143 95.7201V104.053C72.3993 103.598 70.5403 102.727 69.3573 102.064C53.6273 93.2631 12.2873 69.3041 0.548344 62.4921C-1.40166 61.3611 -2.59766 61.6991 -2.59766 59.4371V23.7651C-2.59766 23.0891 -1.85666 22.6601 -1.27166 22.9981Z" fill="#3D343B"/>
<path d="M88.4018 52.3651C89.0258 54.3281 92.5748 64.0131 92.5748 64.0131C92.5748 64.0131 93.0947 63.7921 93.8617 63.4541C93.7057 64.3381 93.1728 65.144 92.3538 65.625L68.9927 79.301C67.2507 80.315 65.0148 79.47 64.4038 77.546L59.5938 62.648C67.0818 58.41 78.7167 51.819 81.5247 50.207C85.7628 47.789 87.7778 50.389 88.4018 52.352V52.3651Z" fill="#779CC9"/>
<path d="M60.7122 58.0074L84.1772 44.5524C85.9192 43.5514 88.1422 44.4094 88.7532 46.3204L93.7712 61.9464C93.9272 62.4534 93.9532 62.9604 93.8622 63.4544C93.0952 63.7924 92.5752 64.0134 92.5752 64.0134C92.5752 64.0134 89.0262 54.3284 88.4022 52.3654C87.7782 50.4024 85.7632 47.8024 81.5252 50.2204C78.7172 51.8324 67.0822 58.4104 59.5942 62.6614L59.2822 61.7124C58.8272 60.2954 59.4252 58.7484 60.7122 58.0074V58.0074Z" fill="#5D80B3"/>
<path d="M94.4475 61.0359L103.885 73.6589L73.2055 91.4689L63.6895 78.7159L94.4475 61.0359Z" fill="#60585E"/>
<path d="M56.2535 61.803L61.5445 78.677L4.72152 45.761C3.60352 45.111 2.65452 44.214 1.93952 43.122L-0.478484 39.417C-0.998484 38.624 -1.27148 37.701 -1.27148 36.752V26.04L52.2625 56.837C54.1605 57.929 55.5775 59.697 56.2405 61.79L56.2535 61.803Z" fill="#5D80B3"/>
<path d="M98.8289 82.824C98.8289 82.824 99.5439 87.699 95.9819 89.714C91.7959 92.08 87.8439 94.667 85.3479 95.759C81.6299 97.371 79.7969 93.744 79.7969 93.744L98.8419 82.824H98.8289Z" fill="#282027"/>
<path d="M93.8225 63.2849L95.4865 65.4039L87.4655 70.0839L85.8535 67.9779L93.8225 63.2849Z" fill="#4F464D"/>
<path d="M75.1428 74.0359L76.7938 76.1679L68.7858 80.8349L67.1738 78.7289L75.1428 74.0359Z" fill="#4F464D"/>
<path d="M81.5251 97.982C81.5251 97.982 79.0681 94.888 78.1321 94.979C77.1961 95.07 74.4141 96.773 74.4141 96.773V102.194L81.5251 97.995V97.982Z" fill="white"/>
<path d="M105.186 84.384L99.752 87.517C99.752 87.517 99.9599 84.475 100.09 83.357C100.22 82.239 100.714 81.706 101.923 81.03C102.846 80.51 105.173 79.093 105.173 79.093V84.384H105.186Z" fill="white"/>
<path d="M89.1426 91.0919C89.1426 92.1189 89.7666 92.5999 90.5466 92.1449C91.3136 91.7029 91.9506 90.5069 91.9506 89.4669C91.9506 88.4269 91.3266 87.9589 90.5466 88.4139C89.7796 88.8559 89.1426 90.0519 89.1426 91.0919Z" fill="white"/>
<path d="M65.5749 100.01C65.2759 95.5768 62.4549 91.0268 59.1139 89.6878C56.3579 88.5828 54.1219 90.1428 53.3809 93.0808C54.9149 93.9518 64.8209 99.3728 65.5749 100.01V100.01Z" fill="#282027"/>
<path d="M55.356 100.01C54.797 98.7227 54.446 97.3187 54.407 95.9277C54.316 92.1967 56.513 90.0777 59.334 91.2217C62.142 92.3527 64.508 96.2787 64.612 100.01H55.356V100.01Z" fill="#282027"/>
<path d="M57.2145 94.5108C57.1495 91.9498 59.0085 96.3438 62.6745 98.2678C64.2605 99.0998 65.8595 100.179 67.1465 100.907C66.7955 102.207 66.0935 102.987 65.1315 103.39C64.9885 103.455 61.9075 104.807 61.9075 104.807L60.1655 103.637L62.0765 103.143C59.4375 101.804 57.3055 98.0728 57.2145 94.5238V94.5108Z" fill="#282027"/>
<path d="M53.9391 95.9281C54.0301 99.6591 56.3961 103.611 59.2171 104.742C62.0381 105.873 64.2481 103.767 64.1441 100.036C64.0531 96.3051 61.6871 92.3531 58.8661 91.2221C56.0451 90.0911 53.8351 92.1971 53.9391 95.9281Z" fill="#3D333B"/>
<path d="M55.7854 96.6694C55.8504 99.0614 57.3584 101.583 59.1654 102.311C60.9724 103.039 62.3894 101.687 62.3244 99.2954C62.2594 96.9034 60.7514 94.3814 58.9444 93.6534C57.1374 92.9254 55.7204 94.2774 55.7854 96.6694Z" fill="#A8CFF4"/>
<path d="M56.6182 97.0073C56.6702 98.7883 57.7882 100.66 59.1272 101.206C60.4662 101.752 61.5192 100.738 61.4802 98.9703C61.4282 97.1893 60.3102 95.3173 58.9712 94.7713C57.6322 94.2253 56.5792 95.2393 56.6182 97.0073Z" fill="white"/>
<path d="M19.294 73.3076C18.995 68.8746 16.174 64.3246 12.833 62.9856C10.077 61.8806 7.71103 63.3886 6.95703 66.3266C8.49103 67.1976 18.54 72.6706 19.294 73.3076V73.3076Z" fill="#282027"/>
<path d="M9.06306 73.3081C8.50406 72.0211 8.15306 70.6171 8.11406 69.2261C8.02306 65.4951 10.2201 63.3761 13.0411 64.5201C15.8491 65.6511 18.2151 69.5771 18.3191 73.3081H9.06306V73.3081Z" fill="#282027"/>
<path d="M10.9235 67.8091C10.8585 65.2481 12.7175 69.6421 16.3835 71.5661C17.9695 72.3981 19.5685 73.4771 20.8555 74.2051C20.5045 75.5051 19.8025 76.2851 18.8405 76.6881C18.6975 76.7531 15.6165 78.1051 15.6165 78.1051L13.8745 76.9351L15.7855 76.4411C13.1465 75.1021 11.0145 71.3711 10.9235 67.8221V67.8091Z" fill="#282027"/>
<path d="M7.65978 69.2391C7.75078 72.9701 10.1168 76.9221 12.9378 78.0531C15.7588 79.1841 17.9688 77.0781 17.8648 73.3471C17.7738 69.6161 15.4078 65.6641 12.5868 64.5331C9.76578 63.4021 7.55578 65.5081 7.65978 69.2391Z" fill="#3D333B"/>
<path d="M9.49238 69.967C9.55738 72.359 11.0654 74.881 12.8724 75.609C14.6794 76.337 16.0964 74.985 16.0314 72.593C15.9664 70.201 14.4584 67.679 12.6514 66.951C10.8444 66.223 9.42738 67.575 9.49238 69.967Z" fill="#A8CFF4"/>
<path d="M10.3253 70.3051C10.3773 72.0861 11.4953 73.9581 12.8343 74.5041C14.1733 75.0501 15.2263 74.0361 15.1873 72.2681C15.1353 70.4871 14.0173 68.6151 12.6783 68.0691C11.3393 67.5231 10.2863 68.5371 10.3253 70.3051Z" fill="white"/>
<path d="M74.4142 103.52L105.185 85.6711C105.185 85.6711 106.485 85.3591 106.498 88.2711C106.498 91.0921 105.614 91.2611 104.782 91.7291C99.2442 94.9401 76.9362 107.901 75.6882 108.512C75.2072 108.746 74.6352 108.798 73.6992 108.421V105.054C73.6992 104.001 74.4272 103.507 74.4272 103.507L74.4142 103.52Z" fill="#8FBEE5"/>
<path d="M66.3281 104.248C65.1451 103.39 65.4051 98.5667 65.4051 98.5667L74.4271 103.507C74.4271 103.507 73.6991 104.001 73.6991 105.054V108.421C73.4261 108.317 73.1401 108.187 72.8021 108.005C71.3721 107.264 66.7701 104.573 66.3281 104.248V104.248Z" fill="#3D333B"/>
<path d="M98.621 90.9099V94.1729L82.709 103.455V100.075L98.621 90.9099Z" fill="#DEEFFF"/>
<path d="M53.147 81.3417L58.49 78.2607C59.192 77.8577 59.764 76.7527 59.764 75.8167V73.1777C59.764 72.2417 59.192 71.7997 58.49 72.2157L53.147 75.2967C52.445 75.6997 51.873 76.8047 51.873 77.7407V80.3797C51.873 81.3157 52.445 81.7577 53.147 81.3417Z" fill="#DEEFFF"/>
<path d="M60.2194 72.619C60.2194 72.619 59.4914 72.021 59.1404 72.047C58.7894 72.073 59.5824 73.191 59.5824 73.191L60.2194 72.619V72.619Z" fill="#DEEFFF"/>
<path d="M53.3812 81.901C53.3812 81.901 52.4322 81.758 52.1852 81.303C51.9382 80.848 52.1072 80.354 52.1072 80.354C52.1072 80.354 53.4072 80.952 53.3812 81.901V81.901Z" fill="#DEEFFF"/>
<path d="M53.9537 81.7575L59.2967 78.6765C59.9987 78.2735 60.5707 77.1685 60.5707 76.2325V73.5935C60.5707 72.6575 59.9987 72.2155 59.2967 72.6315L53.9537 75.7125C53.2517 76.1155 52.6797 77.2205 52.6797 78.1565V80.7955C52.6797 81.7315 53.2517 82.1735 53.9537 81.7575Z" fill="white"/>
<path d="M58.281 83.656C58.84 83.656 59.438 83.37 59.971 83.058L63.637 80.939C63.897 80.796 63.988 80.458 63.832 80.211C63.689 79.951 63.351 79.873 63.104 80.016L59.438 82.135C58.593 82.616 58.268 82.629 58.138 82.564C57.904 82.421 57.527 81.719 57.631 78.508C57.631 78.209 57.41 77.962 57.111 77.949H57.098C56.812 77.949 56.565 78.183 56.565 78.469C56.474 81.576 56.76 82.98 57.592 83.474C57.813 83.604 58.047 83.656 58.281 83.656V83.656Z" fill="white"/>
<path d="M53.6933 91.8846C53.6933 91.8846 53.1473 93.8736 53.0823 94.6146C53.0303 95.2776 52.4063 96.0056 51.3273 95.6156C51.2103 95.5766 51.0933 95.5246 50.9633 95.4466C48.5973 94.1596 23.0523 79.2486 21.1803 78.1956C19.1133 77.0256 19.4123 73.4766 19.1133 71.8906C28.0833 77.0646 53.6933 91.8716 53.6933 91.8716V91.8846Z" fill="#332A31"/>
<path d="M7.3605 65.2085C7.3605 65.2085 6.8145 67.1975 6.7495 67.9385C6.6975 68.6015 6.0735 69.3295 4.9945 68.9395C4.8775 68.9005 4.7605 68.8485 4.6305 68.7705C2.2645 67.4835 1.1985 66.6645 -0.673497 65.6115C-2.7405 64.4545 -2.5975 60.9575 -2.5975 59.4365C6.3725 64.6105 7.3605 65.2085 7.3605 65.2085Z" fill="#332A31"/>
<path d="M43.7997 49.8167H42.7207V73.6327H43.7997V49.8167Z" fill="#3D343B"/>
<path d="M26.2489 39.2478H25.1699V63.0638H26.2489V39.2478Z" fill="#3D343B"/>
<path d="M24.0918 76.5844H25.1708V57.5654L24.0918 56.9414V76.5844Z" fill="#332A31"/>
<path d="M43.7988 88.219H44.8778V69.018L43.7988 68.394V88.219Z" fill="#332A31"/>
<path d="M10.87 30.7849H9.79102V52.0009H10.87V30.7849Z" fill="#3D343B"/>
<path d="M68.2525 94.1865C68.2525 94.1865 66.4585 91.8855 65.6785 91.4305C52.4315 83.6695 17.3705 63.1425 5.37147 56.1095C2.78447 54.6015 0.730469 54.6405 0.730469 54.6405L68.2655 94.1865H68.2525Z" fill="#332A31"/>
<path d="M48.6353 42.5761L37.1562 35.9851L48.4402 29.7451L48.6353 42.5761Z" fill="#3D333B"/>
<path d="M66.0547 32.436L48.6347 42.576L39.6387 29.446L57.0587 19.332L66.0547 32.436Z" fill="#60585E"/>
<path d="M54.6793 26.8721C57.3053 26.7291 60.4642 30.2261 62.4402 32.8261C62.3492 32.9041 62.2583 32.9821 62.1543 33.0341L50.6883 39.7031C49.9603 40.1321 49.0242 39.9111 48.5562 39.2221L43.0312 31.1751C47.1652 29.2251 52.3523 26.9891 54.6793 26.8591V26.8721Z" fill="#779CC9"/>
<path d="M54.6793 26.8721C52.3523 27.0021 47.1653 29.2381 43.0313 31.1881L43.0053 31.1491C42.4723 30.3821 42.7193 29.3161 43.5253 28.8481L54.9913 22.1791C55.7193 21.7501 56.6553 21.9711 57.1233 22.6601L62.6613 30.7331C63.1163 31.4091 62.9993 32.2931 62.4273 32.8261C60.4513 30.2261 57.2923 26.7161 54.6663 26.8721H54.6793Z" fill="#5D80B3"/>
<path d="M42.2525 69.4861L39.7824 68.0561C39.5224 67.9131 39.3145 68.0561 39.3145 68.4071C39.3145 68.7451 39.5224 69.1611 39.7824 69.3041L42.2525 70.7341C42.5125 70.8771 42.7205 70.7341 42.7205 70.3831C42.7205 70.0451 42.5125 69.6291 42.2525 69.4861Z" fill="#282027"/>
</g>
</svg>
