<svg width="100" height="100" viewBox="0 0 100 100" fill="none" xmlns="http://www.w3.org/2000/svg">
<g style="mix-blend-mode:luminosity" opacity="0.4">
<mask id="mask0_501_421" style="mask-type:alpha" maskUnits="userSpaceOnUse" x="0" y="0" width="100" height="100">
<circle cx="50" cy="50" r="50" fill="#D9D9D9"/>
</mask>
<g mask="url(#mask0_501_421)">
<circle cx="50" cy="50" r="50" fill="#F59E0B"/>
<path d="M30.0077 39.1633C30.0077 39.1633 27.3838 39.3055 26.9572 41.0634C26.5307 42.8213 30.3309 42.7438 30.3309 42.7438L30.0077 39.1633Z" fill="#FFC85A"/>
<path d="M30.3301 51.0809C30.3301 54.8811 32.6438 59.3017 35.5004 60.9432C38.357 62.5848 40.6578 60.8398 40.6578 57.0397C40.6578 53.2395 38.3441 48.8189 35.4875 47.1773C32.6309 45.5357 30.3301 47.2807 30.3301 51.0809V51.0809Z" fill="#282027"/>
<path d="M38.7571 61.2792L36.9604 62.2616L30.6914 47.7072L32.3071 46.8024L38.7571 61.2792Z" fill="#282027"/>
<path d="M28.5586 52.0504C28.5586 55.8505 30.8723 60.2712 33.7289 61.9127C36.5855 63.5543 38.8863 61.8093 38.8863 58.0091C38.8863 54.209 36.5726 49.7884 33.716 48.1468C30.8594 46.5052 28.5586 48.2502 28.5586 52.0504V52.0504Z" fill="#3D333B"/>
<path d="M30.0059 52.8903C30.0059 55.6177 31.6733 58.7974 33.7285 59.9737C35.7837 61.1499 37.4382 59.8961 37.4382 57.1688C37.4382 54.4414 35.7707 51.2617 33.7155 50.0854C31.6604 48.9092 30.0059 50.163 30.0059 52.8903V52.8903Z" fill="white"/>
<path d="M31.6348 53.9373C31.6348 55.3333 32.4879 56.949 33.5349 57.5565C34.5818 58.1641 35.4349 57.5178 35.4349 56.1218C35.4349 54.7258 34.5818 53.1101 33.5349 52.5026C32.4879 51.8951 31.6348 52.5413 31.6348 53.9373Z" fill="#3D333B"/>
<path d="M31.957 54.1183C31.957 55.2817 32.6679 56.6259 33.534 57.13C34.4 57.6341 35.1109 57.0913 35.1109 55.9409C35.1109 54.7776 34.4 53.4333 33.534 52.9292C32.655 52.4251 31.957 52.9679 31.957 54.1183Z" fill="#7C6B7C"/>
<path d="M52.8978 71.0251C43.7981 67.7678 36.3916 61.1111 31.79 55.2428C27.5762 49.8656 25.2754 47.1383 30.0192 43.6354C35.629 39.5121 47.9472 52.6835 52.6522 54.9713C57.3701 57.2463 64.6603 60.7233 64.6603 60.7233L52.8978 71.0251Z" fill="#DBCCDB"/>
<path d="M58.2102 35.1821C56.2067 35.9706 55.3665 37.0563 53.363 41.4511C52.3031 43.8036 53.2467 50.008 54.242 54.5449C55.2373 59.0818 52.8848 71.0253 52.8848 71.0253C52.8848 71.0253 57.9129 72.3308 62.8893 66.9278C67.8657 61.5248 68.2664 54.4544 66.9222 47.3452C65.9527 42.2525 65.6554 36.6686 62.5015 34.846C61.6226 34.3419 59.5286 34.6521 58.1973 35.1692L58.2102 35.1821Z" fill="#DBCCDB"/>
<path d="M51.1801 55.036C50.2494 54.5319 50.0555 55.204 49.8229 55.9796C49.5126 56.9878 48.8922 58.4096 47.1472 59.3144C44.058 60.9301 41.1884 59.5212 40.2449 60.426C39.3013 61.3308 41.434 64.0969 50.8569 67.8454C52.24 68.4012 54.153 68.5822 54.1401 68.1169L54.4891 56.7422C54.4891 56.7422 53.274 56.1476 51.1801 55.036V55.036Z" fill="#7C6B7C"/>
<path d="M27.3828 47.2676C27.3828 47.2676 31.183 56.7035 39.3391 59.043C42.8679 60.0512 46.6164 57.9702 47.7409 56.7035C48.8654 55.4367 48.1416 54.2863 48.2062 51.9726C48.2579 49.6589 50.3778 45.5097 48.8654 44.3981C47.3531 43.2865 42.5318 36.2678 36.3921 35.3372C32.5273 34.7555 30.0584 35.9835 29.1407 39.189C27.4087 45.2512 27.3828 47.2806 27.3828 47.2806V47.2676Z" fill="#AFA0AE"/>
<path d="M33.5352 51.3265C33.5352 51.3265 37.2319 54.8681 41.5621 55.0232C45.0132 55.1525 48.2318 53.0844 48.2318 53.0844C48.2318 53.0844 48.2318 51.1196 48.5161 50.0339C48.8005 48.9481 48.9556 48.3535 48.9556 48.3535C48.9556 48.3535 44.5608 50.0468 40.6702 49.1679C37.2836 48.3923 33.5352 45.9493 33.5352 45.9493V51.3135V51.3265Z" fill="#938392"/>
<path d="M36.4062 37.8964C36.4062 37.8964 32.5931 39.3183 31.6366 45.0961C30.8998 49.5684 30.693 52.257 30.693 52.257C30.693 52.257 27.1514 50.5637 27.384 47.2418C27.6038 43.9199 28.5603 37.6767 32.606 36.0093C35.2687 35.1433 36.4191 37.8835 36.4191 37.8835L36.4062 37.8964Z" fill="#938392"/>
<path d="M56.0781 36.6686C56.0781 36.6686 58.9993 39.9776 60.8607 49.4909C62.89 59.8703 61.3389 63.6059 61.3389 63.6059L65.2037 62.4813C65.2037 62.4813 66.5997 60.0642 65.9146 50.0338C65.2037 39.6415 63.1356 35.1304 62.5022 34.846C60.7702 34.0705 58.4177 34.2773 56.0781 36.6686V36.6686Z" fill="#4F464D"/>
<path d="M53.985 70.2756C53.985 70.2756 58.4315 70.0042 59.6465 68.4789C60.8615 66.9537 61.5854 66.5659 61.5854 66.5659L63.6793 67.1605L62.4902 69.0477C62.4902 69.0477 58.2893 71.1546 56.079 71.3355C53.8816 71.5036 52.7441 71.3355 52.7441 71.3355C52.7441 71.3355 53.5197 71.3614 53.985 70.2756V70.2756Z" fill="#7C6B7C"/>
<path d="M62.2832 69.1639C62.2832 72.9641 64.5969 77.3847 67.4535 79.0263C70.3101 80.6678 72.6109 78.9229 72.6109 75.1227C72.6109 71.3225 70.2972 66.9019 67.4406 65.2603C64.584 63.6187 62.2832 65.3637 62.2832 69.1639Z" fill="#282027"/>
<path d="M70.7102 79.3624L68.9264 80.3447L62.6445 65.7903L64.2603 64.8855L70.7102 79.3624Z" fill="#282027"/>
<path d="M60.5117 70.1334C60.5117 73.9336 62.8254 78.3542 65.682 79.9957C68.5386 81.6373 70.8394 79.8923 70.8394 76.0922C70.8394 72.292 68.5257 67.8714 65.6691 66.2298C62.8125 64.5882 60.5117 66.3332 60.5117 70.1334Z" fill="#3D333B"/>
<path d="M61.9727 70.9733C61.9727 73.7007 63.6401 76.8804 65.6953 78.0567C67.7505 79.2329 69.405 77.9791 69.405 75.2518C69.405 72.5244 67.7376 69.3447 65.6824 68.1685C63.6272 66.9922 61.9727 68.246 61.9727 70.9733V70.9733Z" fill="white"/>
<path d="M63.6016 72.0205C63.6016 73.4164 64.4547 75.0322 65.5017 75.6397C66.5486 76.2472 67.4017 75.6009 67.4017 74.2049C67.4017 72.8089 66.5486 71.1932 65.5017 70.5857C64.4547 69.9782 63.6016 70.6245 63.6016 72.0205Z" fill="#3D333B"/>
<path d="M63.9121 72.2015C63.9121 73.3648 64.623 74.7091 65.4891 75.2132C66.368 75.7173 67.066 75.1744 67.066 74.0111C67.066 72.8478 66.3551 71.5035 65.4891 70.9994C64.6101 70.4953 63.9121 71.0382 63.9121 72.2015Z" fill="#7C6B7C"/>
<path d="M60.4339 62.9725C60.1496 63.3215 59.8652 63.6964 59.6196 64.1746C58.3917 66.54 58.0039 70.8831 58.0039 70.8831C58.0039 70.8831 62.864 72.124 65.6947 72.5117C66.7546 72.6539 68.086 72.46 69.3398 72.1757C68.6806 70.3014 67.7887 68.2592 66.6642 66.7598C64.7382 64.1876 61.9075 63.2828 60.421 62.9855L60.4339 62.9725Z" fill="#3D333B"/>
<path d="M70.8137 65.5964C68.2027 61.5119 64.2991 60.9431 64.2991 60.9431C64.2991 60.9431 62.1276 60.956 60.4473 62.9725C61.9208 63.2827 64.7645 64.1746 66.6904 66.7468C67.815 68.2462 68.6939 70.2755 69.366 72.1627C71.4729 71.6715 73.3601 70.883 73.3601 70.883C73.3601 70.883 72.6233 68.4142 70.8267 65.5964H70.8137Z" fill="#493E47"/>
<path d="M60.7953 43.3123C60.5498 39.6931 62.8764 39.5121 64.1431 41.0761C64.7765 41.8517 64.9833 43.2477 64.9833 43.2477C64.9833 43.2477 64.4146 41.4639 63.0703 42.1102C62.1913 42.5238 62.0104 43.6484 62.3723 45.2641C62.6179 46.3757 63.639 47.1512 63.639 47.1512C63.639 47.1512 61.0668 47.1512 60.7953 43.3252V43.3123Z" fill="#3D333B"/>
<path d="M64.6859 42.5628C65.358 43.7261 65.4356 45.484 64.8539 46.4922C64.2723 47.5004 63.264 47.3711 62.5919 46.2207C61.9198 45.0574 61.8422 43.2995 62.4239 42.2913C63.0055 41.2831 64.0137 41.4124 64.6859 42.5628Z" fill="#FFC85A"/>
<path d="M53.0787 40.1326C51.3984 45.2254 53.389 53.8598 53.9965 59.8703C54.423 64.097 52.51 69.6034 52.51 69.6034C52.51 69.6034 47.2363 68.272 42.7898 65.0018C38.3304 61.7316 32.4492 56.0184 32.4492 56.0184C32.4492 56.0184 34.918 59.8444 38.6665 63.231C42.415 66.6175 51.7215 72.5634 53.3631 71.1028C55.302 69.3578 55.3795 63.2697 55.1598 60.4131C54.5006 51.7787 53.4794 49.3099 53.557 44.9022C53.6345 40.4558 55.2373 38.1808 56.866 36.578C60.1233 33.3595 62.5275 34.846 62.5275 34.846C59.2185 32.3255 54.7332 35.1691 53.1046 40.1326H53.0787Z" fill="#AFA0AE"/>
<path d="M26.168 47.5264C26.168 47.5264 26.517 44.3079 30.0198 43.6357C33.5227 42.9636 36.4957 44.5147 38.1114 49.6333C40.2054 56.2771 38.0209 59.0432 38.0209 59.0432L36.4698 59.7671L26.168 47.5264V47.5264Z" fill="#493E47"/>
<path d="M36.4699 59.7539C36.4699 59.7539 38.8224 49.9433 32.9153 45.8587C27.0082 41.7742 26 48.2241 26 48.2241C26 48.2241 26.3619 51.4168 28.5593 54.0537C31.8554 57.9831 36.4699 59.7539 36.4699 59.7539V59.7539Z" fill="#3D333B"/>
<path d="M32.5918 39.3184C35.7069 41.6451 38.5118 40.4301 41.2391 41.6063C43.9794 42.7696 46.7326 45.9106 48.9429 44.9928C49.4858 44.7731 49.8994 44.5275 50.2096 44.2819C50.5845 42.3301 50.0545 40.3266 47.5986 38.5558C44.4447 36.2809 41.5881 36.3714 38.6152 34.7298C35.6294 33.0882 33.5225 32.5324 30.3169 34.7298C30.2781 34.7556 30.2393 34.7944 30.2005 34.8203C29.9291 36.2163 30.291 37.6122 32.5789 39.3184H32.5918Z" fill="#4F464D"/>
<path d="M51.1797 42.9763C51.1926 42.8987 51.2055 42.847 51.2055 42.847C51.2055 42.847 51.2055 42.8987 51.1797 42.9763Z" fill="#324B83"/>
<path d="M30.0065 39.1632C31.9713 41.3219 32.9536 42.4076 35.7844 42.5627C37.4518 42.6532 41.5493 43.39 43.4364 45.0445C45.3107 46.699 48.9169 47.8106 49.7054 45.9234C49.9252 45.3805 50.1061 44.8377 50.2095 44.2819C49.8993 44.5274 49.4857 44.7601 48.9428 44.9928C46.7196 45.9105 43.9664 42.7695 41.239 41.6062C38.4988 40.4429 35.6939 41.6579 32.5917 39.3184C30.3038 37.6122 29.9548 36.2162 30.2134 34.8202C28.6106 35.9835 28.3779 37.3924 30.0065 39.1632V39.1632Z" fill="#3D333B"/>
<path d="M46.086 38.8273C45.2717 38.8273 44.1601 39.215 42.7512 39.745C40.9933 40.4042 42.609 41.3349 45.1683 41.9682C46.9908 42.4077 48.3868 44.3078 49.0589 42.6016C49.5501 41.3349 48.2705 40.1974 47.8827 39.7579C47.3269 39.1375 46.8099 38.8402 46.086 38.8402V38.8273Z" fill="#7C6B7C"/>
<path d="M34.182 33.8506C32.6051 34.0833 30.6792 34.6908 31.1316 36.5521C31.7003 38.8788 34.9705 40.1455 35.1256 39.2278C35.2161 38.6849 34.3501 38.6332 33.2255 37.1596C32.0881 35.6861 32.6568 34.8847 34.7378 34.8201C35.578 34.7942 36.457 34.8201 36.1468 34.4194C35.9658 34.1867 35.0868 33.7214 34.182 33.8506V33.8506Z" fill="#7C6B7C"/>
<path d="M30.2402 52.6447C29.7878 52.2698 29.0898 51.6106 28.5598 50.7834C28.0299 49.969 27.6809 49.0384 27.4611 48.2887C27.2931 48.8187 27.1251 49.3486 26.957 49.8656C27.1121 50.3827 27.4094 51.1194 27.9265 51.895C28.5986 52.9032 29.4259 53.5624 29.9558 53.9243C30.0592 53.4978 30.1626 53.0712 30.2531 52.6447H30.2402Z" fill="#DDD3D5"/>
<path d="M66.3301 24.0789C66.3301 24.5313 66.6015 25.0483 66.9376 25.2422C67.2737 25.4361 67.5451 25.2422 67.5451 24.7769C67.5451 24.3245 67.2737 23.8075 66.9376 23.6136C66.6015 23.4197 66.3301 23.6136 66.3301 24.0789V24.0789Z" fill="#3D333B"/>
<path d="M61.9727 26.2376L66.5613 23.5878L67.2851 25.281L62.7999 27.892L61.9727 26.2376Z" fill="#3D333B"/>
<path d="M61.7793 26.7157C61.7793 27.1681 62.0507 27.6852 62.3868 27.8791C62.7229 28.073 62.9943 27.8791 62.9943 27.4137C62.9943 26.9613 62.7229 26.4443 62.3868 26.2504C62.0507 26.0565 61.7793 26.2504 61.7793 26.7157Z" fill="#7C6B7C"/>
<path d="M61.9473 26.8708C61.9473 27.1293 62.1024 27.4395 62.2963 27.5429C62.4901 27.6593 62.6453 27.5429 62.6453 27.2715C62.6453 27.013 62.4901 26.7028 62.2963 26.5994C62.1024 26.483 61.9473 26.5994 61.9473 26.8708Z" fill="#DDD3D5"/>
<path d="M49.0078 34.3676C49.2793 34.0703 62.0499 26.5992 62.0499 26.5992L62.5669 27.5428L49.5248 35.2078L49.0078 34.3676Z" fill="#DDD3D5"/>
<path d="M48.8379 34.2386C48.8379 34.691 49.1093 35.208 49.4454 35.4019C49.7815 35.5958 50.0529 35.4019 50.0529 34.9366C50.0529 34.4842 49.7815 33.9671 49.4454 33.7732C49.1093 33.5794 48.8379 33.7732 48.8379 34.2386Z" fill="#3D333B"/>
<path d="M44.4824 36.3972L49.0711 33.7345L49.7949 35.4407L45.3097 38.0517L44.4824 36.3972Z" fill="#3D333B"/>
<path d="M44.2891 36.8754C44.2891 37.3278 44.5605 37.8448 44.8966 38.0387C45.2326 38.2326 45.5041 38.0387 45.5041 37.5734C45.5041 37.121 45.2326 36.604 44.8966 36.4101C44.5605 36.2162 44.2891 36.4101 44.2891 36.8754Z" fill="#7C6B7C"/>
<path d="M61.5719 20.4208C61.5719 21.5842 60.8609 22.9284 59.9949 23.4325C59.116 23.9367 58.418 23.3938 58.418 22.2305C58.418 21.0671 59.1289 19.7229 59.9949 19.2187C60.8739 18.7146 61.5719 19.2575 61.5719 20.4208V20.4208Z" fill="#3D333B"/>
<path d="M56.9967 29.5465L56.6348 29.0683C56.6348 29.0683 58.4961 27.6464 59.7886 26.4702C61.0166 25.3457 61.4431 24.4667 61.1071 23.7687C60.6935 22.9285 60.1247 21.9074 60.1247 21.9074L60.6547 21.6101C60.6547 21.6101 61.2363 22.6442 61.6629 23.4973C62.1411 24.4667 61.6629 25.5783 60.2152 26.9097C58.9097 28.1118 57.0355 29.5336 57.0225 29.5465H56.9967Z" fill="#3D333B"/>
<path d="M49.7575 31.8731C49.499 31.8731 49.2793 31.8343 49.1113 31.7309C48.452 31.3302 47.4568 30.1927 46.7975 29.443C46.5778 29.1974 46.3322 28.9131 46.2676 28.8613L46.4227 28.6675V28.3055C46.6037 28.3055 46.6424 28.3572 47.2499 29.0423C47.8445 29.7274 48.8527 30.8648 49.4215 31.2138C49.9644 31.537 52.3298 30.6193 53.8421 29.8437L54.1135 30.3866C53.5577 30.671 51.1147 31.8731 49.7446 31.8731H49.7575Z" fill="#3D333B"/>
<path d="M61.1704 28.952C61.1704 29.65 60.7438 30.4514 60.2268 30.7487C59.7098 31.046 59.2832 30.7358 59.2832 30.0378C59.2832 29.3398 59.7098 28.5384 60.2268 28.2411C60.7438 27.9438 61.1704 28.254 61.1704 28.952Z" fill="#7C6B7C"/>
<path d="M60.2915 31.2269L59.5547 30.7616L60.8731 28.2152L61.4806 28.603L60.2915 31.2269Z" fill="#7C6B7C"/>
<path d="M61.8168 29.3657C61.8168 30.0637 61.3903 30.8651 60.8733 31.1624C60.3562 31.4596 59.9297 31.1365 59.9297 30.4514C59.9297 29.7534 60.3562 28.9521 60.8733 28.6548C61.3903 28.3575 61.8168 28.6806 61.8168 29.3657Z" fill="#FFC85A"/>
<path d="M56.8412 34.1223C57.5521 34.3937 59.3488 33.5794 60.7319 32.8685C60.7707 32.7004 60.7836 32.5324 60.7707 32.3385C60.6802 30.9684 59.2066 27.4009 59.2066 27.4009C59.2066 27.4009 57.048 26.0566 55.2643 27.3621C54.2819 28.0859 53.6744 29.2751 53.3125 30.2187C54.2819 31.5759 55.9881 33.812 56.8412 34.1223V34.1223Z" fill="#4F464D"/>
<path d="M55.7033 34.6653C56.8408 35.596 57.9007 35.0272 58.7538 34.6653C59.4777 34.3551 60.5117 33.8639 60.7314 32.8557C59.3484 33.5666 57.5517 34.381 56.8408 34.1095C56.0006 33.7993 54.2944 31.5631 53.3121 30.2059C53.0148 30.9686 52.8984 31.5631 52.8984 31.5631C52.8984 31.5631 54.5659 33.7347 55.7033 34.6524V34.6653Z" fill="#3D333B"/>
<path d="M47.5992 27.3621C47.5992 28.5254 46.8883 29.8697 46.0223 30.3738C45.1433 30.8779 44.4453 30.3351 44.4453 29.1717C44.4453 28.0084 45.1562 26.6641 46.0223 26.16C46.9012 25.6559 47.5992 26.1988 47.5992 27.3621V27.3621Z" fill="#3D333B"/>
<path d="M53.9848 32.7391C53.9848 33.4371 53.5583 34.2385 53.0412 34.5358C52.5242 34.8331 52.0977 34.5229 52.0977 33.8249C52.0977 33.1269 52.5242 32.3255 53.0412 32.0282C53.5583 31.7309 53.9848 32.0411 53.9848 32.7391Z" fill="#7C6B7C"/>
<path d="M53.1059 35.0269L52.3691 34.5487L53.6876 32.0023L54.2951 32.3901L53.1059 35.0269Z" fill="#7C6B7C"/>
<path d="M54.6313 33.1657C54.6313 33.8637 54.2048 34.6651 53.6877 34.9624C53.1707 35.2597 52.7441 34.9366 52.7441 34.2515C52.7441 33.5664 53.1707 32.7521 53.6877 32.4548C54.2048 32.1575 54.6313 32.4807 54.6313 33.1657Z" fill="#FFC85A"/>
</g>
</g>
</svg>
