<svg width="130" height="130" viewBox="0 0 130 130" fill="none" xmlns="http://www.w3.org/2000/svg">
<mask id="mask0_501_490" style="mask-type:alpha" maskUnits="userSpaceOnUse" x="0" y="0" width="130" height="130">
<circle cx="65" cy="65" r="65" fill="#D9D9D9"/>
</mask>
<g mask="url(#mask0_501_490)">
<circle cx="65" cy="65" r="65" fill="#F59E0B"/>
<path d="M39.0091 50.9124C39.0091 50.9124 35.5979 51.0972 35.0434 53.3825C34.4889 55.6677 39.4291 55.5669 39.4291 55.5669L39.0091 50.9124Z" fill="#FFC85A"/>
<path d="M39.4297 66.4052C39.4297 71.3454 42.4375 77.0922 46.1511 79.2262C49.8647 81.3603 52.8557 79.0918 52.8557 74.1516C52.8557 69.2113 49.8479 63.4645 46.1343 61.3305C42.4207 59.1965 39.4297 61.4649 39.4297 66.4052V66.4052Z" fill="#282027"/>
<path d="M50.3838 79.6632L48.0481 80.9402L39.8984 62.0195L41.9989 60.8433L50.3838 79.6632Z" fill="#282027"/>
<path d="M37.127 67.6654C37.127 72.6056 40.1348 78.3524 43.8484 80.4865C47.5619 82.6205 50.5529 80.352 50.5529 75.4118C50.5529 70.4716 47.5451 64.7248 43.8315 62.5908C40.118 60.4567 37.127 62.7252 37.127 67.6654V67.6654Z" fill="#3D333B"/>
<path d="M39.0098 68.7574C39.0098 72.3029 41.1774 76.4366 43.8492 77.9657C46.5209 79.4948 48.6718 77.8649 48.6718 74.3193C48.6718 70.7738 46.5041 66.6401 43.8324 65.111C41.1606 63.5819 39.0098 65.2118 39.0098 68.7574V68.7574Z" fill="white"/>
<path d="M41.125 70.1188C41.125 71.9336 42.234 74.034 43.5951 74.8238C44.9562 75.6136 46.0652 74.7734 46.0652 72.9586C46.0652 71.1438 44.9562 69.0434 43.5951 68.2536C42.234 67.4639 41.125 68.304 41.125 70.1188Z" fill="#3D333B"/>
<path d="M41.5469 70.3537C41.5469 71.866 42.4711 73.6136 43.5969 74.2689C44.7227 74.9243 45.6469 74.2185 45.6469 72.723C45.6469 71.2107 44.7227 69.4631 43.5969 68.8078C42.4543 68.1525 41.5469 68.8582 41.5469 70.3537Z" fill="#7C6B7C"/>
<path d="M68.7683 92.3326C56.9387 88.0981 47.3103 79.4443 41.3282 71.8155C35.8503 64.8252 32.8593 61.2797 39.0261 56.726C46.3189 51.3656 62.3326 68.4884 68.4491 71.4626C74.5823 74.42 84.0595 78.9402 84.0595 78.9402L68.7683 92.3326Z" fill="#DBCCDB"/>
<path d="M75.675 45.7367C73.0705 46.7617 71.9782 48.1732 69.3737 53.8864C67.9958 56.9447 69.2225 65.0103 70.5163 70.9084C71.8102 76.8064 68.752 92.3328 68.752 92.3328C68.752 92.3328 75.2885 94.03 81.7579 87.0061C88.2272 79.9823 88.7481 70.7907 87.0006 61.5488C85.7403 54.9282 85.3538 47.6691 81.2538 45.2998C80.1111 44.6445 77.389 45.0478 75.6582 45.7199L75.675 45.7367Z" fill="#DBCCDB"/>
<path d="M66.5335 71.5467C65.3236 70.8914 65.0716 71.7652 64.7691 72.7734C64.3658 74.084 63.5593 75.9324 61.2908 77.1087C57.2748 79.2091 53.5444 77.3775 52.3177 78.5538C51.0911 79.73 53.8637 83.326 66.1134 88.199C67.9114 88.9215 70.3983 89.1568 70.3815 88.5519L70.8352 73.7648C70.8352 73.7648 69.2557 72.9918 66.5335 71.5467V71.5467Z" fill="#7C6B7C"/>
<path d="M35.5996 61.4479C35.5996 61.4479 40.5398 73.7144 51.1428 76.7558C55.7302 78.0665 60.6032 75.3612 62.0651 73.7144C63.527 72.0677 62.586 70.5722 62.67 67.5643C62.7373 64.5565 65.493 59.1626 63.527 57.7175C61.561 56.2724 55.2933 47.1481 47.3116 45.9382C42.2874 45.1821 39.0779 46.7784 37.8849 50.9457C35.6332 58.8265 35.5996 61.4647 35.5996 61.4647V61.4479Z" fill="#AFA0AE"/>
<path d="M43.5977 66.7246C43.5977 66.7246 48.4035 71.3288 54.0326 71.5304C58.5192 71.6985 62.7032 69.0099 62.7032 69.0099C62.7032 69.0099 62.7032 66.4558 63.0729 65.0443C63.4426 63.6328 63.6442 62.8598 63.6442 62.8598C63.6442 62.8598 57.931 65.0611 52.8732 63.9184C48.4707 62.9102 43.5977 59.7344 43.5977 59.7344V66.7078V66.7246Z" fill="#938392"/>
<path d="M47.3271 49.2653C47.3271 49.2653 42.3701 51.1137 41.1266 58.6249C40.1688 64.4389 39.9 67.934 39.9 67.934C39.9 67.934 35.2958 65.7327 35.5983 61.4142C35.8839 57.0957 37.1274 48.9797 42.3869 46.812C45.8484 45.6862 47.3439 49.2485 47.3439 49.2485L47.3271 49.2653Z" fill="#938392"/>
<path d="M72.9023 47.6692C72.9023 47.6692 76.6999 51.9709 79.1196 64.3383C81.7578 77.8315 79.7414 82.6877 79.7414 82.6877L84.7656 81.2258C84.7656 81.2258 86.5804 78.0835 85.6898 65.044C84.7656 51.534 82.0771 45.6696 81.2537 45.2999C79.002 44.2917 75.9438 44.5606 72.9023 47.6692V47.6692Z" fill="#4F464D"/>
<path d="M70.1795 91.3582C70.1795 91.3582 75.9599 91.0054 77.5395 89.0226C79.119 87.0397 80.06 86.5356 80.06 86.5356L82.7822 87.3086L81.2362 89.7619C81.2362 89.7619 75.7751 92.5009 72.9017 92.7361C70.0451 92.9546 68.5664 92.7361 68.5664 92.7361C68.5664 92.7361 69.5746 92.7697 70.1795 91.3582V91.3582Z" fill="#7C6B7C"/>
<path d="M80.9688 89.9135C80.9688 94.8537 83.9766 100.6 87.6901 102.735C91.4037 104.869 94.3948 102.6 94.3948 97.6599C94.3948 92.7196 91.3869 86.9728 87.6734 84.8388C83.9598 82.7048 80.9688 84.9732 80.9688 89.9135Z" fill="#282027"/>
<path d="M91.9248 103.171L89.6059 104.448L81.4395 85.5273L83.5399 84.3511L91.9248 103.171Z" fill="#282027"/>
<path d="M78.666 91.1735C78.666 96.1137 81.6738 101.86 85.3874 103.995C89.101 106.129 92.092 103.86 92.092 98.9199C92.092 93.9796 89.0842 88.2329 85.3706 86.0988C81.657 83.9648 78.666 86.2332 78.666 91.1735Z" fill="#3D333B"/>
<path d="M80.5645 92.2657C80.5645 95.8112 82.7321 99.9449 85.4039 101.474C88.0756 103.003 90.2265 101.373 90.2265 97.8276C90.2265 94.2821 88.0588 90.1484 85.3871 88.6193C82.7153 87.0902 80.5645 88.7201 80.5645 92.2657V92.2657Z" fill="white"/>
<path d="M82.6816 93.6266C82.6816 95.4414 83.7907 97.5418 85.1518 98.3316C86.5128 99.1214 87.6219 98.2812 87.6219 96.4664C87.6219 94.6516 86.5128 92.5512 85.1518 91.7614C83.7907 90.9717 82.6816 91.8118 82.6816 93.6266Z" fill="#3D333B"/>
<path d="M83.0859 93.8622C83.0859 95.3745 84.0101 97.1221 85.136 97.7774C86.2786 98.4327 87.186 97.727 87.186 96.2147C87.186 94.7024 86.2618 92.9548 85.136 92.2995C83.9933 91.6441 83.0859 92.3499 83.0859 93.8622Z" fill="#7C6B7C"/>
<path d="M78.5653 81.8645C78.1956 82.3182 77.826 82.8055 77.5067 83.4272C75.9104 86.5023 75.4062 92.1482 75.4062 92.1482C75.4062 92.1482 81.7244 93.7614 85.4043 94.2655C86.7822 94.4503 88.513 94.1983 90.1429 93.8286C89.2859 91.3921 88.1265 88.7371 86.6646 86.7879C84.1609 83.444 80.4809 82.2678 78.5485 81.8813L78.5653 81.8645Z" fill="#3D333B"/>
<path d="M92.0584 85.2753C88.6641 79.9654 83.5895 79.2261 83.5895 79.2261C83.5895 79.2261 80.7665 79.2429 78.582 81.8642C80.4976 82.2675 84.1944 83.427 86.6981 86.7708C88.16 88.7201 89.3027 91.3582 90.1764 93.8115C92.9154 93.173 95.3687 92.148 95.3687 92.148C95.3687 92.148 94.4109 88.9385 92.0752 85.2753H92.0584Z" fill="#493E47"/>
<path d="M79.0351 56.3057C78.7159 51.6008 81.7405 51.3655 83.3872 53.3987C84.2106 54.4069 84.4795 56.2217 84.4795 56.2217C84.4795 56.2217 83.7401 53.9028 81.9925 54.743C80.8499 55.2807 80.6146 56.7426 81.0851 58.8431C81.4044 60.2882 82.7319 61.2964 82.7319 61.2964C82.7319 61.2964 79.388 61.2964 79.0351 56.3225V56.3057Z" fill="#3D333B"/>
<path d="M84.093 55.3316C84.9668 56.8439 85.0676 59.1291 84.3115 60.4398C83.5553 61.7505 82.2446 61.5825 81.3708 60.0869C80.4971 58.5746 80.3962 56.2894 81.1524 54.9787C81.9085 53.668 83.2192 53.836 84.093 55.3316Z" fill="#FFC85A"/>
<path d="M69.0039 52.1724C66.8195 58.793 69.4072 70.0177 70.197 77.8313C70.7515 83.3261 68.2646 90.4844 68.2646 90.4844C68.2646 90.4844 61.4087 88.7536 55.6283 84.5023C49.8311 80.251 42.1855 72.8239 42.1855 72.8239C42.1855 72.8239 45.395 77.7977 50.268 82.2002C55.141 86.6027 67.2396 94.3324 69.3736 92.4336C71.8941 90.1651 71.9949 82.2506 71.7093 78.5371C70.8523 67.3123 69.5248 64.1029 69.6256 58.3729C69.7265 52.5925 71.8101 49.6351 73.9273 47.5514C78.1618 43.3673 81.2873 45.2998 81.2873 45.2998C76.9856 42.0231 71.1548 45.7198 69.0375 52.1724H69.0039Z" fill="#AFA0AE"/>
<path d="M34.0195 61.784C34.0195 61.784 34.4732 57.5999 39.027 56.7262C43.5807 55.8524 47.4455 57.8688 49.546 64.523C52.2681 73.16 49.4283 76.7559 49.4283 76.7559L47.4119 77.6969L34.0195 61.784V61.784Z" fill="#493E47"/>
<path d="M47.4116 77.6801C47.4116 77.6801 50.4699 64.9263 42.7907 59.6164C35.1115 54.3065 33.8008 62.6914 33.8008 62.6914C33.8008 62.6914 34.2713 66.8419 37.1279 70.2698C41.4128 75.3781 47.4116 77.6801 47.4116 77.6801V77.6801Z" fill="#3D333B"/>
<path d="M42.3715 51.114C46.4211 54.1386 50.0675 52.5591 53.613 54.0882C57.1754 55.6005 60.7545 59.6838 63.6279 58.4908C64.3336 58.2051 64.8714 57.8858 65.2747 57.5666C65.762 55.0292 65.073 52.4247 61.8803 50.1226C57.7803 47.1652 54.0667 47.2828 50.2019 45.1488C46.3203 43.0147 43.5813 42.2922 39.4141 45.1488C39.3637 45.1824 39.3132 45.2328 39.2628 45.2664C38.91 47.0812 39.3805 48.896 42.3547 51.114H42.3715Z" fill="#4F464D"/>
<path d="M66.5352 55.8695C66.552 55.7686 66.5688 55.7014 66.5688 55.7014C66.5688 55.7014 66.5688 55.7686 66.5352 55.8695Z" fill="#324B83"/>
<path d="M39.0107 50.9123C41.5648 53.7185 42.8418 55.13 46.5218 55.3317C48.6895 55.4493 54.0162 56.4071 56.4695 58.5579C58.906 60.7088 63.5942 62.1539 64.6192 59.7006C64.9048 58.9948 65.1401 58.2891 65.2745 57.5665C64.8712 57.8858 64.3335 58.1882 63.6278 58.4907C60.7376 59.6838 57.1584 55.6005 53.6129 54.0882C50.0506 52.5759 46.4042 54.1554 42.3714 51.114C39.3971 48.8959 38.9434 47.0811 39.2795 45.2664C37.1959 46.7787 36.8934 48.6103 39.0107 50.9123V50.9123Z" fill="#3D333B"/>
<path d="M59.9132 50.4756C58.8546 50.4756 57.4095 50.9797 55.5779 51.6686C53.2926 52.5256 55.393 53.7355 58.7201 54.5588C61.0894 55.1302 62.9042 57.6003 63.778 55.3822C64.4165 53.7355 62.753 52.2568 62.2489 51.6854C61.5263 50.8789 60.8542 50.4924 59.9132 50.4924V50.4756Z" fill="#7C6B7C"/>
<path d="M44.4376 44.0058C42.3876 44.3082 39.8839 45.098 40.472 47.5177C41.2114 50.5423 45.4626 52.1891 45.6643 50.996C45.7819 50.2903 44.6561 50.2231 43.1942 48.3075C41.7155 46.3919 42.4548 45.3501 45.1602 45.266C46.2524 45.2324 47.395 45.266 46.9918 44.7451C46.7565 44.4427 45.6139 43.8377 44.4376 44.0058V44.0058Z" fill="#7C6B7C"/>
<path d="M39.313 68.4382C38.7249 67.9509 37.8175 67.0939 37.1286 66.0185C36.4396 64.9598 35.9859 63.75 35.7003 62.7754C35.4818 63.4643 35.2634 64.1533 35.0449 64.8254C35.2466 65.4976 35.6331 66.4554 36.3052 67.4636C37.179 68.7742 38.2544 69.6312 38.9433 70.1017C39.0778 69.5472 39.2122 68.9927 39.3298 68.4382H39.313Z" fill="#DDD3D5"/>
<path d="M86.2266 31.3025C86.2266 31.8907 86.5794 32.5628 87.0163 32.8149C87.4532 33.0669 87.8061 32.8149 87.8061 32.2099C87.8061 31.6218 87.4532 30.9497 87.0163 30.6976C86.5794 30.4456 86.2266 30.6976 86.2266 31.3025V31.3025Z" fill="#3D333B"/>
<path d="M80.5645 34.109L86.5297 30.6643L87.4707 32.8656L81.6399 36.2599L80.5645 34.109Z" fill="#3D333B"/>
<path d="M80.3125 34.7305C80.3125 35.3186 80.6654 35.9908 81.1023 36.2428C81.5392 36.4949 81.892 36.2428 81.892 35.6379C81.892 35.0498 81.5392 34.3776 81.1023 34.1256C80.6654 33.8735 80.3125 34.1256 80.3125 34.7305Z" fill="#7C6B7C"/>
<path d="M80.5312 34.932C80.5312 35.2681 80.7329 35.6714 80.9849 35.8058C81.237 35.957 81.4386 35.8058 81.4386 35.4529C81.4386 35.1169 81.237 34.7136 80.9849 34.5791C80.7329 34.4279 80.5312 34.5791 80.5312 34.932Z" fill="#DDD3D5"/>
<path d="M63.7109 44.6778C64.0638 44.2913 80.6657 34.5789 80.6657 34.5789L81.3378 35.8055L64.3831 45.77L63.7109 44.6778Z" fill="#DDD3D5"/>
<path d="M63.4922 44.5103C63.4922 45.0984 63.8451 45.7706 64.2819 46.0226C64.7188 46.2747 65.0717 46.0226 65.0717 45.4177C65.0717 44.8296 64.7188 44.1574 64.2819 43.9054C63.8451 43.6533 63.4922 43.9054 63.4922 44.5103Z" fill="#3D333B"/>
<path d="M57.8301 47.3165L63.7953 43.855L64.7363 46.073L58.9055 49.4673L57.8301 47.3165Z" fill="#3D333B"/>
<path d="M57.5781 47.9383C57.5781 48.5264 57.931 49.1985 58.3679 49.4506C58.8048 49.7026 59.1577 49.4506 59.1577 48.8457C59.1577 48.2575 58.8048 47.5854 58.3679 47.3334C57.931 47.0813 57.5781 47.3334 57.5781 47.9383Z" fill="#7C6B7C"/>
<path d="M80.0434 26.547C80.0434 28.0593 79.1192 29.8069 77.9934 30.4622C76.8508 31.1176 75.9434 30.4118 75.9434 28.8995C75.9434 27.3872 76.8676 25.6396 77.9934 24.9843C79.136 24.3289 80.0434 25.0347 80.0434 26.547V26.547Z" fill="#3D333B"/>
<path d="M74.0955 38.4106L73.625 37.7889C73.625 37.7889 76.0447 35.9405 77.725 34.4114C79.3214 32.9495 79.8759 31.8068 79.439 30.8994C78.9013 29.8072 78.1619 28.4797 78.1619 28.4797L78.8509 28.0933C78.8509 28.0933 79.607 29.4375 80.1616 30.5466C80.7833 31.8068 80.1616 33.2519 78.2796 34.9827C76.5824 36.5454 74.1459 38.3938 74.1291 38.4106H74.0955Z" fill="#3D333B"/>
<path d="M64.6854 41.4349C64.3493 41.4349 64.0637 41.3845 63.8452 41.25C62.9882 40.7291 61.6944 39.2504 60.8374 38.2758C60.5517 37.9566 60.2325 37.5869 60.1484 37.5197L60.3501 37.2676V36.7971C60.5853 36.7971 60.6357 36.8643 61.4255 37.7549C62.1985 38.6455 63.5091 40.1242 64.2485 40.5779C64.9542 40.998 68.0293 39.8049 69.9953 38.7967L70.3482 39.5025C69.6256 39.8722 66.4498 41.4349 64.6686 41.4349H64.6854Z" fill="#3D333B"/>
<path d="M79.5236 37.6374C79.5236 38.5448 78.9691 39.5866 78.297 39.9731C77.6248 40.3596 77.0703 39.9563 77.0703 39.0489C77.0703 38.1415 77.6248 37.0997 78.297 36.7132C78.9691 36.3268 79.5236 36.73 79.5236 37.6374Z" fill="#7C6B7C"/>
<path d="M78.3816 40.5949L77.4238 39.99L79.1378 36.6797L79.9276 37.1838L78.3816 40.5949Z" fill="#7C6B7C"/>
<path d="M80.3635 38.1753C80.3635 39.0827 79.809 40.1245 79.1368 40.511C78.4647 40.8974 77.9102 40.4773 77.9102 39.5868C77.9102 38.6794 78.4647 37.6376 79.1368 37.2511C79.809 36.8646 80.3635 37.2847 80.3635 38.1753Z" fill="#FFC85A"/>
<path d="M73.894 44.359C74.8182 44.7119 77.1539 43.6533 78.9518 42.7291C79.0023 42.5106 79.0191 42.2922 79.0023 42.0401C78.8846 40.259 76.969 35.6212 76.969 35.6212C76.969 35.6212 74.1628 33.8736 71.844 35.5708C70.5669 36.5118 69.7771 38.0577 69.3066 39.2844C70.5669 41.0487 72.785 43.9557 73.894 44.359V44.359Z" fill="#4F464D"/>
<path d="M72.4159 45.065C73.8946 46.2749 75.2725 45.5355 76.3815 45.065C77.3225 44.6617 78.6668 44.0232 78.9524 42.7125C77.1545 43.6367 74.8188 44.6954 73.8946 44.3425C72.8024 43.9392 70.5843 41.0322 69.3072 39.2678C68.9208 40.2592 68.7695 41.0322 68.7695 41.0322C68.7695 41.0322 70.9372 43.8552 72.4159 45.0482V45.065Z" fill="#3D333B"/>
<path d="M61.8793 35.5709C61.8793 37.0832 60.9552 38.8308 59.8293 39.4861C58.6867 40.1415 57.7793 39.4357 57.7793 37.9234C57.7793 36.4111 58.7035 34.6635 59.8293 34.0082C60.972 33.3529 61.8793 34.0586 61.8793 35.5709V35.5709Z" fill="#3D333B"/>
<path d="M70.1799 42.5608C70.1799 43.4682 69.6254 44.51 68.9532 44.8964C68.2811 45.2829 67.7266 44.8796 67.7266 43.9723C67.7266 43.0649 68.2811 42.0231 68.9532 41.6366C69.6254 41.2501 70.1799 41.6534 70.1799 42.5608Z" fill="#7C6B7C"/>
<path d="M69.0379 45.5348L68.0801 44.9131L69.794 41.6028L70.5838 42.1069L69.0379 45.5348Z" fill="#7C6B7C"/>
<path d="M71.0197 43.1152C71.0197 44.0226 70.4652 45.0644 69.7931 45.4509C69.1209 45.8374 68.5664 45.4173 68.5664 44.5267C68.5664 43.6361 69.1209 42.5775 69.7931 42.191C70.4652 41.8045 71.0197 42.2246 71.0197 43.1152Z" fill="#FFC85A"/>
</g>
</svg>
