<svg width="100" height="100" viewBox="0 0 100 100" fill="none" xmlns="http://www.w3.org/2000/svg">
<g style="mix-blend-mode:luminosity" opacity="0.4">
<mask id="mask0_501_628" style="mask-type:alpha" maskUnits="userSpaceOnUse" x="0" y="0" width="100" height="100">
<circle cx="50" cy="50" r="50" fill="#D9D9D9"/>
</mask>
<g mask="url(#mask0_501_628)">
<circle cx="50" cy="50" r="50" fill="#F59E0B"/>
<path d="M33.47 30.38L-35 -9.13L-10.98 -23L57.49 16.51L33.47 30.38Z" fill="#DEEFFF"/>
<path d="M53.8992 17.21L-12.1309 -20.84L-10.7709 -21.54L55.2591 16.51L53.8992 17.21Z" fill="#A8CFF4"/>
<path d="M33.3403 29.01L-32.6797 -9.03999L-31.3197 -9.73999L34.7003 28.31L33.3403 29.01Z" fill="#A8CFF4"/>
<path d="M23.3191 53.3101L18.2891 56.2201V61.3801L23.3191 58.4701V53.3101Z" fill="#282027"/>
<path d="M22.4688 57.57C22.4688 60.94 24.5187 64.86 27.0487 66.32C29.5787 67.78 31.6287 66.23 31.6287 62.86C31.6287 59.49 29.5787 55.57 27.0487 54.11C24.5187 52.65 22.4688 54.2 22.4688 57.57Z" fill="#282027"/>
<path d="M26.5788 68.4901L29.8888 66.6201L23.9788 53.92L20.7988 55.69L26.5788 68.4901Z" fill="#282027"/>
<path d="M19.0293 59.4901C19.0293 62.8601 21.0793 66.7801 23.6093 68.2401C26.1393 69.7001 28.1893 68.15 28.1893 64.78C28.1893 61.41 26.1393 57.49 23.6093 56.03C21.0793 54.57 19.0293 56.1201 19.0293 59.4901Z" fill="#3D333B"/>
<path d="M20.6387 60.53C20.6387 62.72 21.9687 65.25 23.6087 66.2C25.2487 67.15 26.5787 66.14 26.5787 63.96C26.5787 61.78 25.2487 59.24 23.6087 58.29C21.9687 57.34 20.6387 58.35 20.6387 60.53Z" fill="#DBCCDB"/>
<path d="M21.4785 61.01C21.4785 62.58 22.4285 64.4 23.6085 65.08C24.7885 65.76 25.7385 65.04 25.7385 63.47C25.7385 61.9 24.7885 60.08 23.6085 59.4C22.4285 58.72 21.4785 59.44 21.4785 61.01Z" fill="white"/>
<path d="M22.5801 61.65C22.5801 62.41 23.0401 63.29 23.6101 63.62C24.1801 63.95 24.6401 63.6 24.6401 62.84C24.6401 62.08 24.1801 61.2 23.6101 60.87C23.0401 60.54 22.5801 60.89 22.5801 61.65Z" fill="#3D333B"/>
<path d="M23.4102 60C23.4102 60.15 23.5002 60.31 23.6102 60.38C23.7202 60.44 23.8102 60.38 23.8102 60.23C23.8102 60.08 23.7202 59.92 23.6102 59.85C23.5002 59.79 23.4102 59.85 23.4102 60Z" fill="#3D333B"/>
<path d="M22.0801 60C22.0801 60.15 22.1701 60.31 22.2801 60.38C22.3901 60.44 22.4801 60.38 22.4801 60.23C22.4801 60.08 22.3901 59.92 22.2801 59.85C22.1701 59.79 22.0801 59.85 22.0801 60Z" fill="#3D333B"/>
<path d="M24.6387 61.48C24.6387 61.63 24.7287 61.79 24.8387 61.86C24.9487 61.92 25.0387 61.86 25.0387 61.71C25.0387 61.56 24.9487 61.4 24.8387 61.33C24.7287 61.27 24.6387 61.33 24.6387 61.48Z" fill="#3D333B"/>
<path d="M22.0801 62.77C22.0801 62.92 22.1701 63.08 22.2801 63.15C22.3901 63.21 22.4801 63.15 22.4801 63C22.4801 62.85 22.3901 62.69 22.2801 62.62C22.1701 62.56 22.0801 62.62 22.0801 62.77Z" fill="#3D333B"/>
<path d="M24.6387 64.25C24.6387 64.4 24.7287 64.56 24.8387 64.63C24.9487 64.69 25.0387 64.63 25.0387 64.48C25.0387 64.33 24.9487 64.17 24.8387 64.1C24.7287 64.04 24.6387 64.1 24.6387 64.25Z" fill="#3D333B"/>
<path d="M21.7598 61.28C21.7598 61.43 21.8498 61.59 21.9598 61.66C22.0698 61.72 22.1598 61.6601 22.1598 61.5101C22.1598 61.3601 22.0698 61.2 21.9598 61.13C21.8498 61.07 21.7598 61.13 21.7598 61.28Z" fill="#3D333B"/>
<path d="M25.0293 63.1701C25.0293 63.3201 25.1193 63.4801 25.2293 63.5501C25.3393 63.6101 25.4293 63.5501 25.4293 63.4001C25.4293 63.2501 25.3393 63.0901 25.2293 63.0201C25.1193 62.9601 25.0293 63.0201 25.0293 63.1701Z" fill="#3D333B"/>
<path d="M23.4102 64.25C23.4102 64.4 23.5002 64.56 23.6102 64.63C23.7202 64.69 23.8102 64.63 23.8102 64.48C23.8102 64.33 23.7202 64.17 23.6102 64.1C23.5002 64.04 23.4102 64.1 23.4102 64.25Z" fill="#3D333B"/>
<path d="M40.2903 70.11L43.8003 67.99L46.1603 66.1C46.1603 66.1 44.2803 65.41 44.1003 65.29C43.9203 65.18 39.3704 66.8 40.2804 70.11H40.2903Z" fill="#262626"/>
<path d="M59.5902 30.6V53.69L56.9902 52.01L77.0202 40.48L59.5902 30.6Z" fill="#EF4F77"/>
<path d="M63.7598 55.91L83.0898 67.08V55.11L80.6298 46.76L63.7598 55.91Z" fill="#EF4F77"/>
<path d="M79.8005 43.95C79.3705 42.51 78.4105 41.29 77.1105 40.54L77.0205 40.49L56.9905 52.02L50.8105 55.58L51.5805 62.54L63.7605 55.93L80.6305 46.78L79.8005 43.96V43.95Z" fill="white"/>
<path d="M78.9098 42.15L54.2598 56.06L59.0698 68.98L83.0898 55.11C83.0898 55.11 80.6298 46.41 79.5398 43.25C79.4398 42.95 78.8998 42.14 78.8998 42.14L78.9098 42.15Z" fill="#C5DFFF"/>
<path d="M50.0204 64.1599L38.8104 57.6899L29.6504 62.9699L40.8704 69.4499L50.0204 64.1599Z" fill="#3D333B"/>
<path d="M29.6504 62.97L41.0204 69.54V74.01L29.6504 67.45V62.97Z" fill="#4F464D"/>
<path d="M30.4902 66.74L39.4502 71.88V72.39L30.4902 67.25V66.74Z" fill="#3D333B"/>
<path d="M30.4902 65.6299L39.4502 70.7799V71.2799L30.4902 66.1399V65.6299Z" fill="#3D333B"/>
<path d="M27.4607 51.62L-2.36929 33.99L-11.5293 39.28L18.3007 56.91L27.4607 51.62Z" fill="#3D333B"/>
<path d="M-11.5293 39.28L18.3007 56.91V61.38L-11.5293 43.75V39.28Z" fill="#4F464D"/>
<path d="M-10.6895 43.04L17.2905 59.44V59.95L-10.6895 43.55V43.04Z" fill="#3D333B"/>
<path d="M-10.6895 41.9299L17.2905 58.3399V58.8399L-10.6895 42.4399V41.9299Z" fill="#3D333B"/>
<path d="M57.4907 16.51V49.02L33.4707 62.88V30.38L57.4907 16.51Z" fill="#6397D6"/>
<path d="M57.4907 16.51V26.77L33.4707 40.63V30.38L57.4907 16.51Z" fill="#C5DFFF"/>
<path d="M57.4907 46.52V50.62L33.4707 64.48V60.39L57.4907 46.52Z" fill="#C5DFFF"/>
<path d="M-35 -9.13V23.39L33.47 62.88V30.38L-35 -9.13Z" fill="#5D80B3"/>
<path d="M-35 -9.19995V1.13005L33.47 40.6301V30.3101L-35 -9.19995Z" fill="#A8CFF4"/>
<path d="M-5.61914 13.9L12.9408 24.61L15.7309 28.26L-5.61914 15.95V13.9Z" fill="white"/>
<path d="M-5.61914 10.29L8.45085 18.56L11.2409 22.22L-5.61914 12.34V10.29Z" fill="white"/>
<path d="M-35 20.88V24.98L33.47 64.48V60.39L-35 20.88Z" fill="#A8CFF4"/>
<path d="M44 69.7401C44 73.1101 46.05 77.0301 48.58 78.4901C51.11 79.9501 53.16 78.4 53.16 75.03C53.16 71.66 51.11 67.74 48.58 66.28C46.05 64.82 44 66.3701 44 69.7401Z" fill="#282027"/>
<path d="M48.1001 80.6601L51.4201 78.8001L45.5001 66.0901L42.3301 67.8601L48.1001 80.6601Z" fill="#282027"/>
<path d="M40.5605 71.6601C40.5605 75.0301 42.6105 78.9501 45.1405 80.4101C47.6705 81.8701 49.7206 80.3201 49.7206 76.9501C49.7206 73.5801 47.6705 69.6601 45.1405 68.2001C42.6105 66.7401 40.5605 68.2901 40.5605 71.6601Z" fill="#3D333B"/>
<path d="M42.1699 72.7C42.1699 74.89 43.4999 77.42 45.1399 78.37C46.7799 79.32 48.1099 78.31 48.1099 76.13C48.1099 73.95 46.7799 71.41 45.1399 70.46C43.4999 69.51 42.1699 70.52 42.1699 72.7Z" fill="#DBCCDB"/>
<path d="M43.0098 73.1801C43.0098 74.7501 43.9598 76.5701 45.1398 77.2501C46.3198 77.9301 47.2698 77.2101 47.2698 75.6401C47.2698 74.0701 46.3198 72.2501 45.1398 71.5701C43.9598 70.8901 43.0098 71.6101 43.0098 73.1801Z" fill="white"/>
<path d="M44.1113 73.82C44.1113 74.58 44.5713 75.46 45.1413 75.79C45.7113 76.12 46.1713 75.77 46.1713 75.01C46.1713 74.25 45.7113 73.37 45.1413 73.04C44.5713 72.71 44.1113 73.06 44.1113 73.82Z" fill="#3D333B"/>
<path d="M44.9414 72.1701C44.9414 72.3201 45.0314 72.4801 45.1414 72.5501C45.2514 72.6101 45.3414 72.5501 45.3414 72.4001C45.3414 72.2501 45.2514 72.0901 45.1414 72.0201C45.0314 71.9601 44.9414 72.0201 44.9414 72.1701Z" fill="#3D333B"/>
<path d="M43.5996 72.1701C43.5996 72.3201 43.6896 72.4801 43.7996 72.5501C43.9096 72.6101 43.9996 72.5501 43.9996 72.4001C43.9996 72.2501 43.9096 72.0901 43.7996 72.0201C43.6896 71.9601 43.5996 72.0201 43.5996 72.1701Z" fill="#3D333B"/>
<path d="M46.1699 73.6501C46.1699 73.8001 46.2599 73.96 46.3699 74.03C46.4799 74.09 46.5699 74.03 46.5699 73.88C46.5699 73.73 46.4799 73.57 46.3699 73.5C46.2599 73.44 46.1699 73.5001 46.1699 73.6501Z" fill="#3D333B"/>
<path d="M43.5996 74.9401C43.5996 75.0901 43.6896 75.2501 43.7996 75.3201C43.9096 75.3801 43.9996 75.3201 43.9996 75.1701C43.9996 75.0201 43.9096 74.8601 43.7996 74.7901C43.6896 74.7301 43.5996 74.7901 43.5996 74.9401Z" fill="#3D333B"/>
<path d="M46.1699 76.4201C46.1699 76.5701 46.2599 76.7301 46.3699 76.8001C46.4799 76.8601 46.5699 76.8001 46.5699 76.6501C46.5699 76.5001 46.4799 76.3401 46.3699 76.2701C46.2599 76.2101 46.1699 76.2701 46.1699 76.4201Z" fill="#3D333B"/>
<path d="M43.291 73.4501C43.291 73.6001 43.381 73.7601 43.491 73.8301C43.601 73.8901 43.691 73.8301 43.691 73.6801C43.691 73.5301 43.601 73.3701 43.491 73.3001C43.381 73.2301 43.291 73.3001 43.291 73.4501Z" fill="#3D333B"/>
<path d="M46.5605 75.34C46.5605 75.49 46.6505 75.65 46.7605 75.72C46.8705 75.78 46.9605 75.72 46.9605 75.57C46.9605 75.42 46.8705 75.26 46.7605 75.19C46.6505 75.13 46.5605 75.19 46.5605 75.34Z" fill="#3D333B"/>
<path d="M44.9414 76.4201C44.9414 76.5701 45.0314 76.7301 45.1414 76.8001C45.2514 76.8601 45.3414 76.8001 45.3414 76.6501C45.3414 76.5001 45.2514 76.3401 45.1414 76.2701C45.0314 76.2101 44.9414 76.2701 44.9414 76.4201Z" fill="#3D333B"/>
<path d="M35.7695 44.41L53.0895 54.41C54.3895 55.16 55.3495 56.38 55.7795 57.82L59.0795 68.98V80.95L51.8695 76.79C51.2795 72.7 48.7795 68.44 45.7995 66.72C42.8095 64.99 40.3195 66.37 39.7295 69.78L35.7795 67.5V44.41H35.7695Z" fill="#96C6ED"/>
<path d="M48.0586 68.54V51.51L47.5586 51.22V68.54H48.0586Z" fill="#5D80B3"/>
<path d="M45.8002 67.34C48.5102 68.9 50.7702 72.76 51.3102 76.47L51.8802 76.8C51.2902 72.71 48.7902 68.45 45.8102 66.73C42.8202 65 40.3302 66.38 39.7402 69.79L40.3102 70.12C40.8502 67.03 43.1102 65.79 45.8202 67.35L45.8002 67.34Z" fill="#5D80B3"/>
<path d="M83.0901 55.11L59.0801 68.98V80.95L83.0901 67.09V55.11Z" fill="#C5DFFF"/>
<path d="M18.2809 55.1699L16.7109 54.2699V52.1899L18.2809 53.0899V55.1699Z" fill="white"/>
<path d="M18.7012 52.85L18.2812 53.09V55.17L18.7012 54.93V52.85Z" fill="#79B3DB"/>
<path d="M18.7009 52.85L17.1309 51.95L16.7109 52.19L18.2809 53.09L18.7009 52.85Z" fill="#C5DFFF"/>
<path d="M83.0901 55.11L59.0801 68.98V69.93L83.0901 56.06V55.11Z" fill="#96C6ED"/>
<path d="M35.7695 55.53L59.0795 68.98V69.93L35.7695 56.47V55.53Z" fill="#5D80B3"/>
<path d="M63.0391 70.88V71.56L79.1291 62.27V61.59C79.1291 61.59 79.1291 61.54 79.1291 61.51L63.0591 70.79C63.0591 70.79 63.0591 70.85 63.0591 70.88H63.0391Z" fill="#3D333B"/>
<path d="M63.0391 74.24C63.0391 74.31 63.0391 74.38 63.0591 74.44L79.1091 65.17C79.1091 65.1 79.1291 65.02 79.1291 64.95V64.4L63.0391 73.69V74.24V74.24Z" fill="#3D333B"/>
<path d="M77.959 60.71L64.209 68.65C63.779 68.9 63.409 69.42 63.209 69.99L78.959 60.9C78.759 60.56 78.389 60.47 77.959 60.71Z" fill="#3D333B"/>
<path d="M63.0391 72.99L79.1291 63.7V62.98L63.0391 72.27V72.99Z" fill="#3D333B"/>
<path d="M64.2095 75.13L77.9595 67.19C78.3495 66.97 78.6895 66.52 78.8995 66.01L63.2695 75.03C63.4795 75.29 63.8195 75.35 64.2095 75.13Z" fill="#3D333B"/>
<path d="M63.2088 69.99C63.1188 70.25 63.0588 70.53 63.0488 70.79L79.1188 61.51C79.1088 61.26 79.0488 61.05 78.9588 60.9L63.2088 69.99V69.99Z" fill="#779CC9"/>
<path d="M63.0391 72.27L79.1291 62.98V62.28L63.0391 71.56V72.27Z" fill="#779CC9"/>
<path d="M63.0391 73.69L79.1291 64.4V63.7L63.0391 72.99V73.69Z" fill="#779CC9"/>
<path d="M63.2686 75.0299L78.8986 66.0099C79.0086 65.7399 79.0886 65.4599 79.1086 65.1799L63.0586 74.4499C63.0886 74.6999 63.1586 74.8899 63.2686 75.0299V75.0299Z" fill="#779CC9"/>
<path d="M83.1404 57.71L81.0704 59.02C80.4304 59.39 79.9004 60.42 79.9004 61.28V64.64C79.9004 65.5 80.4304 65.89 81.0704 65.52L83.1404 64.21V57.71Z" fill="#FAC155"/>
<path d="M61.1401 70.43L59.0801 71.62V78.1L61.1401 76.91C61.7801 76.54 62.3101 75.53 62.3101 74.68V71.32C62.3101 70.46 61.7801 70.07 61.1401 70.44V70.43Z" fill="#FAC155"/>
<path d="M61.7898 71.87C61.7898 72.68 61.2998 73.63 60.6898 73.98C60.0798 74.33 59.5898 73.96 59.5898 73.15C59.5898 72.34 60.0798 71.39 60.6898 71.04C61.2998 70.69 61.7898 71.06 61.7898 71.87Z" fill="white"/>
<path d="M61.3001 75.25C61.3001 75.88 60.9201 76.62 60.4401 76.89C59.9701 77.16 59.5801 76.87 59.5801 76.24C59.5801 75.61 59.9601 74.87 60.4401 74.6C60.9101 74.33 61.3001 74.62 61.3001 75.25Z" fill="white"/>
<path d="M82.6902 59.73C82.6902 60.54 82.2002 61.49 81.5902 61.84C80.9802 62.19 80.4902 61.82 80.4902 61.01C80.4902 60.2 80.9802 59.25 81.5902 58.9C82.2002 58.55 82.6902 58.92 82.6902 59.73Z" fill="white"/>
<path d="M82.2005 63.11C82.2005 63.74 81.8205 64.48 81.3405 64.75C80.8705 65.02 80.4805 64.73 80.4805 64.1C80.4805 63.47 80.8605 62.73 81.3405 62.46C81.8105 62.19 82.2005 62.48 82.2005 63.11Z" fill="white"/>
<path d="M78.4205 44.45L81.1005 52.9001L81.4205 52.7101L78.9805 44.6901C78.8505 44.2701 78.4605 44.0201 78.0605 44.0401C78.2305 44.1201 78.3705 44.25 78.4205 44.45V44.45Z" fill="#3D333B"/>
<path d="M61.31 66.6401L80.41 55.6501C81.36 55.1001 81.81 53.9701 81.49 52.9301L81.42 52.7201L59.25 65.5301L59.35 65.8601C59.6 66.6901 60.56 67.0801 61.31 66.6401Z" fill="#3D333B"/>
<path d="M71.8495 49.2901C70.0895 50.3501 61.8795 54.9701 56.9395 57.7401C56.9395 57.7501 56.9395 57.7701 56.9395 57.7801L59.2395 65.5201L78.9195 54.1501C78.6295 53.2401 78.3295 52.3201 78.0495 51.4501C76.8495 47.7401 74.3895 47.7501 71.8395 49.2901H71.8495Z" fill="#5D80B3"/>
<path d="M78.4204 44.45C78.3604 44.26 78.2204 44.12 78.0604 44.04C77.9204 44.04 77.7804 44.08 77.6504 44.16L57.9804 55.23C57.0904 55.73 56.6703 56.77 56.9403 57.74C61.8803 54.97 70.0903 50.35 71.8503 49.29C74.4003 47.75 76.8604 47.74 78.0604 51.45C78.3404 52.32 78.6404 53.25 78.9304 54.15L81.1003 52.9L78.4204 44.45V44.45Z" fill="#45649B"/>
<path d="M54.4707 77.42V79.7401C54.4707 80.9501 55.7107 81.66 55.7107 81.66L56.0407 78.9301L54.4707 77.42Z" fill="#324B83"/>
<path d="M58.9902 81.15L59.0502 83.63L63.2102 81.23L63.1702 78.74L58.9902 81.15Z" fill="#779CC9"/>
<path d="M84.6405 66.37L80.4805 68.77V71.23L84.6405 68.82V66.37Z" fill="#779CC9"/>
<path d="M63.1699 78.74L63.2099 81.23L80.4799 71.23V68.77L63.1699 78.74Z" fill="#3D333B"/>
<path d="M77.5706 70.96L66.6406 77.25L66.6806 78.7299L77.5706 72.43V70.96Z" fill="white"/>
<path d="M59.0504 81.1801V83.6301L55.9804 81.86C55.6104 81.65 55.1504 81.12 55.1504 80.7V78.9301L59.0504 81.1801V81.1801Z" fill="#324B83"/>
<path d="M54.4707 77.42L59.0507 80.07L83.0907 66.18V65.51L84.6407 66.37L59.0507 81.18L55.8907 79.35C55.4107 79.08 54.8807 78.73 54.6507 78.23L54.4707 77.42Z" fill="#5D80B3"/>
<path d="M65.6804 78.5601C65.6804 79.0301 65.3904 79.5801 65.0404 79.7901C64.6904 80.0001 64.4004 79.7801 64.4004 79.3001C64.4004 78.8201 64.6904 78.2801 65.0404 78.0701C65.4004 77.8601 65.6804 78.0801 65.6804 78.5601Z" fill="white"/>
<path d="M79.7702 70.42C79.7702 70.89 79.4802 71.4401 79.1302 71.6501C78.7702 71.8601 78.4902 71.6401 78.4902 71.1601C78.4902 70.6801 78.7802 70.1401 79.1302 69.9301C79.4802 69.7201 79.7702 69.94 79.7702 70.42Z" fill="white"/>
<path d="M52.9995 54.35L35.7695 44.41L59.7895 30.53L77.0195 40.48L52.9995 54.35Z" fill="#C5DFFF"/>
<path d="M51.8093 50.03L38.2793 42.91V39.91C38.2793 39.91 42.7493 42.08 46.6393 43.86C50.5293 45.64 51.8093 50.03 51.8093 50.03V50.03Z" fill="#A8CFF4"/>
<path d="M51.8093 50.03C51.8093 50.03 51.1993 47.76 48.1693 45.51C45.6893 43.67 38.2793 39.9 38.2793 39.9L57.1393 29.01C57.1393 29.01 64.4293 32.81 66.9493 34.56C70.2793 36.87 70.6693 39.14 70.6693 39.14L51.8093 50.03V50.03Z" fill="white"/>
<path d="M53.1698 56.26L50.0598 54.46C49.7098 54.26 49.3998 54.36 49.2598 54.68C49.3498 54.68 49.4498 54.72 49.5598 54.78L52.6698 56.58C53.1498 56.86 53.5498 57.62 53.5498 58.26V63.78C53.5498 63.96 53.5198 64.1 53.4698 64.22C53.8098 64.25 54.0498 63.96 54.0498 63.46V57.94C54.0498 57.29 53.6498 56.54 53.1698 56.26Z" fill="#324B83"/>
<path d="M53.5497 58.2699C53.5497 57.6199 53.1497 56.8699 52.6697 56.5899L49.5597 54.7899C49.4597 54.7299 49.3597 54.6999 49.2597 54.6899C49.2097 54.8099 49.1797 54.9599 49.1797 55.1299V60.6499C49.1797 61.2999 49.5797 62.0499 50.0597 62.3299L53.1697 64.1299C53.2697 64.1899 53.3697 64.2199 53.4697 64.2299C53.5197 64.1099 53.5497 63.9599 53.5497 63.7899V58.2699Z" fill="#45649B"/>
<path d="M53.9391 76.1L52.3691 75.2V73.12L53.9391 74.02V76.1Z" fill="white"/>
<path d="M54.3595 73.78L53.9395 74.02V76.1L54.3595 75.86V73.78Z" fill="#79B3DB"/>
<path d="M54.3591 73.78L52.7891 72.88L52.3691 73.12L53.9391 74.02L54.3591 73.78Z" fill="#C5DFFF"/>
<path d="M38.8591 67.12L37.2891 66.22V64.14L38.8591 65.04V67.12Z" fill="white"/>
<path d="M39.2794 64.8L38.8594 65.0401V67.1201L39.2794 66.8801V64.8Z" fill="#79B3DB"/>
<path d="M39.2791 64.8L37.7091 63.9L37.2891 64.14L38.8591 65.04L39.2791 64.8Z" fill="#C5DFFF"/>
</g>
</g>
</svg>
