<svg width="130" height="130" viewBox="0 0 130 130" fill="none" xmlns="http://www.w3.org/2000/svg">
<mask id="mask0_501_1044" style="mask-type:alpha" maskUnits="userSpaceOnUse" x="0" y="0" width="130" height="130">
<circle cx="65" cy="65" r="65" fill="#D9D9D9"/>
</mask>
<g mask="url(#mask0_501_1044)">
<circle cx="65" cy="65" r="65" fill="#F59E0B"/>
<path d="M43.9266 85.085L-16.9004 49.946V3.61401L43.9266 38.753V85.085Z" fill="#324B83"/>
<path d="M42.4063 39.923V82.381L-15.2617 49.062V6.604L42.4063 39.923Z" fill="#45649B"/>
<path d="M42.4063 71.1232V74.0872L-15.2617 40.7682V37.8042L42.4063 71.1232Z" fill="white"/>
<path d="M12.7012 47.229L13.9362 50.908L42.4062 67.366V64.389L12.7012 47.229Z" fill="white"/>
<path d="M72.6298 22.165V41.886L43.9258 58.175V38.753L72.6298 22.165Z" fill="#45649B"/>
<path d="M71.2909 24.9858V41.1968L45.6289 54.9248V39.8188L71.2909 24.9858Z" fill="#5D80B3"/>
<path d="M72.6306 22.165L11.7646 -13L-16.9004 3.614L43.9266 38.753L72.6306 22.165Z" fill="#5D80B3"/>
<path d="M69.4332 21.9179L43.9271 36.6469L-13.7148 3.37994L11.8822 -11.4141L69.4332 21.9179Z" fill="#779CC9"/>
<path d="M-15.2617 34.008V29.627L6.27929 42.094L3.62728 33.462L42.4063 55.874V60.4239L9.23032 41.262L11.4143 49.426L-15.2617 34.008Z" fill="white"/>
<path d="M61.2548 65.1821L43.9258 55.3411L72.5778 38.7661L89.7638 48.7111L61.2548 65.1821Z" fill="#F25568"/>
<path d="M43.9258 55.3411V85.0851L73.7738 102.323V87.6721L61.2548 65.1821L43.9258 55.3411Z" fill="#D3293D"/>
<path d="M102.217 71.24V85.787L73.7734 102.193V87.672L102.217 71.24Z" fill="#E8434F"/>
<path d="M61.2539 65.1819L73.7729 87.6719L102.217 71.2399L89.7629 48.7109L61.2539 65.1819Z" fill="#FF8095"/>
<path d="M64.8032 67.6002L73.6301 83.4602C74.1241 84.3572 75.2552 84.6692 76.1392 84.1622L98.3172 71.4092C99.2922 70.8502 99.6431 69.6152 99.0971 68.6272L90.1142 52.3642C89.7242 51.6622 88.8271 51.4022 88.1251 51.8052L65.5831 64.7662C64.5951 65.3382 64.2442 66.5992 64.8032 67.6002V67.6002Z" fill="#493E47"/>
<path d="M104.675 84.7603L74.6973 101.998L74.7753 105.521L104.675 88.2443V84.7603Z" fill="#493E47"/>
<path d="M74.7757 102.037V105.521L69.2637 102.323V98.8521L74.7757 102.037Z" fill="#3D333B"/>
<path d="M70.6157 98.0592L74.7757 100.464L103.311 83.9802L104.676 84.7602L74.7757 102.037L69.2637 98.8522L70.6157 98.0592Z" fill="#7C6B7C"/>
<path d="M95.0282 82.7061V83.9931L81.3652 91.9231V90.6101L95.0282 82.7061Z" fill="#3D333B"/>
<path d="M95.0282 85.085V86.385L81.3652 94.302V92.989L95.0282 85.085Z" fill="#3D333B"/>
<path d="M95.0282 80.2881V81.5751L81.3652 89.4921V88.1921L95.0282 80.2881Z" fill="#3D333B"/>
<path d="M95.0282 77.8572V79.1572L81.3652 87.0742V85.7742L95.0282 77.8572Z" fill="#3D333B"/>
<path d="M96.3926 81.0291L102.217 77.675V82.043L96.3926 85.41V81.0291Z" fill="white"/>
<path d="M80.1317 90.415V94.809L73.7747 98.488L73.7617 94.107L80.1317 90.415Z" fill="white"/>
<path d="M80.1317 86.4241V89.2841L73.7747 92.9631L73.7617 90.1291L80.1317 86.4241Z" fill="#FFC85A"/>
<path d="M102.218 73.5281V76.4011L95.8477 80.0801V77.2331L102.218 73.5281Z" fill="#FFC85A"/>
<path d="M101.983 80.119C101.983 80.99 101.45 82.004 100.8 82.381C100.15 82.758 99.6172 82.355 99.6172 81.484C99.6172 80.613 100.15 79.599 100.8 79.222C101.45 78.845 101.983 79.248 101.983 80.119Z" fill="#FFC85A"/>
<path d="M76.6335 94.5233C76.6335 95.3943 76.1005 96.4083 75.4505 96.7853C74.8005 97.1623 74.2676 96.7593 74.2676 95.8883C74.2676 95.0173 74.8005 94.0033 75.4505 93.6263C76.1005 93.2493 76.6335 93.6523 76.6335 94.5233Z" fill="#FFC85A"/>
<path d="M79.493 92.8072C79.493 93.6782 78.96 94.6922 78.31 95.0692C77.66 95.4462 77.127 95.0432 77.127 94.1722C77.127 93.3012 77.66 92.2872 78.31 91.9102C78.96 91.5332 79.493 91.9362 79.493 92.8072Z" fill="#FFC85A"/>
<path d="M99.2547 81.627C99.2547 82.498 98.7217 83.512 98.0717 83.889C97.4217 84.266 96.8887 83.863 96.8887 82.992C96.8887 82.121 97.4217 81.107 98.0717 80.73C98.7217 80.353 99.2547 80.756 99.2547 81.627Z" fill="#FFC85A"/>
<path d="M53.6377 84.656C56.6797 85.878 59.3447 90.272 59.9037 94.328C60.6707 94.757 62.4127 95.732 62.8547 96.018C62.5427 97.578 61.7887 98.579 60.7487 99.047L56.6407 101.361L53.8587 95.186C53.0397 93.899 52.3767 92.4431 51.9477 90.9481L49.3867 85.2801C50.4527 84.2791 51.9477 83.9931 53.6247 84.6691L53.6377 84.656Z" fill="#282027"/>
<path d="M47.0977 89.9602C47.0977 94.2242 49.6847 99.1772 52.8957 101.023C56.0937 102.869 58.6937 100.906 58.6937 96.6422C58.6937 92.3782 56.1067 87.4252 52.8957 85.5792C49.6977 83.7332 47.0977 85.6962 47.0977 89.9602Z" fill="#3D333B"/>
<path d="M49.1387 91.2732C49.1387 94.0422 50.8157 97.2532 52.8957 98.4492C54.9757 99.6452 56.6527 98.3712 56.6527 95.6152C56.6527 92.8592 54.9757 89.6352 52.8957 88.4392C50.8157 87.2432 49.1387 88.5172 49.1387 91.2732Z" fill="#969696"/>
<path d="M50.1914 91.8842C50.1914 93.8732 51.4004 96.1742 52.8824 97.0322C54.3644 97.8902 55.5734 96.9802 55.5734 94.9912C55.5734 93.0022 54.3644 90.7012 52.8824 89.8432C51.4004 88.9852 50.1914 89.8952 50.1914 91.8842Z" fill="white"/>
<path d="M51.582 92.6901C51.582 93.6521 52.167 94.7571 52.882 95.1731C53.597 95.5891 54.182 95.1471 54.182 94.1851C54.182 93.2231 53.597 92.1181 52.882 91.7021C52.167 91.2861 51.582 91.7281 51.582 92.6901Z" fill="#383838"/>
<path d="M52.6367 90.6101C52.6367 90.7921 52.7537 91.0132 52.8837 91.0912C53.0267 91.1692 53.1307 91.0911 53.1307 90.8961C53.1307 90.7011 53.0137 90.4931 52.8837 90.4151C52.7407 90.3371 52.6367 90.4151 52.6367 90.6101Z" fill="#383838"/>
<path d="M50.9453 90.6101C50.9453 90.7921 51.0623 91.0132 51.1923 91.0912C51.3353 91.1692 51.4393 91.0911 51.4393 90.8961C51.4393 90.7011 51.3223 90.4931 51.1923 90.4151C51.0493 90.3371 50.9453 90.4151 50.9453 90.6101Z" fill="#383838"/>
<path d="M54.1953 92.482C54.1953 92.664 54.3123 92.885 54.4423 92.963C54.5853 93.041 54.6893 92.963 54.6893 92.768C54.6893 92.573 54.5723 92.365 54.4423 92.287C54.2993 92.209 54.1953 92.287 54.1953 92.482Z" fill="#383838"/>
<path d="M50.9453 94.1202C50.9453 94.3022 51.0623 94.5232 51.1923 94.6012C51.3353 94.6792 51.4393 94.6011 51.4393 94.4061C51.4393 94.2111 51.3223 94.0032 51.1923 93.9252C51.0493 93.8472 50.9453 93.9252 50.9453 94.1202Z" fill="#383838"/>
<path d="M54.1953 95.992C54.1953 96.174 54.3123 96.395 54.4423 96.473C54.5853 96.551 54.6893 96.473 54.6893 96.278C54.6893 96.083 54.5723 95.875 54.4423 95.797C54.2993 95.719 54.1953 95.797 54.1953 95.992Z" fill="#383838"/>
<path d="M50.543 92.2351C50.543 92.4171 50.66 92.6382 50.79 92.7162C50.933 92.7942 51.0369 92.7161 51.0369 92.5211C51.0369 92.3261 50.92 92.1181 50.79 92.0401C50.647 91.9621 50.543 92.0401 50.543 92.2351Z" fill="#383838"/>
<path d="M54.6895 94.6143C54.6895 94.7963 54.8064 95.0173 54.9364 95.0953C55.0794 95.1733 55.1834 95.0953 55.1834 94.9003C55.1834 94.7053 55.0664 94.4973 54.9364 94.4193C54.7934 94.3413 54.6895 94.4193 54.6895 94.6143Z" fill="#383838"/>
<path d="M52.6367 95.992C52.6367 96.174 52.7537 96.395 52.8837 96.473C53.0267 96.551 53.1307 96.473 53.1307 96.278C53.1307 96.083 53.0137 95.875 52.8837 95.797C52.7407 95.719 52.6367 95.797 52.6367 95.992Z" fill="#383838"/>
<path d="M-4.43261 50.9729C-1.39061 52.1949 1.2744 56.589 1.8334 60.645C2.6004 61.074 4.34239 62.0489 4.78439 62.3349C4.47239 63.8949 3.71839 64.8959 2.67839 65.3639L-1.42961 67.6779L-4.21163 61.5029C-5.03063 60.2159 -5.69363 58.7599 -6.12263 57.2649L-8.68359 51.5969C-7.61759 50.5959 -6.12262 50.3099 -4.44562 50.9859L-4.43261 50.9729Z" fill="#282027"/>
<path d="M-10.959 56.2768C-10.959 60.5408 -8.372 65.4938 -5.161 67.3398C-1.963 69.1858 0.636993 67.2228 0.636993 62.9588C0.636993 58.6948 -1.95 53.7418 -5.161 51.8958C-8.359 50.0498 -10.959 52.0128 -10.959 56.2768V56.2768Z" fill="#3D333B"/>
<path d="M6.03055 24.1021L7.52554 24.9731C9.15054 25.9091 10.1906 27.5861 10.1906 30.0171C10.1906 32.4481 9.15057 32.9811 7.59057 32.0841L6.01758 31.1741V24.0891L6.03055 24.1021ZM7.46056 30.7191C8.35756 31.2391 8.96856 31.0051 8.96856 29.3151C8.96856 27.6251 8.35756 26.7541 7.46056 26.2341L7.22657 26.1041V30.6021L7.46056 30.7321V30.7191Z" fill="white"/>
<path d="M11.1914 27.0792L14.5194 29.0032V30.3422L12.4004 29.1202V30.5372L14.2074 31.5772V32.9162L12.4004 31.8762V33.5012L14.6104 34.7752V36.1272L11.2044 34.1512V27.0662L11.1914 27.0792Z" fill="white"/>
<path d="M15.6367 29.6531L16.8457 30.3551V36.0881L18.9387 37.2971V38.6491L15.6367 36.7511V29.6661V29.6531Z" fill="white"/>
<path d="M19.8496 32.084L21.0586 32.786V39.871L19.8496 39.169V32.084Z" fill="white"/>
<path d="M21.6055 33.0979L22.8795 33.8259L23.5295 37.5049C23.6855 38.3629 23.7895 39.1429 23.9585 40.0139H23.9975C24.1535 39.3509 24.2704 38.6879 24.4264 38.0119L25.0505 35.0739L26.2855 35.7889L24.6865 41.9379L23.2435 41.1059L21.6445 33.0979H21.6055Z" fill="white"/>
<path d="M26.8184 36.1011L30.1464 38.0251V39.3771L28.0273 38.1551V39.5721L29.8343 40.6121V41.9511L28.0273 40.9111V42.5361L30.2373 43.8101V45.1621L26.8313 43.1861V36.1011H26.8184Z" fill="white"/>
<path d="M34.1367 47.4111L33.1227 44.2781L32.4727 43.9011V46.4491L31.2637 45.7471V38.6621L33.1747 39.7671C34.2927 40.4171 35.2287 41.4701 35.2287 43.1601C35.2287 44.2001 34.8517 44.6421 34.2797 44.6551L35.4757 48.1781L34.1367 47.3981V47.4111ZM32.4727 42.6271L33.0837 42.9781C33.7077 43.3421 34.0457 43.1731 34.0457 42.4841C34.0457 41.7951 33.7077 41.3531 33.0837 40.9891L32.4727 40.6381V42.6271Z" fill="white"/>
<path d="M37.0346 46.5661L35.4355 41.0801L36.7096 41.8211L37.1906 43.7321C37.3336 44.3431 37.4636 44.9151 37.6196 45.5391H37.6456C37.7886 45.0971 37.9446 44.7071 38.0876 44.2521L38.5556 42.9001L39.8166 43.6281L38.2046 47.2681V49.7901L37.0086 49.1011V46.5791L37.0346 46.5661Z" fill="white"/>
<path d="M83.7854 62.5819C80.9384 64.1679 72.8004 68.6919 68.0684 71.3179L74.2824 82.4849L94.9004 70.4729C92.0924 65.2599 87.5814 60.4629 83.7854 62.5819Z" fill="#779CC9"/>
<path d="M89.5311 53.7289C89.1671 53.0789 88.3481 52.8449 87.6981 53.2219L66.8461 65.2079C65.9361 65.7409 65.6111 66.8979 66.1181 67.8209L68.0681 71.3179C72.8001 68.6919 80.9511 64.1809 83.7851 62.5819C87.5811 60.4629 92.0921 65.2599 94.9001 70.4729L97.8381 68.7699L89.5311 53.7289V53.7289Z" fill="#5D80B3"/>
<path d="M60.2539 77.7533L65.2069 80.6003L60.2539 70.3433V77.7533Z" fill="#779CC9"/>
<path d="M45.6289 69.3549L59.0319 77.0379V69.6669L45.6289 62.3479V69.3549Z" fill="#779CC9"/>
<path d="M60.2539 66.573V70.343L65.2069 80.6L68.5609 82.524L60.2539 66.573Z" fill="#5D80B3"/>
<path d="M45.6289 57.863V62.348L59.0319 69.667V65.767L45.6289 57.863Z" fill="#5D80B3"/>
<path d="M45.6289 69.355V57.863L59.0319 65.767V66.573L46.3049 59.137L46.2399 69.693L45.6289 69.355Z" fill="#493E47"/>
<path d="M60.2539 66.3521V67.678L67.2479 81.757L68.5609 82.524L60.2539 66.3521Z" fill="#493E47"/>
<path d="M43.9258 71.3438V72.6438L73.7738 89.8557V88.4908L43.9258 71.3438Z" fill="#E03F0E"/>
<path d="M59.0332 77.0381V88.3221L60.2552 89.0241V77.6231L59.0332 77.0381Z" fill="#E03F0E"/>
</g>
</svg>
