<svg width="42" height="37" viewBox="0 0 42 37" fill="none" xmlns="http://www.w3.org/2000/svg">
<path d="M21.5733 8.89383L21.6658 8.92141L21.672 8.91433C21.9521 8.94812 22.2228 8.77577 22.3053 8.49748C22.9997 6.16399 25.1881 4.53344 27.6258 4.53344C27.9508 4.53344 28.2143 4.26989 28.2143 3.94495C28.2143 3.62 27.9508 3.35647 27.6258 3.35647C24.5698 3.35647 22.0019 5.39121 21.1774 8.16202C21.0845 8.47362 21.262 8.80099 21.5733 8.89383Z" fill="#FFB71B" stroke="#F9FFF9" stroke-width="0.3"/>
<path d="M33.7631 25.4306H31.1323C30.8902 25.4306 30.6938 25.2342 30.6938 24.9921C30.6938 24.75 30.8902 24.5536 31.1323 24.5536H33.7631C37.3896 24.5536 40.3403 21.6029 40.3403 17.9764C40.3403 14.3499 37.3896 11.3993 33.7631 11.3993H33.6999C33.5727 11.3993 33.4518 11.3441 33.3685 11.248C33.2852 11.1518 33.2476 11.0244 33.2658 10.8985C33.3049 10.6254 33.3246 10.351 33.3246 10.0838C33.3246 6.9409 30.7673 4.38359 27.6244 4.38359C26.4017 4.38359 25.2356 4.76569 24.2521 5.48886C24.036 5.64765 23.7291 5.57718 23.6041 5.33946C20.8189 0.0357739 13.5441 -0.676457 9.77245 3.93729C8.18362 5.88099 7.55935 8.40944 8.05958 10.8737C8.11471 11.1459 7.90643 11.3996 7.62987 11.3996H7.45417C3.82767 11.3996 0.876999 14.3503 0.876999 17.9768C0.876999 21.6033 3.82767 24.5539 7.45417 24.5539H10.085C10.3271 24.5539 10.5235 24.7503 10.5235 24.9924C10.5235 25.2345 10.3271 25.4309 10.085 25.4309H7.45417C3.34403 25.4309 0 22.0869 0 17.9767C0 13.9819 3.1589 10.7108 7.10996 10.5304C6.73882 7.97376 7.44853 5.39488 9.09343 3.3823C13.1315 -1.55777 20.8701 -1.00405 24.1414 4.50449C25.185 3.85021 26.3792 3.50698 27.6243 3.50698C31.4321 3.50698 34.4495 6.74798 34.1855 10.5345C38.1001 10.7541 41.2171 14.0079 41.2171 17.9764C41.2171 22.0869 37.8731 25.4306 33.7629 25.4306L33.7631 25.4306Z" fill="#FFB71B"/>
<path d="M9.43789 24.7444C9.43789 30.8718 14.4227 35.8565 20.55 35.8565C26.6774 35.8565 31.6621 30.8717 31.6621 24.7444C31.6621 18.617 26.6774 13.6323 20.55 13.6323C14.4226 13.6323 9.43789 18.6171 9.43789 24.7444ZM10.6151 24.7444C10.6151 19.2665 15.072 14.8095 20.55 14.8095C26.0279 14.8095 30.4849 19.2665 30.4849 24.7444C30.4849 30.2223 26.0279 34.6794 20.55 34.6794C15.0721 34.6794 10.6151 30.2224 10.6151 24.7444Z" fill="#FFB71B" stroke="#F9FFF9" stroke-width="0.3"/>
<path d="M20.2797 29.1574C20.2797 29.4175 20.4906 29.6284 20.7507 29.6284C21.0107 29.6284 21.2217 29.4178 21.2217 29.1574V20.8109C21.2217 20.5508 21.0108 20.3399 20.7507 20.3399C20.4906 20.3399 20.2797 20.5508 20.2797 20.8109V29.1574Z" fill="#FFB71B" stroke="white" stroke-width="0.3"/>
<path d="M20.7505 21.4778L18.5156 23.7127L18.5155 23.7128L20.7505 21.4778ZM20.7505 21.4778L22.9856 23.7128C23.0774 23.8047 23.1984 23.8508 23.3186 23.8508L20.7505 21.4778ZM21.0836 20.4786C20.8997 20.2947 20.6013 20.2945 20.4174 20.4786L23.3186 23.8508C23.4386 23.8508 23.5597 23.8051 23.6518 23.7127C23.8357 23.5287 23.8356 23.2307 23.6517 23.0467L21.0836 20.4786Z" fill="#FFB71B" stroke="white" stroke-width="0.3"/>
</svg>
