<svg width="130" height="130" viewBox="0 0 130 130" fill="none" xmlns="http://www.w3.org/2000/svg">
<mask id="mask0_501_793" style="mask-type:alpha" maskUnits="userSpaceOnUse" x="0" y="0" width="130" height="130">
<circle cx="65" cy="65" r="65" fill="#D9D9D9"/>
</mask>
<g mask="url(#mask0_501_793)">
<circle cx="65" cy="65" r="65" fill="#F59E0B"/>
<path d="M43.511 39.4941L-45.5 -11.8689L-14.274 -29.8999L74.737 21.4631L43.511 39.4941Z" fill="#DEEFFF"/>
<path d="M70.0695 22.373L-15.7695 -27.092L-14.0015 -28.002L71.8375 21.463L70.0695 22.373Z" fill="#A8CFF4"/>
<path d="M43.3416 37.7129L-42.4844 -11.7521L-40.7164 -12.6621L45.1096 36.8029L43.3416 37.7129Z" fill="#A8CFF4"/>
<path d="M30.3163 69.303L23.7773 73.086V79.794L30.3163 76.011V69.303Z" fill="#282027"/>
<path d="M29.2109 74.841C29.2109 79.222 31.8759 84.318 35.1649 86.216C38.4539 88.114 41.1189 86.099 41.1189 81.718C41.1189 77.337 38.4539 72.241 35.1649 70.343C31.8759 68.445 29.2109 70.46 29.2109 74.841Z" fill="#282027"/>
<path d="M34.5531 89.037L38.8561 86.606L31.1731 70.0959L27.0391 72.397L34.5531 89.037Z" fill="#282027"/>
<path d="M24.7383 77.3368C24.7383 81.7178 27.4033 86.8138 30.6923 88.7118C33.9813 90.6098 36.6462 88.5948 36.6462 84.2138C36.6462 79.8328 33.9813 74.7368 30.6923 72.8388C27.4033 70.9408 24.7383 72.9558 24.7383 77.3368Z" fill="#3D333B"/>
<path d="M26.832 78.6892C26.832 81.5362 28.561 84.8252 30.693 86.0602C32.825 87.2952 34.554 85.9823 34.554 83.1483C34.554 80.3143 32.825 77.0123 30.693 75.7773C28.561 74.5423 26.832 75.8552 26.832 78.6892Z" fill="#DBCCDB"/>
<path d="M27.9238 79.313C27.9238 81.354 29.1588 83.72 30.6928 84.604C32.2268 85.488 33.4618 84.552 33.4618 82.511C33.4618 80.47 32.2268 78.104 30.6928 77.22C29.1588 76.336 27.9238 77.272 27.9238 79.313Z" fill="white"/>
<path d="M29.3535 80.1448C29.3535 81.1328 29.9515 82.2768 30.6925 82.7058C31.4335 83.1348 32.0315 82.6798 32.0315 81.6918C32.0315 80.7038 31.4335 79.5598 30.6925 79.1308C29.9515 78.7018 29.3535 79.1568 29.3535 80.1448Z" fill="#3D333B"/>
<path d="M30.4316 77.9998C30.4316 78.1948 30.5487 78.4028 30.6917 78.4938C30.8347 78.5718 30.9517 78.4938 30.9517 78.2988C30.9517 78.1038 30.8347 77.8958 30.6917 77.8048C30.5487 77.7268 30.4316 77.8048 30.4316 77.9998Z" fill="#3D333B"/>
<path d="M28.7031 77.9998C28.7031 78.1948 28.8201 78.4028 28.9631 78.4938C29.1061 78.5718 29.2231 78.4938 29.2231 78.2988C29.2231 78.1038 29.1061 77.8958 28.9631 77.8048C28.8201 77.7268 28.7031 77.8048 28.7031 77.9998Z" fill="#3D333B"/>
<path d="M32.0312 79.9241C32.0312 80.1191 32.1483 80.3271 32.2913 80.4181C32.4343 80.4961 32.5512 80.4181 32.5512 80.2231C32.5512 80.0281 32.4343 79.8201 32.2913 79.7291C32.1483 79.6511 32.0312 79.7291 32.0312 79.9241Z" fill="#3D333B"/>
<path d="M28.7031 81.6009C28.7031 81.7959 28.8201 82.0039 28.9631 82.0949C29.1061 82.1729 29.2231 82.0949 29.2231 81.8999C29.2231 81.7049 29.1061 81.4969 28.9631 81.4059C28.8201 81.3279 28.7031 81.4059 28.7031 81.6009Z" fill="#3D333B"/>
<path d="M32.0312 83.5249C32.0312 83.7199 32.1483 83.9279 32.2913 84.0189C32.4343 84.0969 32.5512 84.0189 32.5512 83.8239C32.5512 83.6289 32.4343 83.4209 32.2913 83.3299C32.1483 83.2519 32.0312 83.3299 32.0312 83.5249Z" fill="#3D333B"/>
<path d="M28.2871 79.6638C28.2871 79.8588 28.4041 80.0669 28.5471 80.1579C28.6901 80.2359 28.8071 80.1579 28.8071 79.9629C28.8071 79.7679 28.6901 79.5599 28.5471 79.4689C28.4041 79.3909 28.2871 79.4688 28.2871 79.6638Z" fill="#3D333B"/>
<path d="M32.5391 82.1211C32.5391 82.3161 32.656 82.5241 32.799 82.6151C32.942 82.6931 33.0591 82.6151 33.0591 82.4201C33.0591 82.2251 32.942 82.0171 32.799 81.9261C32.656 81.8481 32.5391 81.9261 32.5391 82.1211Z" fill="#3D333B"/>
<path d="M30.4316 83.5249C30.4316 83.7199 30.5487 83.9279 30.6917 84.0189C30.8347 84.0969 30.9517 84.0189 30.9517 83.8239C30.9517 83.6289 30.8347 83.4209 30.6917 83.3299C30.5487 83.2519 30.4316 83.3299 30.4316 83.5249Z" fill="#3D333B"/>
<path d="M52.3763 91.1429L56.9393 88.3869L60.0073 85.9299C60.0073 85.9299 57.5633 85.0329 57.3293 84.8769C57.0953 84.7339 51.1803 86.8399 52.3633 91.1429H52.3763Z" fill="#262626"/>
<path d="M77.4659 39.78V69.797L74.0859 67.613L100.125 52.624L77.4659 39.78Z" fill="#EF4F77"/>
<path d="M82.8887 72.6831L108.018 87.2041V71.6431L104.82 60.7881L82.8887 72.6831Z" fill="#EF4F77"/>
<path d="M103.74 57.135C103.181 55.263 101.933 53.677 100.243 52.702L100.126 52.637L74.0867 67.626L66.0527 72.254L67.0537 81.302L82.8877 72.709L104.819 60.814L103.74 57.148V57.135Z" fill="white"/>
<path d="M102.582 54.7947L70.5371 72.8777L76.7901 89.6737L108.016 71.6427C108.016 71.6427 104.818 60.3327 103.401 56.2247C103.271 55.8347 102.569 54.7817 102.569 54.7817L102.582 54.7947Z" fill="#C5DFFF"/>
<path d="M65.0259 83.4078L50.4529 74.9968L38.5449 81.8608L53.1309 90.2848L65.0259 83.4078Z" fill="#3D333B"/>
<path d="M38.5449 81.8608L53.3259 90.4018V96.2129L38.5449 87.6848V81.8608Z" fill="#4F464D"/>
<path d="M39.6367 86.762L51.2847 93.444V94.107L39.6367 87.425V86.762Z" fill="#3D333B"/>
<path d="M39.6367 85.3188L51.2847 92.0138V92.6638L39.6367 85.9818V85.3188Z" fill="#3D333B"/>
<path d="M35.6987 67.106L-3.08028 44.187L-14.9883 51.064L23.7907 73.983L35.6987 67.106Z" fill="#3D333B"/>
<path d="M-14.9883 51.064L23.7907 73.983V79.794L-14.9883 56.875V51.064Z" fill="#4F464D"/>
<path d="M-13.8965 55.9521L22.4775 77.2721V77.9351L-13.8965 56.6151V55.9521Z" fill="#3D333B"/>
<path d="M-13.8965 54.5088L22.4775 75.8418V76.4918L-13.8965 55.1718V54.5088Z" fill="#3D333B"/>
<path d="M74.7377 21.4629V63.7259L43.5117 81.7439V39.4939L74.7377 21.4629Z" fill="#6397D6"/>
<path d="M74.7377 21.4629V34.8009L43.5117 52.8189V39.4939L74.7377 21.4629Z" fill="#C5DFFF"/>
<path d="M74.7377 60.4761V65.8061L43.5117 83.8241V78.5071L74.7377 60.4761Z" fill="#C5DFFF"/>
<path d="M-45.5 -11.8689V30.4071L43.511 81.7441V39.4941L-45.5 -11.8689Z" fill="#5D80B3"/>
<path d="M-45.5 -11.96V1.46904L43.511 52.819V39.403L-45.5 -11.96Z" fill="#A8CFF4"/>
<path d="M-7.30664 18.0703L16.8213 31.9933L20.4483 36.7383L-7.30664 20.7353V18.0703Z" fill="white"/>
<path d="M-7.30664 13.377L10.9844 24.128L14.6114 28.886L-7.30664 16.042V13.377Z" fill="white"/>
<path d="M-45.5 27.144V32.474L43.511 83.824V78.507L-45.5 27.144Z" fill="#A8CFF4"/>
<path d="M57.2012 90.662C57.2012 95.043 59.8662 100.139 63.1552 102.037C66.4442 103.935 69.1091 101.92 69.1091 97.539C69.1091 93.158 66.4442 88.062 63.1552 86.164C59.8662 84.266 57.2012 86.281 57.2012 90.662Z" fill="#282027"/>
<path d="M62.5303 104.858L66.8463 102.44L59.1503 85.9167L55.0293 88.2178L62.5303 104.858Z" fill="#282027"/>
<path d="M52.7285 93.1579C52.7285 97.5389 55.3935 102.635 58.6825 104.533C61.9715 106.431 64.6365 104.416 64.6365 100.035C64.6365 95.6539 61.9715 90.5578 58.6825 88.6598C55.3935 86.7618 52.7285 88.7769 52.7285 93.1579Z" fill="#3D333B"/>
<path d="M54.8223 94.51C54.8223 97.357 56.5513 100.646 58.6833 101.881C60.8153 103.116 62.5443 101.803 62.5443 98.9691C62.5443 96.1351 60.8153 92.8331 58.6833 91.5981C56.5513 90.3631 54.8223 91.676 54.8223 94.51Z" fill="#DBCCDB"/>
<path d="M55.9141 95.1338C55.9141 97.1748 57.1491 99.5408 58.6831 100.425C60.2171 101.309 61.4521 100.373 61.4521 98.3318C61.4521 96.2908 60.2171 93.9248 58.6831 93.0408C57.1491 92.1568 55.9141 93.0928 55.9141 95.1338Z" fill="white"/>
<path d="M57.3438 95.9658C57.3438 96.9538 57.9417 98.0978 58.6827 98.5268C59.4237 98.9558 60.0217 98.5008 60.0217 97.5128C60.0217 96.5248 59.4237 95.3808 58.6827 94.9518C57.9417 94.5228 57.3438 94.9778 57.3438 95.9658Z" fill="#3D333B"/>
<path d="M58.4219 93.8208C58.4219 94.0158 58.5389 94.2238 58.6819 94.3148C58.8249 94.3928 58.9419 94.3148 58.9419 94.1198C58.9419 93.9248 58.8249 93.7168 58.6819 93.6258C58.5389 93.5478 58.4219 93.6258 58.4219 93.8208Z" fill="#3D333B"/>
<path d="M56.6797 93.8208C56.6797 94.0158 56.7967 94.2238 56.9397 94.3148C57.0827 94.3928 57.1997 94.3148 57.1997 94.1198C57.1997 93.9248 57.0827 93.7168 56.9397 93.6258C56.7967 93.5478 56.6797 93.6258 56.6797 93.8208Z" fill="#3D333B"/>
<path d="M60.0215 95.7452C60.0215 95.9402 60.1385 96.1482 60.2815 96.2392C60.4245 96.3172 60.5415 96.2392 60.5415 96.0442C60.5415 95.8492 60.4245 95.6412 60.2815 95.5502C60.1385 95.4722 60.0215 95.5502 60.0215 95.7452Z" fill="#3D333B"/>
<path d="M56.6797 97.4217C56.6797 97.6167 56.7967 97.8247 56.9397 97.9157C57.0827 97.9937 57.1997 97.9157 57.1997 97.7207C57.1997 97.5257 57.0827 97.3177 56.9397 97.2267C56.7967 97.1487 56.6797 97.2267 56.6797 97.4217Z" fill="#3D333B"/>
<path d="M60.0215 99.3457C60.0215 99.5407 60.1385 99.7487 60.2815 99.8397C60.4245 99.9177 60.5415 99.8397 60.5415 99.6447C60.5415 99.4497 60.4245 99.2417 60.2815 99.1507C60.1385 99.0727 60.0215 99.1507 60.0215 99.3457Z" fill="#3D333B"/>
<path d="M56.2773 95.4848C56.2773 95.6798 56.3944 95.8878 56.5374 95.9788C56.6804 96.0568 56.7973 95.9789 56.7973 95.7839C56.7973 95.5889 56.6804 95.3808 56.5374 95.2898C56.3944 95.1988 56.2773 95.2898 56.2773 95.4848Z" fill="#3D333B"/>
<path d="M60.5293 97.9419C60.5293 98.1369 60.6463 98.3449 60.7893 98.4359C60.9323 98.5139 61.0493 98.4359 61.0493 98.2409C61.0493 98.0459 60.9323 97.8379 60.7893 97.7469C60.6463 97.6689 60.5293 97.7469 60.5293 97.9419Z" fill="#3D333B"/>
<path d="M58.4219 99.3457C58.4219 99.5407 58.5389 99.7487 58.6819 99.8397C58.8249 99.9177 58.9419 99.8397 58.9419 99.6447C58.9419 99.4497 58.8249 99.2417 58.6819 99.1507C58.5389 99.0727 58.4219 99.1507 58.4219 99.3457Z" fill="#3D333B"/>
<path d="M46.502 57.7329L69.018 70.7329C70.708 71.7079 71.956 73.2939 72.515 75.1659L76.805 89.6739V105.235L67.432 99.8269C66.665 94.5099 63.415 88.9719 59.541 86.7359C55.654 84.4869 52.4169 86.2809 51.6499 90.7139L46.515 87.7499V57.7329H46.502Z" fill="#96C6ED"/>
<path d="M62.4781 89.1019V66.9629L61.8281 66.5859V89.1019H62.4781Z" fill="#5D80B3"/>
<path d="M59.5401 87.542C63.0631 89.57 66.0011 94.588 66.7031 99.411L67.4441 99.84C66.6771 94.523 63.4271 88.985 59.5531 86.749C55.6661 84.5 52.4291 86.294 51.6621 90.727L52.4031 91.156C53.1051 87.139 56.0431 85.527 59.5661 87.555L59.5401 87.542Z" fill="#5D80B3"/>
<path d="M108.018 71.6431L76.8047 89.6741V105.235L108.018 87.2171V71.6431Z" fill="#C5DFFF"/>
<path d="M23.7637 71.7209L21.7227 70.5509V67.8469L23.7637 69.0169V71.7209Z" fill="white"/>
<path d="M24.3096 68.7048L23.7637 69.0168V71.7208L24.3096 71.4088V68.7048Z" fill="#79B3DB"/>
<path d="M24.3096 68.7049L22.2686 67.5349L21.7227 67.8469L23.7637 69.0169L24.3096 68.7049Z" fill="#C5DFFF"/>
<path d="M108.018 71.6431L76.8047 89.6741V90.9091L108.018 72.8781V71.6431Z" fill="#96C6ED"/>
<path d="M46.502 72.189L76.805 89.674V90.909L46.502 73.411V72.189Z" fill="#5D80B3"/>
<path d="M81.9512 92.1439V93.0279L102.868 80.9509V80.0669C102.868 80.0669 102.868 80.0019 102.868 79.9629L81.9772 92.0269C81.9772 92.0269 81.9772 92.1049 81.9772 92.1439H81.9512Z" fill="#3D333B"/>
<path d="M81.9512 96.512C81.9512 96.603 81.9512 96.694 81.9772 96.772L102.842 84.721C102.842 84.63 102.868 84.526 102.868 84.435V83.72L81.9512 95.797V96.512V96.512Z" fill="#3D333B"/>
<path d="M101.347 78.9231L83.4719 89.2451C82.9129 89.5701 82.4319 90.2461 82.1719 90.9871L102.647 79.1701C102.387 78.7281 101.906 78.6111 101.347 78.9231Z" fill="#3D333B"/>
<path d="M81.9512 94.887L102.868 82.81V81.874L81.9512 93.951V94.887Z" fill="#3D333B"/>
<path d="M83.472 97.669L101.347 87.347C101.854 87.061 102.296 86.476 102.569 85.813L82.25 97.539C82.523 97.877 82.965 97.955 83.472 97.669Z" fill="#3D333B"/>
<path d="M82.1728 90.9869C82.0558 91.3249 81.9778 91.6889 81.9648 92.0269L102.856 79.9629C102.843 79.6379 102.765 79.3649 102.648 79.1699L82.1728 90.9869V90.9869Z" fill="#779CC9"/>
<path d="M81.9512 93.9511L102.868 81.8741V80.9641L81.9512 93.0281V93.9511Z" fill="#779CC9"/>
<path d="M81.9512 95.7971L102.868 83.7201V82.8101L81.9512 94.8871V95.7971Z" fill="#779CC9"/>
<path d="M82.2496 97.5389L102.569 85.8129C102.712 85.4619 102.816 85.0979 102.842 84.7339L81.9766 96.7849C82.0156 97.1099 82.1066 97.3569 82.2496 97.5389V97.5389Z" fill="#779CC9"/>
<path d="M108.081 75.0229L105.39 76.7259C104.558 77.2069 103.869 78.5459 103.869 79.6639V84.0319C103.869 85.1499 104.558 85.6569 105.39 85.1759L108.081 83.4729V75.0229Z" fill="#FAC155"/>
<path d="M79.4827 91.5589L76.8047 93.1059V101.53L79.4827 99.9829C80.3147 99.5019 81.0037 98.1889 81.0037 97.0839V92.7159C81.0037 91.5979 80.3147 91.0909 79.4827 91.5719V91.5589Z" fill="#FAC155"/>
<path d="M80.3268 93.4309C80.3268 94.4839 79.6898 95.7189 78.8968 96.1739C78.1038 96.6289 77.4668 96.1479 77.4668 95.0949C77.4668 94.0419 78.1038 92.8069 78.8968 92.3519C79.6898 91.8969 80.3268 92.3779 80.3268 93.4309Z" fill="white"/>
<path d="M79.6891 97.8249C79.6891 98.6439 79.1951 99.6059 78.5711 99.9569C77.9601 100.308 77.4531 99.9309 77.4531 99.1119C77.4531 98.2929 77.9471 97.3309 78.5711 96.9799C79.1821 96.6289 79.6891 97.0059 79.6891 97.8249Z" fill="white"/>
<path d="M107.497 77.6489C107.497 78.7019 106.86 79.9369 106.067 80.3919C105.274 80.8469 104.637 80.366 104.637 79.313C104.637 78.26 105.274 77.025 106.067 76.57C106.86 76.115 107.497 76.5959 107.497 77.6489Z" fill="white"/>
<path d="M106.859 82.0431C106.859 82.8621 106.365 83.8241 105.741 84.1751C105.13 84.5261 104.623 84.1491 104.623 83.3301C104.623 82.5111 105.117 81.5491 105.741 81.1981C106.352 80.8471 106.859 81.2241 106.859 82.0431Z" fill="white"/>
<path d="M101.945 57.7849L105.429 68.7699L105.845 68.5229L102.673 58.0969C102.504 57.5509 101.997 57.2259 101.477 57.2519C101.698 57.3559 101.88 57.5249 101.945 57.7849V57.7849Z" fill="#3D333B"/>
<path d="M79.7014 86.6319L104.531 72.3449C105.766 71.6299 106.351 70.1609 105.935 68.8089L105.844 68.5359L77.0234 85.1889L77.1534 85.6179C77.4784 86.6969 78.7264 87.2039 79.7014 86.6319Z" fill="#3D333B"/>
<path d="M93.4045 64.077C91.1165 65.455 80.4435 71.461 74.0215 75.062C74.0215 75.075 74.0215 75.101 74.0215 75.114L77.0115 85.176L102.596 70.395C102.219 69.212 101.829 68.016 101.465 66.885C99.9045 62.062 96.7065 62.075 93.3915 64.077H93.4045Z" fill="#5D80B3"/>
<path d="M101.945 57.7849C101.867 57.5379 101.685 57.356 101.477 57.252C101.295 57.252 101.113 57.3039 100.944 57.4079L75.3733 71.7989C74.2163 72.4489 73.6703 73.8009 74.0213 75.0619C80.4433 71.4609 91.1163 65.455 93.4043 64.077C96.7193 62.075 99.9173 62.0619 101.477 66.8849C101.841 68.0159 102.231 69.225 102.608 70.395L105.429 68.77L101.945 57.7849V57.7849Z" fill="#45649B"/>
<path d="M70.8105 100.646V103.662C70.8105 105.235 72.4225 106.158 72.4225 106.158L72.8515 102.609L70.8105 100.646Z" fill="#324B83"/>
<path d="M76.6855 105.495L76.7635 108.719L82.1715 105.599L82.1195 102.362L76.6855 105.495Z" fill="#779CC9"/>
<path d="M110.031 86.2812L104.623 89.4012V92.5992L110.031 89.4662V86.2812Z" fill="#779CC9"/>
<path d="M82.1191 102.362L82.1712 105.599L104.622 92.5991V89.4011L82.1191 102.362Z" fill="#3D333B"/>
<path d="M100.84 92.2483L86.6309 100.425L86.6829 102.349L100.84 94.1593V92.2483Z" fill="white"/>
<path d="M76.7653 105.534V108.719L72.7743 106.418C72.2933 106.145 71.6953 105.456 71.6953 104.91V102.609L76.7653 105.534V105.534Z" fill="#324B83"/>
<path d="M70.8105 100.646L76.7645 104.091L108.017 86.0341V85.1631L110.032 86.2811L76.7645 105.534L72.6565 103.155C72.0325 102.804 71.3435 102.349 71.0445 101.699L70.8105 100.646Z" fill="#5D80B3"/>
<path d="M85.3847 102.128C85.3847 102.739 85.0077 103.454 84.5527 103.727C84.0977 104 83.7207 103.714 83.7207 103.09C83.7207 102.466 84.0977 101.764 84.5527 101.491C85.0207 101.218 85.3847 101.504 85.3847 102.128Z" fill="white"/>
<path d="M103.701 91.5459C103.701 92.1569 103.324 92.8719 102.869 93.1449C102.401 93.4179 102.037 93.1319 102.037 92.5079C102.037 91.8839 102.414 91.1819 102.869 90.9089C103.324 90.6359 103.701 90.9219 103.701 91.5459Z" fill="white"/>
<path d="M68.901 70.655L46.502 57.733L77.7279 39.689L100.127 52.624L68.901 70.655Z" fill="#C5DFFF"/>
<path d="M67.3527 65.0388L49.7637 55.7828V51.8828C49.7637 51.8828 55.5747 54.7038 60.6317 57.0178C65.6887 59.3318 67.3527 65.0388 67.3527 65.0388V65.0388Z" fill="#A8CFF4"/>
<path d="M67.3527 65.0389C67.3527 65.0389 66.5597 62.0879 62.6207 59.1629C59.3967 56.7709 49.7637 51.8699 49.7637 51.8699L74.2817 37.7129C74.2817 37.7129 83.7586 42.6529 87.0346 44.9279C91.3636 47.9309 91.8706 50.8819 91.8706 50.8819L67.3527 65.0389V65.0389Z" fill="white"/>
<path d="M69.1201 73.1382L65.0771 70.7982C64.6221 70.5382 64.2191 70.6682 64.0371 71.0842C64.1541 71.0842 64.2841 71.1362 64.4271 71.2142L68.4701 73.5542C69.0941 73.9182 69.6141 74.9062 69.6141 75.7382V82.9142C69.6141 83.1482 69.5751 83.3302 69.5101 83.4862C69.9521 83.5252 70.2641 83.1482 70.2641 82.4982V75.3222C70.2641 74.4772 69.7441 73.5022 69.1201 73.1382Z" fill="#324B83"/>
<path d="M69.6146 75.7512C69.6146 74.9062 69.0946 73.9312 68.4706 73.5672L64.4276 71.2272C64.2976 71.1492 64.1676 71.1102 64.0376 71.0972C63.9726 71.2532 63.9336 71.4482 63.9336 71.6692V78.8452C63.9336 79.6902 64.4536 80.6652 65.0776 81.0292L69.1206 83.3692C69.2506 83.4472 69.3806 83.4862 69.5106 83.4992C69.5756 83.3432 69.6146 83.1482 69.6146 82.9272V75.7512Z" fill="#45649B"/>
<path d="M70.123 98.9299L68.082 97.7599V95.0559L70.123 96.2259V98.9299Z" fill="white"/>
<path d="M70.6691 95.9138L70.123 96.2258V98.9298L70.6691 98.6178V95.9138Z" fill="#79B3DB"/>
<path d="M70.669 95.9139L68.628 94.7439L68.082 95.0559L70.123 96.2259L70.669 95.9139Z" fill="#C5DFFF"/>
<path d="M50.5176 87.2559L48.4766 86.0858V83.3818L50.5176 84.5518V87.2559Z" fill="white"/>
<path d="M51.0636 84.2397L50.5176 84.5518V87.2558L51.0636 86.9437V84.2397Z" fill="#79B3DB"/>
<path d="M51.0636 84.2398L49.0226 83.0698L48.4766 83.3818L50.5176 84.5518L51.0636 84.2398Z" fill="#C5DFFF"/>
</g>
</svg>
