<svg width="100" height="100" viewBox="0 0 100 100" fill="none" xmlns="http://www.w3.org/2000/svg">
<g style="mix-blend-mode:luminosity" opacity="0.4">
<mask id="mask0_501_958" style="mask-type:alpha" maskUnits="userSpaceOnUse" x="0" y="0" width="100" height="100">
<circle cx="50" cy="50" r="50" fill="#D9D9D9"/>
</mask>
<g mask="url(#mask0_501_958)">
<circle cx="50" cy="50" r="50" fill="#F59E0B"/>
<path d="M33.79 65.45L-13 38.42V2.78003L33.79 29.81V65.45Z" fill="#324B83"/>
<path d="M32.6198 30.71V63.3699L-11.7402 37.74V5.07996L32.6198 30.71Z" fill="#45649B"/>
<path d="M32.6198 54.71V56.99L-11.7402 31.36V29.08L32.6198 54.71Z" fill="white"/>
<path d="M9.76953 36.33L10.7195 39.16L32.6195 51.82V49.53L9.76953 36.33Z" fill="white"/>
<path d="M55.8691 17.05V32.22L33.7891 44.75V29.8101L55.8691 17.05Z" fill="#45649B"/>
<path d="M54.8396 19.22V31.69L35.0996 42.25V30.63L54.8396 19.22Z" fill="#5D80B3"/>
<path d="M55.87 17.05L9.04999 -10L-13 2.78L33.79 29.81L55.87 17.05Z" fill="#5D80B3"/>
<path d="M53.4092 16.86L33.7892 28.19L-10.5508 2.59998L9.13922 -8.78003L53.4092 16.86Z" fill="#779CC9"/>
<path d="M-11.7402 26.16V22.79L4.82977 32.38L2.78976 25.74L32.6198 42.98V46.48L7.09979 31.74L8.77979 38.02L-11.7402 26.16Z" fill="white"/>
<path d="M47.1191 50.1399L33.7891 42.5699L55.8291 29.8199L69.0491 37.4699L47.1191 50.1399Z" fill="#F25568"/>
<path d="M33.7891 42.5699V65.4499L56.7491 78.71V67.4399L47.1191 50.1399L33.7891 42.5699Z" fill="#D3293D"/>
<path d="M78.63 54.7999V65.9899L56.75 78.6099V67.4399L78.63 54.7999Z" fill="#E8434F"/>
<path d="M47.1191 50.14L56.7491 67.44L78.6292 54.8L69.0491 37.47L47.1191 50.14Z" fill="#FF8095"/>
<path d="M49.8492 52L56.6392 64.2C57.0192 64.89 57.8892 65.13 58.5692 64.74L75.6292 54.93C76.3792 54.5 76.6492 53.55 76.2292 52.79L69.3192 40.28C69.0192 39.74 68.3292 39.54 67.7892 39.85L50.4492 49.82C49.6892 50.26 49.4192 51.23 49.8492 52V52Z" fill="#493E47"/>
<path d="M80.519 65.2L57.459 78.46L57.519 81.17L80.519 67.88V65.2Z" fill="#493E47"/>
<path d="M57.5193 78.49V81.17L53.2793 78.71V76.04L57.5193 78.49Z" fill="#3D333B"/>
<path d="M54.3193 75.43L57.5193 77.28L79.4693 64.6L80.5193 65.2L57.5193 78.49L53.2793 76.04L54.3193 75.43Z" fill="#7C6B7C"/>
<path d="M73.0999 63.62V64.61L62.5898 70.71V69.7L73.0999 63.62Z" fill="#3D333B"/>
<path d="M73.0999 65.45V66.45L62.5898 72.54V71.53L73.0999 65.45Z" fill="#3D333B"/>
<path d="M73.0999 61.76V62.75L62.5898 68.84V67.84L73.0999 61.76Z" fill="#3D333B"/>
<path d="M73.0999 59.8899V60.8899L62.5898 66.9799V65.9799L73.0999 59.8899Z" fill="#3D333B"/>
<path d="M74.1484 62.33L78.6284 59.75V63.11L74.1484 65.7V62.33Z" fill="white"/>
<path d="M61.6383 69.5499V72.9299L56.7483 75.7599L56.7383 72.3899L61.6383 69.5499Z" fill="white"/>
<path d="M61.6383 66.48V68.68L56.7483 71.51L56.7383 69.33L61.6383 66.48Z" fill="#FFC85A"/>
<path d="M78.6285 56.5599V58.7699L73.7285 61.5999V59.4099L78.6285 56.5599Z" fill="#FFC85A"/>
<path d="M78.4489 61.63C78.4489 62.3 78.0389 63.08 77.5389 63.37C77.0389 63.66 76.6289 63.35 76.6289 62.68C76.6289 62.01 77.0389 61.23 77.5389 60.94C78.0389 60.65 78.4489 60.96 78.4489 61.63Z" fill="#FFC85A"/>
<path d="M58.9489 72.7099C58.9489 73.3799 58.5389 74.1599 58.0389 74.4499C57.5389 74.7399 57.1289 74.4299 57.1289 73.7599C57.1289 73.0899 57.5389 72.3099 58.0389 72.0199C58.5389 71.7299 58.9489 72.0399 58.9489 72.7099Z" fill="#FFC85A"/>
<path d="M61.1481 71.39C61.1481 72.06 60.7381 72.84 60.2381 73.13C59.7381 73.42 59.3281 73.11 59.3281 72.44C59.3281 71.77 59.7381 70.99 60.2381 70.7C60.7381 70.41 61.1481 70.72 61.1481 71.39Z" fill="#FFC85A"/>
<path d="M76.3493 62.79C76.3493 63.46 75.9393 64.24 75.4393 64.53C74.9393 64.82 74.5293 64.51 74.5293 63.84C74.5293 63.17 74.9393 62.39 75.4393 62.1C75.9393 61.81 76.3493 62.12 76.3493 62.79Z" fill="#FFC85A"/>
<path d="M41.2602 65.1199C43.6002 66.0599 45.6502 69.4399 46.0802 72.5599C46.6702 72.8899 48.0103 73.64 48.3503 73.86C48.1103 75.06 47.5302 75.83 46.7302 76.19L43.5703 77.97L41.4302 73.22C40.8002 72.23 40.2902 71.11 39.9602 69.96L37.9902 65.6C38.8102 64.83 39.9602 64.61 41.2502 65.13L41.2602 65.1199Z" fill="#282027"/>
<path d="M36.2305 69.2C36.2305 72.48 38.2205 76.29 40.6905 77.71C43.1505 79.13 45.1505 77.62 45.1505 74.34C45.1505 71.06 43.1605 67.25 40.6905 65.83C38.2305 64.41 36.2305 65.92 36.2305 69.2Z" fill="#3D333B"/>
<path d="M37.8008 70.21C37.8008 72.34 39.0908 74.81 40.6908 75.73C42.2908 76.65 43.5808 75.67 43.5808 73.55C43.5808 71.43 42.2908 68.95 40.6908 68.03C39.0908 67.11 37.8008 68.09 37.8008 70.21Z" fill="#969696"/>
<path d="M38.6113 70.68C38.6113 72.21 39.5413 73.98 40.6813 74.64C41.8213 75.3 42.7513 74.6 42.7513 73.07C42.7513 71.54 41.8213 69.77 40.6813 69.11C39.5413 68.45 38.6113 69.15 38.6113 70.68Z" fill="white"/>
<path d="M39.6797 71.2999C39.6797 72.0399 40.1297 72.8899 40.6797 73.2099C41.2297 73.5299 41.6797 73.1899 41.6797 72.4499C41.6797 71.7099 41.2297 70.8599 40.6797 70.5399C40.1297 70.2199 39.6797 70.5599 39.6797 71.2999Z" fill="#383838"/>
<path d="M40.4902 69.7C40.4902 69.84 40.5802 70.01 40.6802 70.07C40.7902 70.13 40.8702 70.07 40.8702 69.92C40.8702 69.77 40.7802 69.61 40.6802 69.55C40.5702 69.49 40.4902 69.55 40.4902 69.7Z" fill="#383838"/>
<path d="M39.1914 69.7C39.1914 69.84 39.2814 70.01 39.3814 70.07C39.4914 70.13 39.5714 70.07 39.5714 69.92C39.5714 69.77 39.4814 69.61 39.3814 69.55C39.2714 69.49 39.1914 69.55 39.1914 69.7Z" fill="#383838"/>
<path d="M41.6914 71.1399C41.6914 71.2799 41.7814 71.4499 41.8814 71.5099C41.9914 71.5699 42.0714 71.5099 42.0714 71.3599C42.0714 71.2099 41.9814 71.0499 41.8814 70.9899C41.7714 70.9299 41.6914 70.9899 41.6914 71.1399Z" fill="#383838"/>
<path d="M39.1914 72.3999C39.1914 72.5399 39.2814 72.7099 39.3814 72.7699C39.4914 72.8299 39.5714 72.7699 39.5714 72.6199C39.5714 72.4699 39.4814 72.3099 39.3814 72.2499C39.2714 72.1899 39.1914 72.2499 39.1914 72.3999Z" fill="#383838"/>
<path d="M41.6914 73.84C41.6914 73.98 41.7814 74.15 41.8814 74.21C41.9914 74.27 42.0714 74.21 42.0714 74.06C42.0714 73.91 41.9814 73.75 41.8814 73.69C41.7714 73.63 41.6914 73.69 41.6914 73.84Z" fill="#383838"/>
<path d="M38.8809 70.95C38.8809 71.09 38.9709 71.26 39.0709 71.32C39.1809 71.38 39.2608 71.32 39.2608 71.17C39.2608 71.02 39.1709 70.86 39.0709 70.8C38.9609 70.74 38.8809 70.8 38.8809 70.95Z" fill="#383838"/>
<path d="M42.0703 72.7799C42.0703 72.9199 42.1603 73.0899 42.2603 73.1499C42.3703 73.2099 42.4503 73.1499 42.4503 72.9999C42.4503 72.8499 42.3603 72.6899 42.2603 72.6299C42.1503 72.5699 42.0703 72.6299 42.0703 72.7799Z" fill="#383838"/>
<path d="M40.4902 73.84C40.4902 73.98 40.5802 74.15 40.6802 74.21C40.7902 74.27 40.8702 74.21 40.8702 74.06C40.8702 73.91 40.7802 73.75 40.6802 73.69C40.5702 73.63 40.4902 73.69 40.4902 73.84Z" fill="#383838"/>
<path d="M-3.4097 39.21C-1.0697 40.15 0.980309 43.5301 1.41031 46.6501C2.00031 46.9801 3.3403 47.73 3.6803 47.95C3.4403 49.15 2.8603 49.92 2.0603 50.28L-1.0997 52.06L-3.23972 47.31C-3.86972 46.32 -4.37972 45.2 -4.70972 44.05L-6.67969 39.69C-5.85969 38.92 -4.70971 38.7 -3.41971 39.22L-3.4097 39.21Z" fill="#282027"/>
<path d="M-8.42969 43.2901C-8.42969 46.5701 -6.4397 50.3801 -3.9697 51.8001C-1.5097 53.2201 0.490295 51.7101 0.490295 48.4301C0.490295 45.1501 -1.4997 41.3401 -3.9697 39.9201C-6.4297 38.5001 -8.42969 40.0101 -8.42969 43.2901V43.2901Z" fill="#3D333B"/>
<path d="M4.64084 18.54L5.79083 19.21C7.04083 19.93 7.84085 21.22 7.84085 23.09C7.84085 24.96 7.04085 25.37 5.84085 24.68L4.63086 23.98V18.53L4.64084 18.54ZM5.74084 23.63C6.43084 24.03 6.90085 23.85 6.90085 22.55C6.90085 21.25 6.43084 20.58 5.74084 20.18L5.56085 20.08V23.54L5.74084 23.64V23.63Z" fill="white"/>
<path d="M8.61133 20.8301L11.1713 22.3101V23.3401L9.54132 22.4001V23.4901L10.9313 24.2901V25.3201L9.54132 24.5201V25.7701L11.2413 26.7501V27.7901L8.62134 26.2701V20.8201L8.61133 20.8301Z" fill="white"/>
<path d="M12.0312 22.8101L12.9612 23.3501V27.7601L14.5713 28.6901V29.7301L12.0312 28.2701V22.8201V22.8101Z" fill="white"/>
<path d="M15.2715 24.6801L16.2015 25.2201V30.6701L15.2715 30.1301V24.6801Z" fill="white"/>
<path d="M16.6211 25.4601L17.6011 26.0201L18.1011 28.8501C18.2211 29.5101 18.3011 30.1101 18.4311 30.7801H18.4611C18.5811 30.2701 18.6711 29.7601 18.7911 29.2401L19.2711 26.9801L20.2211 27.5301L18.9911 32.2601L17.8811 31.6201L16.6511 25.4601H16.6211Z" fill="white"/>
<path d="M20.6309 27.77L23.1909 29.25V30.29L21.5609 29.35V30.44L22.9508 31.24V32.27L21.5609 31.47V32.72L23.2608 33.7V34.74L20.6408 33.22V27.77H20.6309Z" fill="white"/>
<path d="M26.2608 36.47L25.4808 34.06L24.9808 33.77V35.73L24.0508 35.19V29.74L25.5208 30.59C26.3808 31.09 27.1008 31.9 27.1008 33.2C27.1008 34 26.8108 34.34 26.3708 34.35L27.2908 37.06L26.2608 36.46V36.47ZM24.9808 32.79L25.4508 33.06C25.9308 33.34 26.1908 33.21 26.1908 32.68C26.1908 32.15 25.9308 31.81 25.4508 31.53L24.9808 31.26V32.79Z" fill="white"/>
<path d="M28.4917 35.8201L27.2617 31.6001L28.2417 32.1701L28.6117 33.6401C28.7217 34.1101 28.8217 34.5501 28.9417 35.0301H28.9617C29.0717 34.6901 29.1917 34.3901 29.3017 34.0401L29.6617 33.0001L30.6317 33.5601L29.3917 36.3601V38.3001L28.4717 37.7701V35.8301L28.4917 35.8201Z" fill="white"/>
<path d="M64.4494 48.1399C62.2594 49.3599 55.9994 52.8399 52.3594 54.8599L57.1394 63.4499L72.9994 54.2099C70.8394 50.1999 67.3694 46.5099 64.4494 48.1399Z" fill="#779CC9"/>
<path d="M68.8698 41.33C68.5898 40.83 67.9598 40.65 67.4598 40.94L51.4198 50.16C50.7198 50.57 50.4698 51.46 50.8598 52.17L52.3598 54.86C55.9998 52.84 62.2698 49.37 64.4498 48.14C67.3698 46.51 70.8398 50.2 72.9998 54.21L75.2598 52.9L68.8698 41.33V41.33Z" fill="#5D80B3"/>
<path d="M46.3496 59.81L50.1596 62L46.3496 54.11V59.81Z" fill="#779CC9"/>
<path d="M35.0996 53.35L45.4096 59.26V53.59L35.0996 47.96V53.35Z" fill="#779CC9"/>
<path d="M46.3496 51.21V54.11L50.1596 62L52.7396 63.4799L46.3496 51.21Z" fill="#5D80B3"/>
<path d="M35.0996 44.51V47.96L45.4096 53.59V50.59L35.0996 44.51Z" fill="#5D80B3"/>
<path d="M35.0996 53.35V44.51L45.4096 50.59V51.21L35.6196 45.49L35.5696 53.61L35.0996 53.35Z" fill="#493E47"/>
<path d="M46.3496 51.04V52.06L51.7296 62.89L52.7396 63.48L46.3496 51.04Z" fill="#493E47"/>
<path d="M33.7891 54.88V55.88L56.7491 69.12V68.07L33.7891 54.88Z" fill="#E03F0E"/>
<path d="M45.4102 59.26V67.94L46.3502 68.48V59.71L45.4102 59.26Z" fill="#E03F0E"/>
</g>
</g>
</svg>
